<svg xmlns="http://www.w3.org/2000/svg" xmlns:xlink="http://www.w3.org/1999/xlink" width="605" zoomAndPan="magnify" viewBox="0 0 453.75 422.99999" height="564" preserveAspectRatio="xMidYMid meet" version="1.0"><defs><clipPath id="55017935f4"><path d="M 16 0.117188 L 438 0.117188 L 438 422.882812 L 16 422.882812 Z M 16 0.117188 " clip-rule="nonzero"/></clipPath></defs><g clip-path="url(#55017935f4)"><path fill="#e63031" d="M 437.617188 211.480469 C 437.617188 214.929688 437.535156 218.371094 437.363281 221.816406 C 437.195312 225.257812 436.941406 228.695312 436.605469 232.125 C 436.265625 235.554688 435.84375 238.972656 435.339844 242.382812 C 434.832031 245.792969 434.246094 249.1875 433.574219 252.566406 C 432.898438 255.949219 432.144531 259.308594 431.308594 262.652344 C 430.46875 265.996094 429.550781 269.316406 428.550781 272.613281 C 427.550781 275.914062 426.46875 279.183594 425.308594 282.429688 C 424.148438 285.675781 422.90625 288.890625 421.589844 292.074219 C 420.269531 295.257812 418.871094 298.40625 417.398438 301.523438 C 415.925781 304.640625 414.375 307.71875 412.75 310.757812 C 411.128906 313.796875 409.429688 316.792969 407.65625 319.75 C 405.886719 322.707031 404.042969 325.617188 402.125 328.484375 C 400.210938 331.347656 398.226562 334.164062 396.175781 336.933594 C 394.121094 339.703125 392.003906 342.417969 389.816406 345.082031 C 387.628906 347.746094 385.378906 350.355469 383.0625 352.910156 C 380.75 355.464844 378.375 357.960938 375.9375 360.394531 C 373.5 362.832031 371.003906 365.210938 368.449219 367.523438 C 365.898438 369.839844 363.289062 372.089844 360.625 374.273438 C 357.960938 376.460938 355.242188 378.582031 352.472656 380.632812 C 349.707031 382.6875 346.890625 384.671875 344.023438 386.585938 C 341.15625 388.5 338.246094 390.34375 335.289062 392.117188 C 332.335938 393.886719 329.335938 395.585938 326.296875 397.210938 C 323.257812 398.835938 320.179688 400.386719 317.0625 401.859375 C 313.949219 403.332031 310.796875 404.730469 307.613281 406.046875 C 304.429688 407.367188 301.214844 408.605469 297.96875 409.769531 C 294.726562 410.929688 291.453125 412.007812 288.15625 413.011719 C 284.855469 414.011719 281.535156 414.929688 278.191406 415.765625 C 274.851562 416.605469 271.488281 417.359375 268.109375 418.03125 C 264.726562 418.703125 261.332031 419.292969 257.921875 419.800781 C 254.515625 420.304688 251.09375 420.726562 247.664062 421.0625 C 244.234375 421.402344 240.796875 421.65625 237.355469 421.824219 C 233.914062 421.992188 230.46875 422.078125 227.023438 422.078125 C 223.574219 422.078125 220.132812 421.992188 216.6875 421.824219 C 213.246094 421.65625 209.808594 421.402344 206.378906 421.0625 C 202.949219 420.726562 199.53125 420.304688 196.121094 419.800781 C 192.710938 419.292969 189.316406 418.703125 185.9375 418.03125 C 182.558594 417.359375 179.195312 416.605469 175.851562 415.765625 C 172.507812 414.929688 169.1875 414.011719 165.890625 413.011719 C 162.589844 412.007812 159.320312 410.929688 156.074219 409.769531 C 152.828125 408.605469 149.613281 407.367188 146.429688 406.046875 C 143.246094 404.730469 140.097656 403.332031 136.980469 401.859375 C 133.863281 400.386719 130.789062 398.835938 127.746094 397.210938 C 124.707031 395.585938 121.710938 393.886719 118.753906 392.117188 C 115.796875 390.34375 112.886719 388.5 110.019531 386.585938 C 107.15625 384.671875 104.339844 382.6875 101.570312 380.632812 C 98.800781 378.582031 96.085938 376.460938 93.421875 374.273438 C 90.757812 372.089844 88.148438 369.839844 85.59375 367.523438 C 83.039062 365.210938 80.546875 362.832031 78.109375 360.394531 C 75.671875 357.960938 73.296875 355.464844 70.980469 352.910156 C 68.667969 350.355469 66.414062 347.746094 64.230469 345.082031 C 62.042969 342.417969 59.921875 339.703125 57.871094 336.933594 C 55.816406 334.164062 53.832031 331.347656 51.917969 328.484375 C 50.003906 325.617188 48.160156 322.707031 46.386719 319.75 C 44.617188 316.792969 42.917969 313.796875 41.292969 310.757812 C 39.667969 307.714844 38.117188 304.640625 36.644531 301.523438 C 35.171875 298.40625 33.777344 295.257812 32.457031 292.074219 C 31.136719 288.890625 29.898438 285.675781 28.738281 282.429688 C 27.574219 279.183594 26.496094 275.914062 25.496094 272.613281 C 24.492188 269.316406 23.574219 265.996094 22.738281 262.652344 C 21.898438 259.308594 21.144531 255.949219 20.472656 252.566406 C 19.800781 249.1875 19.210938 245.792969 18.707031 242.382812 C 18.199219 238.972656 17.777344 235.554688 17.441406 232.125 C 17.101562 228.695312 16.847656 225.257812 16.679688 221.816406 C 16.511719 218.371094 16.425781 214.929688 16.425781 211.480469 C 16.425781 208.035156 16.511719 204.589844 16.679688 201.148438 C 16.847656 197.707031 17.101562 194.269531 17.441406 190.839844 C 17.777344 187.410156 18.199219 183.992188 18.707031 180.582031 C 19.210938 177.171875 19.800781 173.777344 20.472656 170.398438 C 21.144531 167.015625 21.898438 163.65625 22.738281 160.3125 C 23.574219 156.96875 24.492188 153.648438 25.496094 150.347656 C 26.496094 147.050781 27.574219 143.777344 28.738281 140.535156 C 29.898438 137.289062 31.136719 134.074219 32.457031 130.890625 C 33.777344 127.707031 35.171875 124.554688 36.644531 121.441406 C 38.117188 118.324219 39.667969 115.246094 41.292969 112.207031 C 42.917969 109.167969 44.617188 106.171875 46.386719 103.214844 C 48.160156 100.257812 50.003906 97.347656 51.917969 94.480469 C 53.832031 91.613281 55.816406 88.796875 57.871094 86.03125 C 59.921875 83.261719 62.042969 80.546875 64.230469 77.882812 C 66.414062 75.214844 68.667969 72.609375 70.980469 70.054688 C 73.296875 67.5 75.671875 65.003906 78.109375 62.566406 C 80.546875 60.128906 83.039062 57.753906 85.59375 55.441406 C 88.148438 53.125 90.757812 50.875 93.421875 48.6875 C 96.085938 46.503906 98.800781 44.382812 101.570312 42.328125 C 104.339844 40.277344 107.15625 38.292969 110.019531 36.378906 C 112.886719 34.460938 115.796875 32.621094 118.753906 30.847656 C 121.710938 29.074219 124.707031 27.378906 127.746094 25.753906 C 130.789062 24.128906 133.863281 22.578125 136.980469 21.105469 C 140.097656 19.632812 143.246094 18.234375 146.429688 16.917969 C 149.613281 15.597656 152.828125 14.355469 156.074219 13.195312 C 159.320312 12.035156 162.589844 10.953125 165.890625 9.953125 C 169.1875 8.953125 172.507812 8.035156 175.851562 7.195312 C 179.195312 6.359375 182.558594 5.605469 185.9375 4.933594 C 189.316406 4.257812 192.710938 3.671875 196.121094 3.164062 C 199.53125 2.660156 202.949219 2.238281 206.378906 1.898438 C 209.808594 1.5625 213.246094 1.308594 216.6875 1.140625 C 220.132812 0.96875 223.574219 0.886719 227.023438 0.886719 C 230.46875 0.886719 233.914062 0.96875 237.355469 1.140625 C 240.796875 1.308594 244.234375 1.5625 247.664062 1.898438 C 251.09375 2.238281 254.515625 2.660156 257.921875 3.164062 C 261.332031 3.671875 264.726562 4.257812 268.109375 4.933594 C 271.488281 5.605469 274.851562 6.359375 278.191406 7.195312 C 281.535156 8.035156 284.855469 8.953125 288.15625 9.953125 C 291.453125 10.953125 294.726562 12.035156 297.96875 13.195312 C 301.214844 14.355469 304.429688 15.597656 307.613281 16.917969 C 310.796875 18.234375 313.949219 19.632812 317.0625 21.105469 C 320.179688 22.578125 323.257812 24.128906 326.296875 25.753906 C 329.335938 27.378906 332.335938 29.074219 335.289062 30.847656 C 338.246094 32.621094 341.15625 34.460938 344.023438 36.378906 C 346.890625 38.292969 349.707031 40.277344 352.472656 42.328125 C 355.242188 44.382812 357.960938 46.503906 360.625 48.6875 C 363.289062 50.875 365.898438 53.125 368.449219 55.441406 C 371.003906 57.753906 373.5 60.128906 375.9375 62.566406 C 378.375 65.003906 380.75 67.5 383.0625 70.054688 C 385.378906 72.609375 387.628906 75.214844 389.816406 77.882812 C 392.003906 80.546875 394.121094 83.261719 396.175781 86.03125 C 398.226562 88.796875 400.210938 91.613281 402.125 94.480469 C 404.042969 97.347656 405.886719 100.257812 407.65625 103.214844 C 409.429688 106.171875 411.128906 109.167969 412.75 112.207031 C 414.375 115.246094 415.925781 118.324219 417.398438 121.441406 C 418.871094 124.554688 420.269531 127.707031 421.589844 130.890625 C 422.90625 134.074219 424.148438 137.289062 425.308594 140.535156 C 426.46875 143.777344 427.550781 147.050781 428.550781 150.347656 C 429.550781 153.648438 430.46875 156.96875 431.308594 160.3125 C 432.144531 163.65625 432.898438 167.015625 433.574219 170.398438 C 434.246094 173.777344 434.832031 177.171875 435.339844 180.582031 C 435.84375 183.992188 436.265625 187.410156 436.605469 190.839844 C 436.941406 194.269531 437.195312 197.707031 437.363281 201.148438 C 437.535156 204.589844 437.617188 208.035156 437.617188 211.480469 Z M 437.617188 211.480469 " fill-opacity="1" fill-rule="nonzero"/></g><path fill="#e63031" d="M 305.128906 134.835938 C 303.667969 174.226562 298.082031 214.253906 281.628906 250.3125 C 244.1875 247.273438 213.867188 283.066406 217.089844 319.234375 C 215.179688 321.183594 200.636719 310.765625 197.9375 308.777344 C 140.484375 267.101562 127.964844 202.410156 125.042969 134.949219 C 133.585938 132.925781 142.355469 132.925781 151.015625 131.351562 C 175.226562 126.929688 196.066406 117.746094 214.992188 102.003906 C 240.628906 123.667969 271.960938 132.738281 305.09375 134.835938 Z M 212.96875 313.726562 L 212.96875 108.601562 C 188.792969 126.480469 159.222656 137.046875 128.976562 137.496094 C 131.863281 206.609375 146.367188 270.625 207.046875 310.691406 C 208.957031 311.964844 210.457031 314.0625 212.96875 313.726562 Z M 212.96875 313.726562 " fill-opacity="1" fill-rule="nonzero"/><path fill="#ffffff" d="M 306.554688 254.546875 L 290.023438 249.710938 C 305.652344 211.332031 312.476562 169.503906 311.914062 128.054688 C 302.355469 126.066406 292.535156 126.328125 282.867188 124.753906 C 257.605469 120.632812 234.292969 108.789062 214.992188 92.410156 C 197.714844 107.8125 176.648438 118.308594 154.011719 123.367188 C 142.132812 126.027344 131.039062 126.179688 119.308594 128.578125 C 117.09375 130.226562 117.769531 141.621094 117.882812 145.179688 C 120.207031 212.757812 139.65625 275.757812 195.988281 316.273438 C 202.699219 321.109375 209.820312 327.96875 218.289062 327.707031 L 223.722656 342.023438 C 223.722656 343.671875 216.492188 347.945312 214.242188 347.53125 C 209.820312 346.707031 192.542969 334.75 187.742188 331.414062 C 147.078125 302.855469 124.066406 268.226562 112 219.914062 C 103.414062 185.582031 99.367188 146.753906 103.039062 111.636719 C 104.878906 108.789062 122.679688 110.4375 126.953125 110.0625 C 155.363281 107.703125 180.359375 98.929688 202.585938 81.054688 C 206.820312 77.644531 209.894531 72.246094 215.027344 70.035156 C 216.714844 70.035156 229.308594 82.179688 232.34375 84.425781 C 252.132812 99.042969 275.671875 107.964844 300.371094 109.988281 C 305.878906 110.4375 322.59375 108.75 325.816406 110.664062 C 327.730469 111.785156 328.328125 115.421875 328.589844 117.519531 C 329.640625 126.667969 329.078125 142.445312 328.628906 152.039062 C 326.980469 186.894531 319.109375 222.199219 306.515625 254.546875 Z M 306.554688 254.546875 " fill-opacity="1" fill-rule="nonzero"/><path fill="#ffffff" d="M 270.460938 257.65625 C 354.902344 246.1875 361.574219 366.644531 286.464844 372.753906 C 211.46875 378.863281 202.921875 266.800781 270.460938 257.65625 Z M 274.582031 270.0625 C 218.703125 277.632812 229.609375 364.359375 285.039062 360.460938 C 344.144531 356.300781 336.3125 261.703125 274.582031 270.0625 Z M 274.582031 270.0625 " fill-opacity="1" fill-rule="nonzero"/><path fill="#ffffff" d="M 212.96875 313.726562 C 210.457031 314.0625 208.996094 311.964844 207.046875 310.691406 C 146.367188 270.625 131.863281 206.648438 128.976562 137.496094 C 159.183594 137.046875 188.792969 126.441406 212.96875 108.601562 Z M 212.96875 313.726562 " fill-opacity="1" fill-rule="nonzero"/><path fill="#ffffff" d="M 306.140625 292.0625 C 311.164062 291.835938 316.710938 299.332031 314.160156 304.054688 C 303.816406 311.289062 288 334.714844 277.996094 339.585938 C 273.835938 341.609375 271.660156 340.109375 268.136719 337.710938 C 261.914062 333.476562 241.9375 315.148438 254.605469 309.226562 C 266.375 303.757812 270.949219 319.910156 275.445312 319.121094 C 282.714844 314.363281 298.421875 292.398438 306.179688 292.023438 Z M 306.140625 292.0625 " fill-opacity="1" fill-rule="nonzero"/></svg>