<svg xmlns="http://www.w3.org/2000/svg" xmlns:xlink="http://www.w3.org/1999/xlink" width="595" zoomAndPan="magnify" viewBox="0 0 446.25 381.749989" height="509" preserveAspectRatio="xMidYMid meet" version="1.0"><path fill="#e63031" d="M 393.464844 189.320312 C 393.464844 192.257812 393.394531 195.195312 393.25 198.132812 C 393.105469 201.066406 392.886719 203.996094 392.601562 206.921875 C 392.3125 209.847656 391.953125 212.761719 391.519531 215.671875 C 391.089844 218.578125 390.585938 221.472656 390.015625 224.355469 C 389.441406 227.238281 388.796875 230.105469 388.082031 232.957031 C 387.367188 235.804688 386.585938 238.636719 385.730469 241.449219 C 384.878906 244.261719 383.957031 247.050781 382.96875 249.820312 C 381.976562 252.585938 380.917969 255.328125 379.792969 258.042969 C 378.671875 260.757812 377.480469 263.445312 376.222656 266.101562 C 374.964844 268.757812 373.644531 271.382812 372.257812 273.976562 C 370.875 276.566406 369.425781 279.125 367.914062 281.644531 C 366.402344 284.164062 364.832031 286.648438 363.199219 289.089844 C 361.566406 291.535156 359.875 293.9375 358.125 296.296875 C 356.375 298.660156 354.566406 300.976562 352.699219 303.246094 C 350.835938 305.519531 348.917969 307.742188 346.945312 309.921875 C 344.96875 312.097656 342.945312 314.226562 340.867188 316.304688 C 338.789062 318.382812 336.660156 320.410156 334.480469 322.382812 C 332.304688 324.355469 330.078125 326.277344 327.808594 328.140625 C 325.535156 330.003906 323.21875 331.8125 320.859375 333.5625 C 318.5 335.3125 316.097656 337.003906 313.652344 338.636719 C 311.207031 340.269531 308.726562 341.84375 306.207031 343.355469 C 303.683594 344.867188 301.128906 346.3125 298.535156 347.699219 C 295.945312 349.085938 293.320312 350.40625 290.664062 351.660156 C 288.007812 352.917969 285.320312 354.109375 282.605469 355.234375 C 279.890625 356.359375 277.148438 357.417969 274.378906 358.40625 C 271.613281 359.394531 268.824219 360.316406 266.011719 361.171875 C 263.199219 362.023438 260.367188 362.808594 257.515625 363.523438 C 254.664062 364.234375 251.796875 364.878906 248.914062 365.453125 C 246.03125 366.027344 243.136719 366.527344 240.230469 366.960938 C 237.324219 367.390625 234.40625 367.75 231.484375 368.039062 C 228.558594 368.328125 225.628906 368.542969 222.691406 368.6875 C 219.757812 368.832031 216.820312 368.902344 213.878906 368.902344 C 210.941406 368.902344 208.003906 368.832031 205.070312 368.6875 C 202.132812 368.542969 199.203125 368.328125 196.277344 368.039062 C 193.351562 367.75 190.4375 367.390625 187.53125 366.960938 C 184.621094 366.527344 181.726562 366.027344 178.84375 365.453125 C 175.964844 364.878906 173.097656 364.234375 170.246094 363.523438 C 167.394531 362.808594 164.5625 362.023438 161.75 361.171875 C 158.9375 360.316406 156.148438 359.394531 153.378906 358.40625 C 150.613281 357.417969 147.871094 356.359375 145.15625 355.234375 C 142.441406 354.109375 139.753906 352.917969 137.097656 351.660156 C 134.441406 350.40625 131.816406 349.085938 129.226562 347.699219 C 126.632812 346.3125 124.078125 344.863281 121.554688 343.355469 C 119.035156 341.84375 116.554688 340.269531 114.109375 338.636719 C 111.664062 337.003906 109.261719 335.3125 106.902344 333.5625 C 104.542969 331.8125 102.226562 330.003906 99.953125 328.140625 C 97.683594 326.277344 95.457031 324.355469 93.277344 322.382812 C 91.101562 320.410156 88.972656 318.382812 86.894531 316.304688 C 84.816406 314.226562 82.792969 312.097656 80.816406 309.921875 C 78.84375 307.742188 76.925781 305.519531 75.058594 303.246094 C 73.195312 300.976562 71.386719 298.660156 69.636719 296.296875 C 67.886719 293.9375 66.195312 291.535156 64.5625 289.089844 C 62.929688 286.648438 61.355469 284.164062 59.847656 281.644531 C 58.335938 279.125 56.886719 276.566406 55.5 273.976562 C 54.117188 271.382812 52.796875 268.757812 51.539062 266.101562 C 50.28125 263.445312 49.089844 260.757812 47.964844 258.042969 C 46.839844 255.328125 45.785156 252.585938 44.792969 249.820312 C 43.804688 247.050781 42.882812 244.261719 42.03125 241.449219 C 41.175781 238.636719 40.390625 235.804688 39.679688 232.957031 C 38.964844 230.105469 38.320312 227.238281 37.746094 224.355469 C 37.171875 221.472656 36.671875 218.578125 36.238281 215.671875 C 35.808594 212.761719 35.449219 209.847656 35.160156 206.921875 C 34.875 203.996094 34.65625 201.066406 34.511719 198.132812 C 34.367188 195.195312 34.296875 192.257812 34.296875 189.320312 C 34.296875 186.378906 34.367188 183.445312 34.511719 180.507812 C 34.65625 177.574219 34.875 174.640625 35.160156 171.71875 C 35.449219 168.792969 35.808594 165.875 36.238281 162.96875 C 36.671875 160.0625 37.171875 157.167969 37.746094 154.285156 C 38.320312 151.402344 38.964844 148.535156 39.679688 145.683594 C 40.390625 142.832031 41.175781 140 42.03125 137.1875 C 42.882812 134.375 43.804688 131.585938 44.792969 128.820312 C 45.785156 126.050781 46.839844 123.3125 47.964844 120.597656 C 49.089844 117.878906 50.28125 115.195312 51.539062 112.539062 C 52.796875 109.882812 54.117188 107.257812 55.5 104.664062 C 56.886719 102.074219 58.335938 99.515625 59.847656 96.996094 C 61.355469 94.472656 62.929688 91.992188 64.5625 89.546875 C 66.195312 87.105469 67.886719 84.703125 69.636719 82.339844 C 71.386719 79.980469 73.195312 77.664062 75.058594 75.394531 C 76.925781 73.121094 78.84375 70.894531 80.816406 68.71875 C 82.792969 66.539062 84.816406 64.414062 86.894531 62.335938 C 88.972656 60.257812 91.101562 58.230469 93.277344 56.257812 C 95.457031 54.28125 97.683594 52.363281 99.953125 50.5 C 102.226562 48.636719 104.542969 46.828125 106.902344 45.078125 C 109.261719 43.324219 111.664062 41.632812 114.109375 40 C 116.554688 38.367188 119.035156 36.796875 121.554688 35.285156 C 124.078125 33.773438 126.632812 32.328125 129.226562 30.941406 C 131.816406 29.554688 134.441406 28.234375 137.097656 26.976562 C 139.753906 25.722656 142.441406 24.53125 145.15625 23.40625 C 147.871094 22.28125 150.613281 21.222656 153.378906 20.234375 C 156.148438 19.242188 158.9375 18.320312 161.75 17.46875 C 164.5625 16.617188 167.394531 15.832031 170.246094 15.117188 C 173.097656 14.402344 175.964844 13.757812 178.84375 13.1875 C 181.726562 12.613281 184.621094 12.109375 187.53125 11.679688 C 190.4375 11.25 193.351562 10.886719 196.277344 10.601562 C 199.203125 10.3125 202.132812 10.097656 205.070312 9.953125 C 208.003906 9.808594 210.941406 9.734375 213.878906 9.734375 C 216.820312 9.734375 219.757812 9.808594 222.691406 9.953125 C 225.628906 10.097656 228.558594 10.3125 231.484375 10.601562 C 234.40625 10.886719 237.324219 11.25 240.230469 11.679688 C 243.136719 12.109375 246.03125 12.613281 248.914062 13.1875 C 251.796875 13.757812 254.664062 14.402344 257.515625 15.117188 C 260.367188 15.832031 263.199219 16.617188 266.011719 17.46875 C 268.824219 18.320312 271.613281 19.242188 274.378906 20.234375 C 277.148438 21.222656 279.890625 22.28125 282.605469 23.40625 C 285.320312 24.53125 288.007812 25.722656 290.664062 26.976562 C 293.320312 28.234375 295.945312 29.554688 298.535156 30.941406 C 301.128906 32.328125 303.683594 33.773438 306.207031 35.285156 C 308.726562 36.796875 311.207031 38.367188 313.652344 40 C 316.097656 41.632812 318.5 43.324219 320.859375 45.078125 C 323.21875 46.828125 325.535156 48.636719 327.808594 50.5 C 330.078125 52.363281 332.304688 54.28125 334.480469 56.257812 C 336.660156 58.230469 338.789062 60.257812 340.867188 62.335938 C 342.945312 64.414062 344.96875 66.539062 346.945312 68.71875 C 348.917969 70.894531 350.835938 73.121094 352.699219 75.394531 C 354.566406 77.664062 356.375 79.980469 358.125 82.339844 C 359.875 84.703125 361.566406 87.105469 363.199219 89.546875 C 364.832031 91.992188 366.402344 94.472656 367.914062 96.996094 C 369.425781 99.515625 370.875 102.074219 372.257812 104.664062 C 373.644531 107.257812 374.964844 109.882812 376.222656 112.539062 C 377.480469 115.195312 378.671875 117.878906 379.792969 120.597656 C 380.917969 123.3125 381.976562 126.050781 382.96875 128.820312 C 383.957031 131.585938 384.878906 134.375 385.730469 137.1875 C 386.585938 140 387.367188 142.832031 388.082031 145.683594 C 388.796875 148.535156 389.441406 151.402344 390.015625 154.285156 C 390.585938 157.167969 391.089844 160.0625 391.519531 162.96875 C 391.953125 165.875 392.3125 168.792969 392.601562 171.71875 C 392.886719 174.640625 393.105469 177.574219 393.25 180.507812 C 393.394531 183.445312 393.464844 186.378906 393.464844 189.320312 Z M 393.464844 189.320312 " fill-opacity="1" fill-rule="nonzero"/><path fill="#ffffff" d="M 237.308594 278.550781 L 231.9375 299.773438 L 198.285156 300.191406 L 192.628906 278.585938 L 169.648438 268.484375 L 150.40625 279.382812 C 149.320312 279.863281 148.488281 279.414062 147.5 278.96875 C 145.390625 278.007812 125.863281 257.425781 125.542969 255.253906 L 135.675781 236.078125 L 126.375 212.332031 L 104.480469 206.066406 L 104.738281 171.964844 L 125.320312 165.925781 L 135.515625 144.832031 C 137.207031 138.246094 123.273438 127.09375 125.957031 121.179688 C 126.597656 119.742188 146.828125 99.609375 148.363281 99.222656 C 153.1875 97.976562 164.152344 109.355469 168.847656 109.355469 C 170 109.355469 189.304688 101.621094 190.230469 100.949219 C 195.152344 97.5 195.214844 79.695312 198.890625 78.449219 L 231.90625 78.867188 L 238.332031 99.703125 L 260.128906 109.226562 L 279.847656 98.328125 C 283.875 97.691406 301.867188 118.273438 305.765625 122.042969 L 294.421875 141.445312 L 303.976562 165.253906 C 308.546875 169.089844 325.582031 168.960938 326.667969 175 C 327.242188 178.101562 326.988281 203.988281 326.027344 205.554688 L 304.582031 212.683594 L 294.453125 234.960938 L 305.320312 256.148438 L 281.667969 279.351562 L 261.277344 268.101562 Z M 322.640625 174.523438 C 322 173.789062 307.078125 171.519531 304.265625 170.175781 C 298.160156 167.265625 295.988281 148.378906 290.328125 142.5625 C 291.832031 137.289062 301.835938 126.835938 300.523438 122.074219 C 299.535156 118.398438 284.066406 106.703125 281.253906 102.261719 L 260.09375 113.125 L 235.675781 102.386719 L 229.316406 81.421875 C 221.070312 83.628906 210.300781 80.71875 202.628906 82.1875 C 197.292969 83.210938 197.996094 98.746094 194.640625 103.089844 L 168.914062 113.285156 L 149.609375 103.125 L 129.890625 122.523438 C 128.097656 126.101562 140.277344 138.246094 140.402344 143.359375 L 129.027344 168.960938 L 107.835938 175.703125 L 108.507812 203.703125 L 129.21875 210.253906 C 129.601562 217.285156 139.347656 229.492188 139.699219 234.925781 C 140.117188 241.160156 128.929688 252.3125 129.503906 255.414062 L 148.777344 275.132812 L 168.722656 264.332031 L 195.664062 276.285156 L 200.90625 296.355469 C 202.023438 297.058594 224.90625 296.992188 227.367188 296.546875 C 233.410156 295.394531 231.171875 278.617188 235.835938 275.164062 L 262.203125 264.363281 L 280.613281 275.546875 C 284.128906 270.59375 298.097656 260.65625 300.109375 256.246094 C 302.507812 250.972656 290.136719 240.359375 290.617188 235.085938 C 291.097656 229.8125 301.453125 217.1875 301.003906 209.871094 L 322.671875 204.246094 L 322.671875 174.617188 Z M 322.640625 174.523438 " fill-opacity="1" fill-rule="nonzero"/><path fill="#ffffff" d="M 206.882812 121.5 C 292.085938 112.136719 312.125 237.132812 230.339844 255.347656 C 137.398438 276.027344 115.316406 131.566406 206.882812 121.5 Z M 205.570312 125.367188 C 125.09375 135.691406 138.964844 261.710938 221.964844 253.433594 C 305.832031 245.089844 293.367188 114.085938 205.570312 125.367188 Z M 205.570312 125.367188 " fill-opacity="1" fill-rule="nonzero"/><path fill="#ffffff" d="M 198.058594 173.085938 L 199.371094 178.230469 L 174.730469 190.628906 L 199.179688 203.191406 L 199.371094 209.453125 C 194.671875 207.21875 169.105469 196.445312 167.539062 193.890625 C 166.164062 191.652344 166.484375 188.617188 168.210938 186.699219 C 169.296875 185.484375 196.75 172.09375 198.058594 173.085938 Z M 198.058594 173.085938 " fill-opacity="1" fill-rule="nonzero"/><path fill="#ffffff" d="M 262.84375 195.007812 L 231.875 209.453125 L 232.066406 203.191406 L 256.515625 190.628906 L 232.097656 178.070312 L 231.875 173.085938 C 232.992188 171.871094 260.671875 185.453125 261.757812 186.699219 C 263.707031 188.90625 263.324219 192.261719 262.84375 194.976562 Z M 262.84375 195.007812 " fill-opacity="1" fill-rule="nonzero"/><path fill="#ffffff" d="M 226.632812 161.417969 L 209.535156 217.667969 L 207.679688 219.714844 L 203.269531 218.53125 L 221.328125 162.1875 Z M 226.632812 161.417969 " fill-opacity="1" fill-rule="nonzero"/></svg>