<svg xmlns="http://www.w3.org/2000/svg" xmlns:xlink="http://www.w3.org/1999/xlink" width="603" zoomAndPan="magnify" viewBox="0 0 452.25 425.249996" height="567" preserveAspectRatio="xMidYMid meet" version="1.0"><defs><clipPath id="3d769d0612"><path d="M 15 1 L 436.640625 1 L 436.640625 423 L 15 423 Z M 15 1 " clip-rule="nonzero"/></clipPath></defs><g clip-path="url(#3d769d0612)"><path fill="#e63031" d="M 436.554688 211.78125 C 436.554688 215.222656 436.472656 218.664062 436.304688 222.101562 C 436.132812 225.539062 435.882812 228.972656 435.542969 232.398438 C 435.207031 235.824219 434.785156 239.238281 434.28125 242.644531 C 433.773438 246.050781 433.1875 249.441406 432.515625 252.816406 C 431.84375 256.195312 431.089844 259.550781 430.253906 262.890625 C 429.417969 266.230469 428.5 269.546875 427.5 272.839844 C 426.5 276.132812 425.421875 279.402344 424.261719 282.644531 C 423.101562 285.882812 421.863281 289.09375 420.546875 292.277344 C 419.226562 295.457031 417.832031 298.601562 416.363281 301.714844 C 414.890625 304.824219 413.34375 307.898438 411.71875 310.9375 C 410.097656 313.972656 408.402344 316.964844 406.632812 319.917969 C 404.859375 322.871094 403.019531 325.777344 401.109375 328.640625 C 399.195312 331.503906 397.214844 334.316406 395.164062 337.082031 C 393.113281 339.847656 390.996094 342.558594 388.8125 345.222656 C 386.628906 347.882812 384.378906 350.488281 382.066406 353.039062 C 379.757812 355.589844 377.382812 358.082031 374.949219 360.515625 C 372.515625 362.949219 370.023438 365.324219 367.472656 367.632812 C 364.921875 369.945312 362.316406 372.195312 359.652344 374.378906 C 356.992188 376.5625 354.28125 378.679688 351.515625 380.730469 C 348.75 382.78125 345.9375 384.761719 343.074219 386.675781 C 340.210938 388.585938 337.304688 390.429688 334.351562 392.199219 C 331.398438 393.96875 328.40625 395.664062 325.371094 397.285156 C 322.332031 398.910156 319.257812 400.457031 316.148438 401.929688 C 313.035156 403.398438 309.890625 404.792969 306.710938 406.113281 C 303.527344 407.429688 300.316406 408.667969 297.078125 409.828125 C 293.835938 410.988281 290.566406 412.066406 287.273438 413.066406 C 283.980469 414.066406 280.664062 414.984375 277.324219 415.820312 C 273.984375 416.65625 270.625 417.410156 267.25 418.082031 C 263.875 418.753906 260.484375 419.339844 257.078125 419.847656 C 253.671875 420.351562 250.257812 420.773438 246.832031 421.109375 C 243.40625 421.449219 239.972656 421.699219 236.535156 421.871094 C 233.097656 422.039062 229.65625 422.125 226.214844 422.125 C 222.773438 422.125 219.332031 422.039062 215.894531 421.871094 C 212.457031 421.699219 209.023438 421.449219 205.597656 421.109375 C 202.171875 420.773438 198.757812 420.351562 195.351562 419.847656 C 191.945312 419.339844 188.554688 418.753906 185.179688 418.082031 C 181.804688 417.410156 178.445312 416.65625 175.105469 415.820312 C 171.765625 414.984375 168.449219 414.066406 165.15625 413.066406 C 161.863281 412.066406 158.59375 410.988281 155.351562 409.828125 C 152.113281 408.667969 148.902344 407.429688 145.722656 406.113281 C 142.539062 404.792969 139.394531 403.398438 136.28125 401.929688 C 133.171875 400.457031 130.097656 398.910156 127.0625 397.285156 C 124.023438 395.664062 121.03125 393.96875 118.078125 392.199219 C 115.125 390.429688 112.21875 388.585938 109.355469 386.675781 C 106.492188 384.761719 103.679688 382.78125 100.914062 380.730469 C 98.148438 378.679688 95.4375 376.5625 92.777344 374.378906 C 90.113281 372.195312 87.507812 369.945312 84.957031 367.632812 C 82.40625 365.324219 79.914062 362.949219 77.480469 360.515625 C 75.046875 358.082031 72.675781 355.589844 70.363281 353.039062 C 68.050781 350.488281 65.800781 347.882812 63.617188 345.222656 C 61.433594 342.558594 59.316406 339.847656 57.265625 337.082031 C 55.214844 334.316406 53.234375 331.503906 51.324219 328.640625 C 49.410156 325.777344 47.570312 322.871094 45.800781 319.917969 C 44.03125 316.964844 42.332031 313.972656 40.710938 310.9375 C 39.085938 307.898438 37.539062 304.824219 36.070312 301.714844 C 34.597656 298.601562 33.203125 295.457031 31.886719 292.277344 C 30.566406 289.09375 29.328125 285.882812 28.167969 282.644531 C 27.007812 279.402344 25.929688 276.132812 24.929688 272.839844 C 23.929688 269.546875 23.011719 266.230469 22.175781 262.890625 C 21.339844 259.550781 20.585938 256.195312 19.914062 252.816406 C 19.242188 249.441406 18.65625 246.050781 18.148438 242.644531 C 17.644531 239.238281 17.222656 235.824219 16.886719 232.398438 C 16.550781 228.972656 16.296875 225.539062 16.125 222.101562 C 15.957031 218.664062 15.875 215.222656 15.875 211.78125 C 15.875 208.339844 15.957031 204.898438 16.125 201.460938 C 16.296875 198.023438 16.550781 194.589844 16.886719 191.164062 C 17.222656 187.738281 17.644531 184.324219 18.148438 180.917969 C 18.65625 177.511719 19.242188 174.121094 19.914062 170.746094 C 20.585938 167.371094 21.339844 164.011719 22.175781 160.671875 C 23.011719 157.332031 23.929688 154.015625 24.929688 150.722656 C 25.929688 147.429688 27.007812 144.160156 28.167969 140.917969 C 29.328125 137.679688 30.566406 134.46875 31.886719 131.289062 C 33.203125 128.105469 34.597656 124.960938 36.070312 121.847656 C 37.539062 118.738281 39.085938 115.664062 40.710938 112.628906 C 42.332031 109.589844 44.03125 106.597656 45.800781 103.644531 C 47.570312 100.691406 49.410156 97.785156 51.324219 94.921875 C 53.234375 92.058594 55.214844 89.246094 57.265625 86.480469 C 59.316406 83.714844 61.433594 81.003906 63.617188 78.34375 C 65.800781 75.679688 68.050781 73.074219 70.363281 70.523438 C 72.675781 67.972656 75.046875 65.480469 77.480469 63.046875 C 79.914062 60.613281 82.40625 58.242188 84.957031 55.929688 C 87.507812 53.617188 90.113281 51.371094 92.777344 49.183594 C 95.4375 47 98.148438 44.882812 100.914062 42.832031 C 103.679688 40.78125 106.492188 38.800781 109.355469 36.890625 C 112.21875 34.976562 115.125 33.136719 118.078125 31.367188 C 121.03125 29.597656 124.023438 27.898438 127.0625 26.277344 C 130.097656 24.652344 133.171875 23.105469 136.28125 21.636719 C 139.394531 20.164062 142.539062 18.769531 145.722656 17.453125 C 148.902344 16.132812 152.113281 14.894531 155.351562 13.734375 C 158.59375 12.574219 161.863281 11.496094 165.15625 10.496094 C 168.449219 9.496094 171.765625 8.582031 175.105469 7.742188 C 178.445312 6.90625 181.804688 6.152344 185.179688 5.480469 C 188.554688 4.808594 191.945312 4.222656 195.351562 3.714844 C 198.757812 3.210938 202.171875 2.789062 205.597656 2.453125 C 209.023438 2.117188 212.457031 1.863281 215.894531 1.695312 C 219.332031 1.523438 222.773438 1.441406 226.214844 1.441406 C 229.65625 1.441406 233.097656 1.523438 236.535156 1.695312 C 239.972656 1.863281 243.40625 2.117188 246.832031 2.453125 C 250.257812 2.789062 253.671875 3.210938 257.078125 3.714844 C 260.484375 4.222656 263.875 4.808594 267.25 5.480469 C 270.625 6.152344 273.984375 6.90625 277.324219 7.742188 C 280.664062 8.582031 283.980469 9.496094 287.273438 10.496094 C 290.566406 11.496094 293.835938 12.574219 297.078125 13.734375 C 300.316406 14.894531 303.527344 16.132812 306.710938 17.453125 C 309.890625 18.769531 313.035156 20.164062 316.148438 21.636719 C 319.257812 23.105469 322.332031 24.652344 325.371094 26.277344 C 328.40625 27.898438 331.398438 29.597656 334.351562 31.367188 C 337.304688 33.136719 340.210938 34.976562 343.074219 36.890625 C 345.9375 38.800781 348.75 40.78125 351.515625 42.832031 C 354.28125 44.882812 356.992188 47 359.652344 49.183594 C 362.316406 51.371094 364.921875 53.617188 367.472656 55.929688 C 370.023438 58.242188 372.515625 60.613281 374.949219 63.046875 C 377.382812 65.480469 379.757812 67.972656 382.066406 70.523438 C 384.378906 73.074219 386.628906 75.679688 388.8125 78.34375 C 390.996094 81.003906 393.113281 83.714844 395.164062 86.480469 C 397.214844 89.246094 399.195312 92.058594 401.109375 94.921875 C 403.019531 97.785156 404.859375 100.691406 406.632812 103.644531 C 408.402344 106.597656 410.097656 109.589844 411.71875 112.628906 C 413.34375 115.664062 414.890625 118.738281 416.363281 121.847656 C 417.832031 124.960938 419.226562 128.105469 420.546875 131.289062 C 421.863281 134.46875 423.101562 137.679688 424.261719 140.917969 C 425.421875 144.160156 426.5 147.429688 427.5 150.722656 C 428.5 154.015625 429.417969 157.332031 430.253906 160.671875 C 431.089844 164.011719 431.84375 167.371094 432.515625 170.746094 C 433.1875 174.121094 433.773438 177.511719 434.28125 180.917969 C 434.785156 184.324219 435.207031 187.738281 435.542969 191.164062 C 435.882812 194.589844 436.132812 198.023438 436.304688 201.460938 C 436.472656 204.898438 436.554688 208.339844 436.554688 211.78125 Z M 436.554688 211.78125 " fill-opacity="1" fill-rule="nonzero"/></g><path fill="#ffffff" d="M 378.832031 157.875 C 364.457031 166.671875 365.394531 144.925781 362.289062 135.191406 C 353.941406 108.988281 332.339844 89 306.472656 80.386719 C 300.109375 78.292969 283.113281 77.394531 282.253906 70.730469 C 280.230469 55.382812 316.207031 69.234375 322.945312 72.300781 C 347.390625 83.34375 367.679688 106.554688 375.539062 132.195312 C 377 136.949219 381.828125 154.730469 378.832031 157.839844 Z M 378.832031 157.875 " fill-opacity="1" fill-rule="nonzero"/><path fill="#ffffff" d="M 343.796875 159.261719 C 339.902344 138.148438 330.769531 119.617188 311.339844 109.210938 C 304.863281 105.730469 283.675781 101.390625 283.339844 95.8125 L 286.148438 89.371094 C 313.210938 87.613281 340.988281 110 351.019531 134.441406 C 354.875 143.839844 361.988281 166.523438 343.796875 159.261719 Z M 343.796875 159.261719 " fill-opacity="1" fill-rule="nonzero"/><path fill="#ffffff" d="M 320.4375 160.199219 C 318.527344 158.363281 316.28125 144.175781 309.769531 136.875 C 301.683594 127.816406 293.707031 127.78125 284.984375 121.378906 C 282.367188 102.101562 309.617188 118.832031 316.320312 124.933594 C 321.859375 129.988281 340.089844 157.613281 328.410156 161.695312 C 326.164062 162.21875 322.007812 161.769531 320.398438 160.234375 Z M 320.4375 160.199219 " fill-opacity="1" fill-rule="nonzero"/><path fill="#ffffff" d="M 333.238281 231.320312 C 333.238281 297.132812 279.707031 350.699219 213.863281 350.699219 C 148.015625 350.699219 94.484375 297.167969 94.484375 231.320312 C 94.484375 165.476562 148.015625 111.945312 213.863281 111.945312 C 279.671875 111.945312 333.238281 165.476562 333.238281 231.320312 Z M 315.871094 231.320312 C 315.871094 175.058594 270.125 129.316406 213.863281 129.316406 C 157.597656 129.316406 111.855469 175.097656 111.855469 231.320312 C 111.855469 287.546875 157.636719 333.328125 213.863281 333.328125 C 270.085938 333.328125 315.871094 287.546875 315.871094 231.320312 Z M 315.871094 231.320312 " fill-opacity="1" fill-rule="nonzero"/><path fill="#ffffff" d="M 220.601562 246.894531 L 220.601562 281.78125 C 222.695312 281.296875 224.457031 280.585938 225.914062 279.722656 C 227.863281 278.5625 229.359375 277.253906 230.40625 275.792969 C 231.457031 274.332031 232.167969 272.875 232.578125 271.488281 C 232.953125 270.027344 233.179688 268.832031 233.179688 267.96875 C 233.328125 261.492188 232.167969 256.550781 229.660156 253.257812 C 227.601562 250.527344 224.605469 248.390625 220.636719 246.894531 Z M 220.601562 246.894531 " fill-opacity="1" fill-rule="nonzero"/><path fill="#ffffff" d="M 213.863281 146.308594 C 166.996094 146.308594 128.847656 184.453125 128.847656 231.320312 C 128.847656 278.1875 166.996094 316.335938 213.863281 316.335938 C 260.730469 316.335938 298.875 278.1875 298.875 231.320312 C 298.875 184.453125 260.730469 146.308594 213.863281 146.308594 Z M 245.492188 268.15625 C 245.082031 274.371094 242.648438 280.171875 238.230469 285.5625 C 236.058594 288.109375 233.289062 290.207031 229.957031 291.742188 C 227.1875 293.011719 224.082031 293.949219 220.601562 294.472656 L 220.601562 303.269531 C 220.601562 306.300781 219.289062 308.023438 218.203125 308.886719 C 216.78125 310.007812 215.210938 310.605469 213.523438 310.605469 C 211.765625 310.605469 210.191406 310.007812 208.808594 308.847656 C 207.347656 307.574219 206.597656 305.703125 206.597656 303.308594 L 206.597656 294.734375 C 202.667969 294.359375 198.925781 293.613281 195.480469 292.453125 C 191.4375 291.105469 187.769531 289.234375 184.625 286.875 C 181.445312 284.515625 178.785156 281.558594 176.691406 278.152344 C 174.667969 274.894531 173.285156 271.039062 172.609375 266.734375 C 171.972656 264.527344 172.199219 262.691406 173.320312 261.269531 C 174.105469 260.257812 175.679688 259.097656 178.636719 259.472656 C 180.207031 259.585938 181.59375 259.960938 182.679688 260.671875 C 183.613281 261.269531 184.738281 262.46875 184.925781 264.898438 C 185.9375 269.207031 188.40625 273.25 192.261719 276.65625 C 195.667969 279.6875 200.496094 281.558594 206.636719 282.308594 L 206.636719 244.386719 C 197.953125 243.152344 190.953125 240.117188 185.824219 235.253906 C 180.320312 230.050781 177.0625 223.050781 176.128906 214.476562 C 175.714844 210.023438 176.316406 205.792969 177.851562 201.824219 C 179.386719 197.855469 181.667969 194.335938 184.589844 191.378906 C 187.507812 188.421875 191.027344 185.914062 195.105469 183.96875 C 198.664062 182.246094 202.519531 181.085938 206.636719 180.410156 L 206.636719 172.402344 C 206.636719 169.96875 207.386719 168.132812 208.84375 166.859375 C 211.464844 164.578125 215.246094 164.425781 218.203125 166.824219 C 219.289062 167.683594 220.601562 169.332031 220.601562 172.402344 L 220.601562 181.160156 C 227.300781 182.621094 232.839844 185.800781 237.144531 190.707031 C 241.824219 196.058594 244.296875 203.246094 244.484375 212.042969 C 243.472656 217.769531 240.179688 218.667969 238.304688 218.746094 C 238.195312 218.746094 238.082031 218.746094 238.007812 218.746094 C 234.636719 218.746094 232.464844 216.574219 232.09375 212.828125 C 231.941406 210.921875 231.566406 208.898438 230.96875 206.804688 C 230.40625 204.820312 229.546875 202.871094 228.347656 201.074219 C 227.1875 199.277344 225.726562 197.632812 224.007812 196.246094 C 222.996094 195.421875 221.871094 194.75 220.601562 194.1875 L 220.601562 233.644531 C 225.765625 234.914062 230.03125 236.75 233.289062 239.144531 C 236.882812 241.730469 239.691406 244.722656 241.5625 247.980469 C 243.433594 251.238281 244.59375 254.71875 245.042969 258.3125 C 245.457031 261.644531 245.605469 264.976562 245.492188 268.15625 Z M 245.492188 268.15625 " fill-opacity="1" fill-rule="nonzero"/><path fill="#ffffff" d="M 194.171875 199.203125 C 192.449219 201.148438 191.140625 203.433594 190.242188 205.90625 C 189.378906 208.335938 189.003906 210.996094 189.15625 213.839844 C 189.304688 215.523438 189.679688 217.285156 190.316406 219.117188 C 190.914062 220.839844 191.886719 222.523438 193.308594 224.097656 C 194.734375 225.707031 196.679688 227.203125 199.1875 228.550781 C 201.171875 229.636719 203.679688 230.5 206.636719 231.210938 L 206.636719 192.878906 C 204.316406 193.25 202.21875 193.851562 200.386719 194.710938 C 198.027344 195.835938 195.929688 197.332031 194.171875 199.167969 Z M 194.171875 199.203125 " fill-opacity="1" fill-rule="nonzero"/></svg>