<svg xmlns="http://www.w3.org/2000/svg" xmlns:xlink="http://www.w3.org/1999/xlink" width="577" zoomAndPan="magnify" viewBox="0 0 432.75 425.249996" height="567" preserveAspectRatio="xMidYMid meet" version="1.0"><defs><clipPath id="2274c725fa"><path d="M 5 3 L 427 3 L 427 423.753906 L 5 423.753906 Z M 5 3 " clip-rule="nonzero"/></clipPath></defs><g clip-path="url(#2274c725fa)"><path fill="#e63031" d="M 426.402344 213.984375 C 426.402344 217.425781 426.320312 220.867188 426.148438 224.304688 C 425.980469 227.742188 425.726562 231.175781 425.390625 234.601562 C 425.054688 238.027344 424.632812 241.441406 424.128906 244.847656 C 423.621094 248.253906 423.035156 251.644531 422.363281 255.019531 C 421.691406 258.394531 420.9375 261.753906 420.101562 265.09375 C 419.261719 268.433594 418.347656 271.75 417.347656 275.042969 C 416.347656 278.335938 415.269531 281.605469 414.109375 284.847656 C 412.949219 288.085938 411.710938 291.296875 410.390625 294.480469 C 409.074219 297.660156 407.679688 300.804688 406.207031 303.917969 C 404.738281 307.027344 403.191406 310.101562 401.566406 313.140625 C 399.945312 316.175781 398.246094 319.167969 396.476562 322.121094 C 394.707031 325.074219 392.867188 327.980469 390.953125 330.84375 C 389.042969 333.707031 387.0625 336.519531 385.011719 339.285156 C 382.960938 342.050781 380.84375 344.761719 378.660156 347.421875 C 376.472656 350.085938 374.226562 352.691406 371.914062 355.242188 C 369.601562 357.792969 367.230469 360.285156 364.796875 362.71875 C 362.363281 365.152344 359.871094 367.527344 357.320312 369.835938 C 354.769531 372.148438 352.164062 374.398438 349.5 376.582031 C 346.839844 378.765625 344.128906 380.882812 341.363281 382.933594 C 338.597656 384.984375 335.785156 386.964844 332.921875 388.878906 C 330.058594 390.789062 327.152344 392.628906 324.199219 394.402344 C 321.246094 396.171875 318.253906 397.867188 315.214844 399.488281 C 312.179688 401.113281 309.105469 402.660156 305.996094 404.132812 C 302.882812 405.601562 299.738281 406.996094 296.554688 408.316406 C 293.375 409.632812 290.164062 410.871094 286.925781 412.03125 C 283.683594 413.191406 280.414062 414.269531 277.121094 415.269531 C 273.828125 416.269531 270.511719 417.1875 267.171875 418.023438 C 263.832031 418.859375 260.472656 419.613281 257.097656 420.285156 C 253.722656 420.957031 250.332031 421.542969 246.925781 422.050781 C 243.519531 422.554688 240.105469 422.976562 236.679688 423.3125 C 233.253906 423.652344 229.820312 423.902344 226.382812 424.074219 C 222.945312 424.242188 219.503906 424.324219 216.0625 424.324219 C 212.621094 424.324219 209.179688 424.242188 205.742188 424.074219 C 202.304688 423.902344 198.871094 423.652344 195.445312 423.3125 C 192.019531 422.976562 188.605469 422.554688 185.199219 422.050781 C 181.792969 421.542969 178.402344 420.957031 175.027344 420.285156 C 171.648438 419.613281 168.292969 418.859375 164.953125 418.023438 C 161.613281 417.1875 158.296875 416.269531 155.003906 415.269531 C 151.710938 414.269531 148.441406 413.191406 145.199219 412.03125 C 141.960938 410.871094 138.75 409.632812 135.566406 408.316406 C 132.386719 406.996094 129.242188 405.601562 126.128906 404.132812 C 123.019531 402.660156 119.945312 401.113281 116.90625 399.488281 C 113.871094 397.867188 110.878906 396.171875 107.925781 394.402344 C 104.972656 392.628906 102.066406 390.789062 99.203125 388.878906 C 96.339844 386.964844 93.527344 384.984375 90.761719 382.933594 C 87.996094 380.882812 85.285156 378.765625 82.621094 376.582031 C 79.960938 374.398438 77.355469 372.148438 74.804688 369.835938 C 72.253906 367.527344 69.761719 365.152344 67.328125 362.71875 C 64.894531 360.285156 62.519531 357.792969 60.210938 355.242188 C 57.898438 352.691406 55.648438 350.085938 53.464844 347.425781 C 51.28125 344.761719 49.164062 342.050781 47.113281 339.285156 C 45.0625 336.519531 43.082031 333.707031 41.167969 330.84375 C 39.257812 327.980469 37.414062 325.074219 35.644531 322.121094 C 33.875 319.167969 32.179688 316.175781 30.558594 313.140625 C 28.933594 310.101562 27.386719 307.027344 25.914062 303.917969 C 24.445312 300.804688 23.050781 297.660156 21.730469 294.480469 C 20.414062 291.296875 19.175781 288.085938 18.015625 284.847656 C 16.855469 281.605469 15.777344 278.335938 14.777344 275.042969 C 13.777344 271.75 12.859375 268.433594 12.023438 265.09375 C 11.1875 261.753906 10.433594 258.394531 9.761719 255.019531 C 9.089844 251.644531 8.503906 248.253906 7.996094 244.847656 C 7.492188 241.441406 7.070312 238.027344 6.734375 234.601562 C 6.394531 231.175781 6.144531 227.742188 5.972656 224.304688 C 5.804688 220.867188 5.71875 217.425781 5.71875 213.984375 C 5.71875 210.542969 5.804688 207.101562 5.972656 203.664062 C 6.144531 200.226562 6.394531 196.792969 6.734375 193.367188 C 7.070312 189.941406 7.492188 186.527344 7.996094 183.121094 C 8.503906 179.714844 9.089844 176.324219 9.761719 172.949219 C 10.433594 169.574219 11.1875 166.214844 12.023438 162.875 C 12.859375 159.535156 13.777344 156.21875 14.777344 152.925781 C 15.777344 149.632812 16.855469 146.363281 18.015625 143.121094 C 19.175781 139.882812 20.414062 136.671875 21.730469 133.492188 C 23.050781 130.308594 24.445312 127.164062 25.914062 124.050781 C 27.386719 120.941406 28.933594 117.867188 30.558594 114.832031 C 32.179688 111.792969 33.875 108.800781 35.644531 105.847656 C 37.414062 102.894531 39.257812 99.988281 41.167969 97.125 C 43.082031 94.261719 45.0625 91.449219 47.113281 88.683594 C 49.164062 85.917969 51.28125 83.207031 53.464844 80.546875 C 55.648438 77.882812 57.898438 75.277344 60.210938 72.726562 C 62.519531 70.175781 64.894531 67.683594 67.328125 65.25 C 69.761719 62.816406 72.253906 60.445312 74.804688 58.132812 C 77.355469 55.820312 79.960938 53.570312 82.621094 51.386719 C 85.285156 49.203125 87.996094 47.085938 90.761719 45.035156 C 93.527344 42.984375 96.339844 41.003906 99.203125 39.09375 C 102.066406 37.179688 104.972656 35.339844 107.925781 33.570312 C 110.878906 31.800781 113.871094 30.101562 116.90625 28.480469 C 119.945312 26.855469 123.019531 25.308594 126.128906 23.839844 C 129.242188 22.367188 132.386719 20.972656 135.566406 19.65625 C 138.75 18.335938 141.960938 17.097656 145.199219 15.9375 C 148.441406 14.777344 151.710938 13.699219 155.003906 12.699219 C 158.296875 11.699219 161.613281 10.78125 164.953125 9.945312 C 168.292969 9.109375 171.648438 8.355469 175.027344 7.683594 C 178.402344 7.011719 181.792969 6.425781 185.199219 5.917969 C 188.605469 5.414062 192.019531 4.992188 195.445312 4.65625 C 198.871094 4.320312 202.304688 4.066406 205.742188 3.894531 C 209.179688 3.726562 212.621094 3.644531 216.0625 3.644531 C 219.503906 3.644531 222.945312 3.726562 226.382812 3.894531 C 229.820312 4.066406 233.253906 4.320312 236.679688 4.65625 C 240.105469 4.992188 243.519531 5.414062 246.925781 5.917969 C 250.332031 6.425781 253.722656 7.011719 257.097656 7.683594 C 260.472656 8.355469 263.832031 9.109375 267.171875 9.945312 C 270.511719 10.78125 273.828125 11.699219 277.121094 12.699219 C 280.414062 13.699219 283.683594 14.777344 286.925781 15.9375 C 290.164062 17.097656 293.375 18.335938 296.554688 19.65625 C 299.738281 20.972656 302.882812 22.367188 305.996094 23.839844 C 309.105469 25.308594 312.179688 26.855469 315.214844 28.480469 C 318.253906 30.101562 321.246094 31.800781 324.199219 33.570312 C 327.152344 35.339844 330.058594 37.179688 332.921875 39.09375 C 335.785156 41.003906 338.597656 42.984375 341.363281 45.035156 C 344.128906 47.085938 346.839844 49.203125 349.5 51.386719 C 352.164062 53.570312 354.769531 55.820312 357.320312 58.132812 C 359.871094 60.445312 362.363281 62.816406 364.796875 65.25 C 367.230469 67.683594 369.601562 70.175781 371.914062 72.726562 C 374.226562 75.277344 376.472656 77.882812 378.660156 80.546875 C 380.84375 83.207031 382.960938 85.917969 385.011719 88.683594 C 387.0625 91.449219 389.042969 94.261719 390.953125 97.125 C 392.867188 99.988281 394.707031 102.894531 396.476562 105.847656 C 398.246094 108.800781 399.945312 111.792969 401.566406 114.832031 C 403.191406 117.867188 404.738281 120.941406 406.207031 124.050781 C 407.679688 127.164062 409.074219 130.308594 410.390625 133.492188 C 411.710938 136.671875 412.949219 139.882812 414.109375 143.121094 C 415.269531 146.363281 416.347656 149.632812 417.347656 152.925781 C 418.347656 156.21875 419.261719 159.535156 420.101562 162.875 C 420.9375 166.214844 421.691406 169.574219 422.363281 172.949219 C 423.035156 176.324219 423.621094 179.714844 424.128906 183.121094 C 424.632812 186.527344 425.054688 189.941406 425.390625 193.367188 C 425.726562 196.792969 425.980469 200.226562 426.148438 203.664062 C 426.320312 207.101562 426.402344 210.542969 426.402344 213.984375 Z M 426.402344 213.984375 " fill-opacity="1" fill-rule="nonzero"/></g><path fill="#ffffff" d="M 320.089844 234.386719 L 316.234375 234.386719 L 316.234375 132.863281 L 280.898438 132.863281 C 278.914062 132.863281 275.09375 126.988281 275.09375 125.789062 L 275.09375 91.726562 L 140.144531 91.726562 C 140.96875 95.691406 143.476562 96.667969 144.039062 101.347656 C 145.574219 114.296875 143.628906 131.480469 143.964844 145.144531 C 144.789062 178.910156 144.300781 211.738281 143.964844 245.28125 C 143.703125 272.082031 144.265625 298.886719 144 325.648438 L 244.25 325.648438 L 244.25 329.503906 L 143.367188 329.503906 L 141.417969 327.558594 L 141.417969 127.699219 L 111.847656 127.699219 L 111.847656 100.074219 C 111.847656 96.964844 121.054688 88.28125 125.320312 89.105469 L 277.003906 89.179688 L 320.089844 130.917969 Z M 141.417969 123.84375 L 141.417969 103.929688 C 141.417969 98.5 134.007812 91.5 128.015625 91.800781 C 122.703125 92.0625 114.429688 98.6875 114.429688 103.929688 L 114.429688 123.84375 Z M 141.417969 123.84375 " fill-opacity="1" fill-rule="nonzero"/><path fill="#ffffff" d="M 324.882812 254 C 329.414062 258.382812 326.453125 264.40625 327.167969 267.964844 C 327.878906 271.519531 332.855469 272.941406 331.433594 279.71875 C 330.835938 282.5625 327.726562 284.699219 327.015625 287.054688 C 325.96875 290.648438 328.550781 294.242188 325.070312 299.148438 C 323.199219 301.804688 320.167969 301.84375 318.105469 303.75 C 315.410156 306.222656 315.226562 310.5625 311.59375 312.660156 C 307.550781 314.945312 304.257812 313.410156 300.476562 314.382812 C 298.417969 314.90625 295.945312 317.601562 292.839844 318.386719 C 285.351562 320.257812 284.339844 315.503906 279.363281 314.34375 C 275.542969 313.484375 272.214844 314.90625 268.207031 312.660156 C 264.539062 310.601562 264.390625 306.257812 261.695312 303.75 C 259.710938 301.917969 256.304688 301.65625 254.695312 299.183594 C 252.410156 295.589844 253.871094 291.621094 253.007812 287.992188 C 251.738281 282.636719 247.355469 281.554688 249.714844 272.605469 C 251.289062 266.691406 251.324219 267.890625 252.222656 261.078125 C 253.382812 252.054688 258.0625 253.8125 262.292969 249.171875 C 264.539062 246.703125 264.6875 242.957031 268.207031 240.9375 C 272.585938 238.429688 276.480469 240.300781 280.597656 239.214844 C 284.714844 238.128906 286.027344 234.125 293.738281 235.660156 C 296.507812 236.21875 297.332031 238.691406 299.164062 239.253906 C 303.132812 240.449219 307.175781 238.355469 311.632812 240.9375 C 315.636719 243.257812 314.699219 247.113281 316.945312 249.773438 C 319.003906 252.167969 323.199219 252.355469 324.921875 254 Z M 283.742188 248.835938 C 265.101562 252.015625 254.917969 276.386719 265.511719 292.148438 C 274.535156 305.511719 292.351562 309.929688 305.828125 300.496094 C 329.972656 283.574219 315.75 243.371094 283.707031 248.835938 Z M 283.742188 248.835938 " fill-opacity="1" fill-rule="nonzero"/><path fill="#ffffff" d="M 286.664062 324.339844 L 273.148438 359.003906 L 264.015625 345.039062 L 248.105469 348.746094 L 262.890625 314.082031 C 269.554688 319.0625 278.277344 323.480469 286.664062 324.339844 Z M 286.664062 324.339844 " fill-opacity="1" fill-rule="nonzero"/><path fill="#ffffff" d="M 332.929688 348.746094 L 316.984375 345.117188 L 307.886719 359.042969 L 294.410156 324.378906 C 301.9375 322.09375 311.183594 319.4375 316.910156 314.082031 L 332.96875 348.746094 Z M 332.929688 348.746094 " fill-opacity="1" fill-rule="nonzero"/><path fill="#ffffff" d="M 294.375 203.539062 L 292.242188 207.171875 C 250.875 207.546875 209.363281 207.546875 167.996094 207.171875 L 165.863281 203.539062 Z M 294.375 203.539062 " fill-opacity="1" fill-rule="nonzero"/><path fill="#ffffff" d="M 294.375 186.808594 L 165.863281 186.808594 L 167.996094 183.175781 C 209.363281 182.800781 250.875 182.800781 292.242188 183.175781 Z M 294.375 186.808594 " fill-opacity="1" fill-rule="nonzero"/><path fill="#ffffff" d="M 172.265625 143.121094 L 172.453125 138.179688 C 177.46875 135.035156 182.035156 137.917969 186.976562 138.03125 C 212.429688 138.628906 238.035156 137.46875 263.492188 137.992188 L 263.492188 143.121094 L 172.226562 143.121094 Z M 172.265625 143.121094 " fill-opacity="1" fill-rule="nonzero"/><path fill="#ffffff" d="M 165.863281 166.257812 C 167.433594 158.542969 182.335938 163.5625 188.285156 163.75 C 222.949219 164.722656 257.800781 162.925781 292.464844 163.710938 L 294.375 166.292969 L 165.863281 166.292969 Z M 165.863281 166.257812 " fill-opacity="1" fill-rule="nonzero"/><path fill="#ffffff" d="M 165.863281 247.226562 L 167.773438 243.371094 L 247.46875 243.371094 L 249.378906 245.316406 L 247.46875 247.226562 Z M 165.863281 247.226562 " fill-opacity="1" fill-rule="nonzero"/><path fill="#ffffff" d="M 165.863281 224.089844 L 266.113281 224.089844 L 266.113281 226.675781 L 165.863281 226.675781 Z M 165.863281 224.089844 " fill-opacity="1" fill-rule="nonzero"/><path fill="#ffffff" d="M 285.054688 253.964844 C 316.910156 248.535156 321.550781 294.28125 296.019531 299.632812 C 262.816406 306.558594 256.492188 258.832031 285.054688 253.964844 Z M 285.054688 253.964844 " fill-opacity="1" fill-rule="nonzero"/></svg>