<svg xmlns="http://www.w3.org/2000/svg" xmlns:xlink="http://www.w3.org/1999/xlink" id="_ÎÓÈ_1" data-name="—ÎÓÈ_1" viewBox="0 0 729 750">
  <defs>
    <style>
      .cls-1, .cls-2, .cls-3, .cls-4, .cls-5, .cls-6, .cls-7, .cls-8, .cls-9 {
        fill: none;
      }

      .cls-10, .cls-11 {
        fill: #b41a1d;
      }

      .cls-12 {
        fill: #f4f4f4;
      }

      .cls-2 {
        stroke-width: .25px;
      }

      .cls-2, .cls-3, .cls-13, .cls-4, .cls-5, .cls-6, .cls-11, .cls-7, .cls-8, .cls-9 {
        stroke-miterlimit: 10;
      }

      .cls-2, .cls-3, .cls-4, .cls-5, .cls-6, .cls-7, .cls-8, .cls-9 {
        stroke: #ff8080;
      }

      .cls-3 {
        stroke-width: .35px;
      }

      .cls-13 {
        fill: #ccc;
        stroke: #6b6b6b;
        stroke-width: .14px;
      }

      .cls-4, .cls-11 {
        stroke-width: .15px;
      }

      .cls-5 {
        stroke-width: .2px;
      }

      .cls-6 {
        stroke-width: .3px;
      }

      .cls-14 {
        opacity: .67;
      }

      .cls-11 {
        stroke: #020202;
      }

      .cls-15 {
        clip-path: url(#clippath);
      }

      .cls-7 {
        stroke-width: .1px;
      }

      .cls-8 {
        stroke-width: .12px;
      }

      .cls-9 {
        stroke-width: .05px;
      }
    </style>
    <clipPath id="clippath">
      <circle class="cls-1" cx="364.96" cy="375" r="318.22"/>
    </clipPath>
  </defs>
  
  <g class="cls-15">
    <g>
      <g>
        <polygon class="cls-13" points="442.45 126.22 441.38 125.15 440.79 125.46 441.53 126.75 442.82 127.23 443.96 126.37 442.45 126.22"/>
        <polygon class="cls-13" points="445.11 121.57 444.26 120.28 440.45 118.26 439.05 118.31 436.76 117.65 435.23 117.77 432.72 116.65 430.08 115.2 428.27 115.26 429.52 114.75 432.15 115.4 436.16 115.66 437.74 115.01 436.51 114.12 435.45 114.36 432.43 113.86 430.87 111.04 429.2 111.1 428.41 111.45 427.18 110.63 419.4 109.21 418.54 109.77 416.79 109.37 413.75 110 412.83 111.79 413.13 112.72 412.26 114.49 413.04 115.93 412.51 117.95 411.06 118.73 410.82 119.47 411.75 121.37 411.73 122.91 411.64 124.05 409.52 126.46 409.71 127.48 410.72 127.52 411.79 129.56 411.24 131.11 412.93 131.72 413.43 132.64 414.65 133.21 415.69 130.43 417.86 127.35 417.56 126.44 418.32 125.07 419.42 126.04 420.69 126.13 421.75 123.83 423.11 124.58 423.3 126.38 424.39 127.01 426.83 126.26 429.23 123.91 431.88 123.35 434.76 123.66 436.54 122.93 437.9 123.95 440.05 124.01 442.67 124.6 443.15 123.12 444.29 123.08 445.11 121.57"/>
        <polygon class="cls-13" points="394.89 136.69 394.51 135.51 392.95 134.43 391.61 135.16 392.66 135.97 394.89 136.69"/>
        <polygon class="cls-13" points="406.77 108.84 403.5 107.07 401.87 108.06 403.3 109.01 406.77 108.84"/>
        <polygon class="cls-13" points="234.64 136.67 250.71 136.38 250.72 136.38 234.64 136.67"/>
        <polygon class="cls-13" points="249.12 169.18 250.02 168.47 247.55 170.41 249.12 169.18"/>
        <path class="cls-13" d="M411.64,124.05l.09-1.14.02-1.54-.93-1.9.24-.74,1.44-.78.53-2.02-.78-1.44.88-1.77-.3-.93-.02.05-1.68-.35-1.59.39-1.66-1.55-3.95-.34-1.11.71-1.62-.48-3.47.12-.5,1.02c.07,0,1.91,1.01,1.91,1.01l4.99,1.5-.5.95.71,1.45-.59,2.35.92,1.58,1.75.41,2.06,1.74-.43,1.15h-3.8s-.72.54-.72.54l-1.61-.41-2.19.27-1.96-.74-2.24,1.02-.16-.94-.81-.3-2.84.83-1.58-1.42-1.9,1.06-.7,1.16.72,1.51,2.21.2,2.35,2.52,1.01.3.15-1.61.97-.83,4.07-.14,1.76.88,5.07-.04.91-.63,1.56.69,1.39.07-.19-1.02,2.12-2.41Z"/>
        <polygon class="cls-13" points="376.24 112.32 380.95 111.07 381.56 110.01 382.71 110.17 384.01 109.05 387.15 109.35 389.47 108.67 390.41 106.77 389.58 105.93 387.91 105.79 386.69 103.29 382.56 101.76 377.76 101.92 376.48 101.49 377.45 100.52 378.04 98.23 376.9 97.87 375.38 98.53 373.64 98.45 370.23 96.1 369.32 96.99 367.81 95.71 365.28 93.92 363.87 95.5 363.11 94.66 363.47 93.51 362.45 93.08 361.89 94.23 360.72 93.08 357.16 92.39 354.75 90.26 352.58 89.14 350.18 87.41 345.04 87.32 343.14 86.51 342.41 84.53 340.2 82.27 338.54 82.73 337.64 81.68 330.74 80.91 328.5 81.86 325.62 81.36 323.88 79.41 319.59 78.81 315.86 79.08 314.04 80.67 308.98 81.1 305.15 82.17 303.79 83.48 299.89 84.74 298.61 86.39 296.97 87.38 296.78 89.52 297.9 90.89 297.46 91.77 295.89 90.96 292.69 92.99 291.35 92.64 291.31 93.84 293.08 94.65 294.87 92.45 295.55 92.83 295.67 94.29 297.9 92.89 299.49 92.7 301.26 89.77 303.68 90.16 304.58 89.33 305.81 90.23 307.67 89.82 310.29 86.39 311.88 86.02 312.97 84.71 315.52 85.03 317.32 84.9 321.4 85.23 322.5 86.19 321.47 87.11 319.39 86.97 318.02 88.01 319.46 89.1 324.96 89.79 326.08 89.35 327.74 89.29 329.26 90.51 331.87 90.76 333.13 90.65 333.78 89.62 335.02 90.48 335.18 91.48 338.27 93.55 340.66 93.87 341.64 93.27 343.26 94.55 344.99 94.23 346.38 94.82 348.93 93.87 350.04 94.23 351.73 99.69 354.94 103.23 356.44 103.22 357.09 102.59 359.2 103.76 362.48 103.69 362.99 104.6 364.51 105.09 364.33 106.9 362.02 107.54 359.02 110.42 359.01 112.09 362.24 112.55 364.38 111.34 366.01 111.96 370.49 110.77 373.01 110.99 376.24 112.32"/>
        <polygon class="cls-13" points="309.57 95.84 308.75 95.31 309.05 96.26 311.12 97.02 313.7 96.18 313.91 94.46 312.24 92.61 310.56 92.3 309.93 93.65 310.47 94.71 311.36 95.25 310.51 95.98 309.57 95.84"/>
        <polygon class="cls-13" points="184.18 38.27 184.97 35.97 184.87 35.07 183.56 38.73 184.18 38.27"/>
        <path class="cls-13" d="M183.11,51.19l.05.15s-.01-.06-.05-.15Z"/>
        <path class="cls-13" d="M183.3,39.65l-1.53,4.19-.06,4.21s1.15,2.5,1.4,3.14l-.93-2.95.13-4.15.99-4.44Z"/>
        <polygon class="cls-13" points="185.5 33.85 186.25 33.28 188.11 30.84 189.39 29.02 187.53 30.49 185.5 33.85"/>
        <polygon class="cls-13" points="357.58 230.38 358.69 229.44 359.25 227.17 360.51 224.76 359.6 222.48 359.26 221.28 359.59 219.65 358.81 219 357.52 218.31 357.16 217.33 355.43 215.45 351.48 213.3 349.2 212.84 345.13 212.98 343.79 212.7 343.22 211.85 341.8 211.29 340.87 211.45 338.33 213.41 335.55 214.17 329.98 217.23 328.37 218.88 326.78 219.13 323.77 219.09 320.49 217 318.33 216.08 317.81 216.56 318.9 217.19 318.93 218.13 317.47 218.44 315.91 217.69 315.42 216.97 315.77 216.59 316.41 216.37 315.88 215.81 315.15 215.91 314 215.58 312.96 214.54 312.56 213.53 310.93 213.51 310.09 214.14 310.2 215.74 309.11 217.04 308.9 218.51 309.97 218.82 311.16 220.38 309.73 221.56 309.38 223.04 309.47 224.01 310.09 224.89 311.4 224.71 312.97 224.92 314.67 224.56 315.51 223.91 316.34 224.74 316.26 225.42 317.32 225.69 320.7 226.04 321.22 228.4 322.46 230.74 323.96 231.56 325.5 231.44 326.03 230.31 325.37 229.64 325.94 228.64 327.18 228.8 327.78 229.56 327.48 230.57 328.01 232.43 327.72 233.79 328.35 234.8 330.97 235.11 332.02 233.34 333.24 231.98 334.92 232.2 335.85 231.87 335.92 229.99 334.44 228.76 332.86 227.71 332.11 226.23 332.38 225.19 333.89 224.33 336.77 223.6 339.3 221.13 339.17 220.27 338.62 219.86 338.77 218.07 341.49 216.51 343.72 216.23 344.91 216.83 346.64 218.41 347.88 218.61 349.55 220.7 350.24 222.38 351.24 223.12 351.79 222.63 352.95 221.19 353.95 221.12 354.43 222.38 353.68 223.2 352.75 223.36 351.29 225.72 350.58 226.46 351.43 228.84 353.6 231.65 355.57 233.31 356.68 230.47 357.58 230.38"/>
        <polygon class="cls-13" points="309.38 223.04 309.73 221.56 311.16 220.38 309.97 218.82 308.9 218.51 309.11 217.04 310.2 215.74 310.09 214.14 310.93 213.51 312.56 213.53 312.38 213.08 311.01 212.16 309.53 211.77 308.48 210.57 307.87 209.09 305.93 207.27 304.74 205.5 304.41 203.5 303.71 201.89 302.85 202.11 302.61 202.98 300.68 203.04 301.07 202.36 300.08 202.39 299.17 202.95 297.18 201.28 297.15 200.54 295.94 200.19 294.89 198.82 292.36 199.04 290.7 199.36 285.65 198.06 282.53 198.63 282.55 199.17 281.92 199.45 282.14 199.59 281.67 201.67 281.09 202.23 281.64 202.68 283.05 202.96 283.51 204.82 281.94 205.8 281.15 207.97 281.6 209.75 284.14 211.8 286.61 211.79 288.11 212.68 289.03 214.18 289.89 214.15 290.9 212.25 290.38 210.66 287.85 208.95 287.22 207.97 288 207.27 289.64 208.48 291.4 209.29 291.59 210.82 293.43 212.03 294.09 213.88 296.27 215.01 297.92 216.42 299.14 217.12 301.22 219.38 301.58 220.24 300.43 221.82 300.47 223.07 301.31 224.32 303.54 225.05 305.04 225.93 305.76 225.5 305.91 223.96 305 222.85 303.37 222.11 303.36 221.78 304.02 221.29 305.04 221.99 306.71 223.87 306.7 225.54 307.34 225.89 307.85 226.17 308.52 226.89 309.7 226.91 309.97 225.99 309.83 224.92 310.09 224.89 309.47 224.01 309.38 223.04"/>
        <path class="cls-13" d="M282.53,198.63l3.12-.57,5.05,1.3,1.66-.32,2.53-.22,1.05,1.37,1.22.35.02.74,1.99,1.67.91-.56.99-.03.11-.2.85-.57-.31-1.39-1.04-1.17-.53-1.91,1.06-2.24.55-1.49v-1.93s-.49,1.08-.49,1.08l-.24.87-.91.56-.04-1.33.41-1.48.8-2.03-.3-1.19.02-1.26.98-2.77.81.17-.31.75s-.03,1.13-.02,1.47l.06,1.94.51.04.69-1.26.32-3.59-.18-4.28.31-.92-.74-1.04-.61-.25v-.94s.62-.69.62-.69l.57.05.35.56.49-2.33,1.44-1.95.66-1.27.14-.94-.92-.61-.13-.79.51-1.21-.32-1.53.05-2.47.5-1.01.54-.62-1.06.23-1.3.18-.39-.73-1.03.03-.79.46-.33,1.25-1.22.61-1.58,1.21-1.53.19-.36,1.14-1.22-.29-1.66.32-.36-.78-1.3-.96-.73.08-.35,1.69-1.73.12-1.39,2.32-.1,1-.85.5-1.8,1.86-1.91.8-.5,1.01-1.28-.41-.93.29-1.1-.96-2.22-.32-3.01,1.77-2.86.43.26,1.73.04,1.33-.19,2.41-.62,1.35-2.26.28-1.55.32-.03,1.01-.73.16-1.69-.54-.31.61,3.47,3.95,1.64,1.01.04,1.14,2.74,2.31,2.44,3.12,4.42,4.53,1.14.1.67.43.63-.29-.02-.53Z"/>
        <polygon class="cls-13" points="248.01 178.41 248.79 178.34 248.01 178.41 248.01 178.41"/>
        <polygon class="cls-11" points="271.93 181.02 272.56 179.67 272.74 177.26 272.7 175.93 272.44 174.2 275.3 173.77 278.31 172 280.53 172.33 281.62 173.29 282.55 173 283.83 173.42 284.33 172.4 286.24 171.6 288.05 169.74 288.9 169.24 289 168.24 290.39 165.93 292.12 165.81 292.47 164.12 293.2 164.03 294.5 164.99 294.86 165.78 296.52 165.46 297.73 165.74 298.09 164.61 299.62 164.42 301.21 163.21 302.42 162.6 302.75 161.35 303.54 160.89 304.57 160.86 304.96 161.58 306.26 161.4 307.32 161.18 307.87 160.55 307.31 159.64 305.12 157.97 303.09 157.17 302.97 157.51 303.82 159.01 301.82 159.01 299.41 158.83 298.45 158.12 296.71 157.98 295.17 158.03 295.55 157.29 296.74 156.91 296.58 156.05 297.37 155.82 298.85 156.11 301.34 156.76 301.66 156.49 299.95 155.2 297.65 154.01 296.04 153.93 294.52 154.32 293.5 153.88 293.14 155.03 291.91 154.2 287.83 153.94 283.89 153.87 281.69 152.14 279.73 151.26 279.37 152.41 280.12 152.93 278.67 153.58 277.76 154.28 276.21 153.79 273.17 154.69 269.22 154.49 263.76 154.81 261.4 156.22 260.25 155.33 259.96 156.12 258.79 157.03 258.24 158.65 255.69 160.26 254.29 160.25 251.97 162.79 250.55 164.38 251.07 165.96 250.02 168.47 249.12 169.18 249.81 168.64 251.36 168.92 251.68 169.38 252.73 169.71 253.63 170.69 255.39 170.36 257.27 170.7 258.46 172.13 258.79 173.2 259.96 173.93 260.3 173.08 260.66 172.02 262.23 171.81 263.14 172.08 264.39 172.48 264.44 173.98 264.1 175.73 264.32 176.43 263.9 177.85 264.15 178.69 264.22 178.62 265.23 179.12 265.72 179.77 266.52 179.68 266.9 179.07 267.65 179.44 267.68 180.57 268.12 181.56 268.12 181.62 269.67 181.3 271.93 181.02"/>
        <polygon class="cls-13" points="264.32 176.43 264.1 175.73 264.44 173.98 264.39 172.48 263.14 172.08 262.23 171.81 260.66 172.02 260.3 173.08 259.96 173.93 258.79 173.2 258.46 172.13 257.27 170.7 255.39 170.36 253.63 170.69 252.73 169.71 251.68 169.38 251.36 168.92 249.81 168.64 249.12 169.18 247.55 170.41 247.56 170.71 247.58 171.42 246 171.94 243.75 172.55 242.07 174.47 242.04 175.41 241.41 176.48 242.26 176.75 244.06 176.69 245.57 178.04 247.72 178.43 248.01 178.41 248.79 178.34 251.97 179.63 254.95 181.13 255.33 180.32 253.97 179.62 254.62 179.21 256.29 179.22 257.75 181.04 258.78 181.87 262.99 181.8 264.13 180.1 263.64 179.24 264.15 178.69 264.15 178.69 263.9 177.85 264.32 176.43"/>
        <polygon class="cls-13" points="256.57 130.46 256.21 131.21 255.89 132.61 254.77 134.24 254.69 134.64 253.99 134.83 253.66 135.33 253.23 135.06 253.12 134.35 251.78 134.33 250.81 135.04 250.72 136.38 250.71 136.38 250.74 136.42 251.05 153.62 252.39 153.64 252.94 153.92 253.93 153.82 253.92 153.8 254.6 152.23 256.27 150.38 257.3 151.21 259.78 147.52 260.63 144.97 260.59 141.89 259.56 140.92 259.87 138.18 260.82 136.48 260.93 131.94 261.16 130.93 260.93 129.93 259.73 129.97 258.83 130.87 258.35 130.04 257.68 130.02 256.57 130.46"/>
        <polygon class="cls-13" points="242.07 174.47 243.75 172.55 246 171.94 247.58 171.42 247.56 170.71 247.55 170.41 250.02 168.47 251.07 165.96 250.55 164.38 251.97 162.79 254.29 160.25 255.69 160.26 258.24 158.65 258.79 157.03 259.96 156.12 260.25 155.33 259.49 154.75 257.81 154.6 257.38 155.75 255.88 154.8 254.55 154.85 253.93 153.82 252.94 153.92 252.39 153.64 251.05 153.62 250.74 136.42 250.71 136.38 234.64 136.67 234.43 141.55 230.57 142.01 231.98 143.1 232.51 144.02 234.04 145.81 235.54 146.74 236.58 146.7 237.32 147.92 237.57 149.24 238.22 149.93 239.8 149.97 240.82 150.51 240.89 151.72 239.99 152.82 228.17 153.28 222.91 162.22 223.14 163.71 223.3 164.17 223.19 165.12 223.6 165.84 223.85 166.07 223.79 166.88 222.98 167.55 222.65 168.57 222.35 168.84 223.9 170.61 225.09 172.44 226.5 172.53 227.82 174.02 232.74 175.73 235.62 175.7 237.81 175.36 241.41 176.48 242.04 175.41 242.07 174.47"/>
        <polygon class="cls-13" points="57.17 64.67 57.66 65.45 58.06 67.31 59.03 66.61 58.72 65.29 57.61 63.86 57.17 64.67"/>
        <polygon class="cls-13" points="179.05 63.33 178.42 63.41 178.23 64.67 178.79 64.41 179.05 63.33"/>
        <polygon class="cls-13" points="177.79 69.4 177.68 68 176.97 71.04 177.79 69.4"/>
        <polygon class="cls-13" points="177.94 66.93 178.18 67.21 178.6 65.62 178.1 65.64 177.94 66.93"/>
        <polygon class="cls-13" points="222.98 167.55 223.79 166.88 223.85 166.07 223.6 165.84 223.19 165.12 223.3 164.17 223.14 163.71 222.91 162.22 228.17 153.28 239.99 152.82 240.89 151.72 240.82 150.51 239.8 149.97 238.22 149.93 237.57 149.24 237.32 147.92 236.58 146.7 235.54 146.74 234.04 145.81 232.51 144.02 231.98 143.1 230.57 142.01 234.43 141.55 234.64 136.67 250.72 136.38 250.81 135.04 251.78 134.33 253.12 134.35 253.23 135.06 253.66 135.33 253.99 134.83 254.69 134.64 254.77 134.24 255.89 132.61 256.21 131.21 256.57 130.46 257.68 130.02 258.35 130.04 258.33 130.02 259.88 128.56 261.81 126.16 262.86 125.8 262.73 127.67 261.89 128.57 261.97 129.1 264.08 130.29 264.87 132 265.26 131.59 266.89 128.53 268.17 122.68 269.05 121.12 268.19 121.28 267.29 122.25 266.47 121.87 266.45 121.14 268.44 118.87 268.73 117.53 267.19 117.58 265.97 116.61 266.54 115.93 268.3 114.73 268.42 112.26 269.18 110.9 273.12 107.1 275.07 103.56 276.46 101.18 276.26 99.15 273.45 95.84 271.71 96.03 272.15 97.08 271.1 97.52 266.79 96.59 263.19 96.85 263.35 97.78 261.12 98.92 260.29 98.15 258.02 98.49 256.75 100.41 248.87 100.53 242.9 102.21 242.95 103.53 244.43 103.62 241.08 107.61 241.01 113.35 241.29 114.02 238.08 117.73 238.18 120.94 236.47 123.14 235.08 123.52 231.03 125.86 231.37 126.18 233.13 124.91 232.71 126.53 232.73 129.19 231.01 131.39 229.94 131.49 229.58 132.51 228.47 131.47 226.31 130.61 226.74 129.46 228.5 128.47 225.88 127.82 225.12 128.92 223.09 128.38 220.63 128.53 219.01 129.99 216.88 130.13 213.62 130.5 213.11 131.32 209.32 133.65 208.25 133.69 207.42 132.78 204.31 133.55 202.13 134.64 201.35 132.33 199.15 129.48 196.4 128.44 195.78 127.76 193.24 127.77 192.37 128.01 191.1 126.75 187.1 122.32 186.55 120.84 186.64 119.42 184.85 116.96 183.93 114.93 178.69 109.63 178.22 107.85 177.1 106.29 177.73 105 177.22 103.74 176.03 99.97 174.58 98.76 174.79 96.75 176.94 99.34 177.32 102.6 177.9 102.04 177.74 99.32 175.21 95.6 175.41 93.59 174.7 90.07 174.18 88.62 175.58 86.64 175.91 82.22 175.34 79.37 176.19 74.73 176.01 73.4 176.64 72.11 176.01 71.33 175.94 69.13 176.84 68.17 177.35 65.55 177.72 64.67 176.49 63.78 177.58 62.34 177.5 59.74 179.1 59.82 178.89 61.49 178.59 62.44 179.65 62.27 179.86 60.66 181.2 58.62 181.66 56.53 182.36 55.71 182.55 53.3 182.79 52.36 181.56 53.46 181.12 56.15 179.55 57.27 179.96 55.92 179.14 55.55 178.53 54.43 176.84 54.09 175.07 53.27 172 52.35 170.45 50.92 169.26 50.3 168.09 50.51 166.99 50.13 166.76 49.89 165.94 48.99 165.96 46.58 163.92 41.22 163.74 40.67 163.73 40.19 163.86 38.47 163.97 36.83 162.38 35.27 161.46 33.76 160.96 31.96 159.5 31.25 159.06 30.08 158.28 29.61 156.96 26.27 156.45 25.01 155.43 24.55 155.22 22.37 154.94 20.98 154.42 20.19 153.66 18.28 152.14 16.11 150.29 14.67 149.44 13.32 148.2 12.74 147.01 13 146.6 12.48 145.89 12.15 144.13 12.34 142.54 12.16 140.87 12.2 140.39 13.33 139.66 13.5 139.47 13.22 138.77 13.07 137.72 13.5 136.78 14.48 135.53 17.03 134.76 18.08 134.96 18.56 134.78 19.35 133.87 19.62 132.59 20.72 132.43 21.31 131.57 21.69 130.78 21.58 130.21 20.96 128.3 20.07 126.73 19.61 126.46 19 124.54 18.1 123.49 18.12 122.85 17.5 122.72 16.92 122.36 16.27 121.46 15.94 120.88 15.99 120.08 15.25 119.52 15.29 119.57 14.78 119.11 13.49 117.79 12.02 116.13 10.17 116.1 9.5 117.16 9.2 117.68 8.78 117.57 7.38 116.47 6.41 116.15 5.72 115.61 5.63 114.95 4.89 114.68 2.85 113.8 1.54 112.5 .75 111.36 .45 111.8 -.27 111.87 -1.11 110.43 -2.23 108.98 -2.72 109.25 -3.64 108.37 -4.84 107.4 -4.84 107.21 -5.67 106.37 -6.62 104.83 -8.68 103.06 -9.69 88.08 -9.66 88 -6.27 61.5 -6.19 29.55 -19.55 29.86 -20.29 29.37 -21.09 7.22 -19.96 7.57 -17.73 8.99 -13.04 10.13 -11.07 11.18 -9.78 10.46 -9.21 10.24 -7.74 10.9 -6.02 13.46 -3.11 13.43 -2.1 12.85 -1.48 13.29 -.36 15.28 1.31 15.6 3.1 15.03 3.98 14.96 5.86 16.13 6.82 16.7 7.87 16.87 11 17.82 13.5 19.47 14.99 20.53 14.88 23.22 17.4 24.62 19.23 25.07 20.67 27.41 22.86 28.43 25.64 29.24 25.94 30.51 27.9 29.49 29.34 29.46 30.34 30.16 31.39 29.74 32.87 28.66 32.43 27.76 33.47 27.98 33.93 29.52 34.15 29.29 35.29 28.66 36.25 27.36 35.49 25.08 35.16 23.66 34.67 21.27 34.95 20.82 35.5 22.77 37.9 24.46 38.58 24.65 40.38 25.64 42.01 27.26 42.5 29.42 43.43 29.46 44.36 30.66 44.25 31.87 44.68 31.63 45.36 32.34 46.67 33.52 46.09 34.72 45.98 36.26 44.06 37 44.24 36.45 45.8 37.01 48.72 40.31 51.68 41.67 52.23 42.59 51.93 43.57 53.3 44.82 56.8 45.21 60.59 44.72 63.61 43.27 66.26 43.58 67.72 45.43 69.12 46.23 68.91 46.73 70.15 48.55 70.5 49.47 72.26 53.55 76.4 54.97 76.96 55.68 78.21 57.14 79.82 59.08 79.96 59.98 81.13 60.27 83.59 61.36 84.42 61.54 85.81 62.4 87.72 63.55 88.02 66.3 86.66 67.89 84.08 67.95 81.73 66.79 81.04 66.2 79.39 65.3 78.55 64.71 76.84 63.29 76.08 62.65 74.9 61.67 73.72 60.79 73.29 60.27 73.71 60.38 74.98 59.59 75.33 59.29 74.28 57.85 73.19 56.19 71.31 55.95 70.2 56.82 68.26 56.69 66.32 55.22 64.43 55.58 63.14 55.51 62.01 54.57 61 54.6 59.68 53.49 58.51 53.43 56.72 52.87 55.86 52.59 53.54 52.95 52.19 52.3 48.74 51.1 46.91 50.53 45.66 49.86 45.55 49.82 46.29 49.92 47.35 49.27 47.97 47.52 45.49 47.35 44.3 47.9 42.95 47.34 42.04 46.54 41.99 45.88 38.27 44.26 35.86 43.52 35.62 41.73 34.07 41.59 31.88 41.73 29.93 40.11 27.58 38.91 27.36 38.15 26.58 37.88 24.58 36.64 23.36 35.08 22.67 34.56 21.03 34.85 19.81 34.24 17.36 31.64 15.72 30.73 14.41 29.73 14.38 29.74 12.58 28.38 9.95 27.34 8.92 28.1 7.36 27.61 .9 27.02 -3.02 27.75 -5.12 28.51 -8.35 28.12 -10.06 27.38 -12.18 28.65 -10.08 31.16 -9.03 32.91 -6.49 34.01 -5.59 35.53 -5.91 36.38 -6.6 37.96 -5.19 38.53 -4.14 40.33 -4.13 42.3 -3.13 42.33 -2.2 41.11 -.69 41.3 .91 42.31 3.08 42.88 6.26 43.73 7.71 44.07 9.9 43.71 11.11 44.43 12.69 46.8 15.81 46.7 16.75 46.19 17.64 46.83 18.88 47.57 18.86 48.27 19.84 49.37 22.8 50.66 23.36 51.24 24.82 51.51 26.94 52.27 27.72 53.48 28.01 54.55 30.12 55.14 31.69 56.37 32.65 56.8 33.5 58 33.53 58.68 34.05 59.94 33.47 60.96 34.23 60.97 36.37 60.27 37.53 60.69 40.05 63.99 42.81 65.11 42.64 66.26 43.01 65.92 44.69 66.77 46.19 68.38 46.54 69.84 46.29 71.51 48.23 71.82 49.63 73.11 50.25 73.69 49.64 74.18 50.22 74.48 51.41 73.78 52.3 72.81 51.33 71.62 51.77 70.08 53.56 69.24 56.19 69.56 58.05 71.13 59.06 72.81 59.14 73.9 60.04 77.66 62.79 79.82 63.25 80.95 63.21 81.45 64.27 82.18 65.97 82.95 67.08 82.27 68.71 81.15 69.21 81.3 69.87 82.87 70.7 85.64 71.74 85.81 72.86 86.7 73.43 89.23 75.48 92.16 79.07 94.35 82.79 97.45 85.76 97.58 87.62 101.12 91.78 101.51 93.57 100.91 95.33 101.61 96.57 102.71 99.2 104.88 104.21 105.08 106.27 104.13 107.97 102.06 109.9 101.83 110.98 102.76 111.08 103.87 112.05 103.1 113.01 100.96 113.02 99.85 113.71 99.88 114.59 101.25 117.81 102.49 118.97 102.54 120.31 104.35 122.52 105.09 124.76 105.98 125.46 107.38 125.42 107.95 126.47 110.91 127.1 112.89 126.64 114.03 126.79 113.2 127.96 113.23 128.76 115.52 129.48 117.93 131.6 119.62 134.09 121.02 136.11 122.9 136.74 123.66 136.45 125.52 137.15 126.7 137.21 130.32 138.48 131.72 138.53 132.17 137.8 133.2 137.7 134.07 138.75 138.74 142.99 139.94 143.16 142.7 145.81 146.76 147.28 151.38 147.78 153.62 148.84 154.81 150.68 157.42 150.79 159.86 151.85 161.18 151.27 161.72 151.65 163.06 153.68 165.42 154.66 166.97 154.75 167.69 154.52 169.46 155.53 172.9 156.75 176.11 156.64 178.61 157.9 183.27 159.41 185.13 159.22 189.8 157.06 191.8 156.86 194.28 155.1 196.14 154.72 198.46 154.44 199.4 154.54 199.38 154.01 197.57 153.8 196.04 153.85 196.08 152.97 198.1 151.71 198.78 152.02 198.81 153.02 199.93 152.39 201.13 152.35 201.15 153.15 200.22 153.25 199.84 153.66 200.52 153.97 201.85 153.85 203.53 154.4 206.39 156.11 207.7 157.2 207.68 156.67 205.48 154.6 202.43 153.37 202.28 152.84 202.95 152.75 203.29 153.07 205.1 153.35 206.75 154.69 208.41 156.65 208.44 157.44 209.28 158.49 215.85 163.6 217.88 164.13 218.18 165.19 220.84 167.11 222.35 168.84 222.65 168.57 222.98 167.55"/>
        <polygon class="cls-13" points="59.83 72.52 60.63 72.57 60.87 71.56 59.92 71.32 59.83 72.52"/>
      </g>
      <g>
        <polygon class="cls-13" points="474.16 221.77 472.27 224.19 470.92 225.3 472.27 224.19 474.16 221.77"/>
        <polygon class="cls-13" points="444.45 262.62 444.81 260.39 444.4 259.69 444.81 260.39 444.45 262.62"/>
        <polygon class="cls-13" points="439.88 440.33 438.95 438.56 438.94 438.55 439.88 440.33"/>
        <polygon class="cls-13" points="496.46 415.77 495.84 415.09 495.07 414.28 496.46 415.77"/>
        <polygon class="cls-13" points="460.76 250.6 460.76 250.6 459.64 250.11 460.76 250.6"/>
        <polygon class="cls-13" points="446.78 267.03 447.31 266.41 450.41 265.68 447.31 266.41 446.78 267.03"/>
        <polygon class="cls-13" points="409.42 310.93 409.24 310.27 408.87 308.84 409.42 310.93"/>
        <polygon class="cls-13" points="430.57 274.23 433.28 276.19 434.82 276.35 433.28 276.19 430.57 274.23"/>
        <polygon class="cls-13" points="423.23 237.9 424.33 238.42 424.83 240.98 424.33 238.41 423.23 237.9"/>
        <polygon class="cls-13" points="397 233.9 398.06 233.32 398.06 233.32 397 233.9"/>
        <polygon class="cls-13" points="421.86 250.44 421.86 250.45 422.32 248.77 421.86 250.44"/>
        <polygon class="cls-13" points="390.94 231.21 392.5 232.42 394.4 233.17 392.5 232.41 390.94 231.21"/>
        <path class="cls-13" d="M538.03,260.81l-.18.48.58,1.66.71.98c.1,0,.72.07.72.07l.11-.91-1.02-1.7-.93-.59Z"/>
        <polygon class="cls-13" points="537.51 277.71 537.03 277.87 536.43 277.82 535.82 278.1 534.61 279.42 533.91 281.59 534.41 281.46 534.61 280.96 536.03 279.49 536.73 279.4 537.82 278.19 537.51 277.71"/>
        <polygon class="cls-13" points="546.22 277.83 546.68 277.05 545.92 276.52 545.01 276.59 544.73 277.18 543.74 277.65 544.74 277.98 546.22 277.83"/>
        <polygon class="cls-13" points="535.6 280.91 535.12 281.6 535.5 281.68 536.48 281.46 536.81 280.6 536.49 280.3 535.6 280.91"/>
        <polygon class="cls-13" points="542.21 276.5 542.73 276.79 543.58 276.35 543.81 275.5 543.05 274.93 541.19 275.47 540.21 275.6 539.96 276.18 540.58 276.5 542.21 276.5"/>
        <polygon class="cls-13" points="540.15 274.54 540.77 273.5 541.5 273.24 542.02 272.29 541.42 272.21 540.55 272.91 539.89 273.27 539.17 274.14 539.45 275.31 540.15 274.54"/>
        <polygon class="cls-13" points="538.36 276.53 538.76 277.09 539.45 277.29 539.47 276.66 539.29 276.12 538.46 275.75 538.36 276.53"/>
        <polygon class="cls-13" points="512.03 241.41 511.03 242.86 511.23 244.69 511.78 245.99 511.66 247.49 511.7 248.59 512.92 249.28 513.49 250.32 514.27 251.5 514.58 252.86 514.84 253.46 514.66 254.61 513.64 255.69 513.84 257.37 514.35 258.22 513.77 259.7 512.2 260.84 511.85 260.78 512.11 261.41 512.57 262.47 512.94 262.77 512.95 263.43 513.9 264.42 515.04 264.58 515.74 263.77 516.66 263.37 517.41 263.42 517.6 263.96 518.08 264.17 518.19 265.92 518.99 266.16 520.14 265.26 520.37 264.16 521.05 263.64 522.19 263.41 522.96 261.76 523.98 259.97 525.16 257.16 525.15 255.96 526.8 253.66 528.37 251.59 528.85 250.79 528.93 250.72 530.01 249.17 529.86 247.49 528.61 246.19 528.06 246.83 527.22 246.14 527.04 245.08 524.61 242.72 523.98 242.5 522.4 241.07 518.62 240.23 516.91 239.27 514.94 239.15 513.77 240.06 512.59 240.77 512.6 240.76 512.54 240.81 512.03 241.41"/>
        <polygon class="cls-13" points="493.35 240.92 493.43 241.85 492.53 242.97 491.35 243.63 489.72 243.74 488.91 245.4 488.91 246.83 487.87 249.65 488.02 250.49 489.24 251.08 490.06 251.97 490.28 252.63 491.08 253.64 491.18 254.5 491.97 255.15 492.84 255.17 493.36 255.57 493.65 256.54 494.25 258.53 494.25 259.87 494.96 260.38 496.09 261.6 496.29 262.75 497.65 263.23 497.67 263.76 498.08 264.61 499.05 265.24 499.16 265.28 499.72 265.27 500.14 265.57 501.83 265.98 502.96 265.9 503.18 265.39 502.51 263.96 502.18 263.2 500.91 262.04 501.09 260.83 502.36 259.92 503.86 260.25 506.62 260.04 507.87 259.42 509.61 259.44 510.94 260.62 511.85 260.78 512.2 260.84 513.77 259.7 514.35 258.22 513.84 257.37 513.64 255.69 514.66 254.61 514.84 253.46 514.58 252.86 514.27 251.5 513.49 250.32 512.92 249.28 511.7 248.59 511.66 247.49 511.78 245.99 511.23 244.69 511.03 242.86 512.03 241.41 512.54 240.81 512.6 240.76 513.83 239.14 513.71 238.24 512.3 237.66 509.98 237.35 507.31 236.43 506.45 236.56 505.27 237.12 503.2 237 500.63 237.61 498.45 237.06 495.53 237.21 493.86 237.88 493.63 239.42 493.65 239.57 493.35 240.92"/>
        <polygon class="cls-13" points="472.27 224.19 470.92 225.3 469.9 225.23 468.15 227.45 468.71 228.34 469.24 229.76 471.02 229.8 472.15 230.63 472.2 232.22 470.07 233.25 468.91 232.85 468.01 233.36 466.94 232.92 466.07 234 465.85 236.02 464.55 237.32 465.22 238.97 467.03 241.31 469.59 243.3 469.61 243.44 470.27 243.51 470.82 244.07 471.52 243.57 473.01 243.66 474.16 245.01 474.22 246.79 473.45 248.11 472.9 248.95 474.07 249.48 475.46 249.34 475.92 250.29 476.58 251.22 477.82 251.09 477.89 251.8 476.74 253.33 476.37 255.17 475.15 257.47 475.3 258.9 474.85 259.88 474.7 261.09 475.05 261.75 474.8 262.66 474.99 264 476.22 265.21 477.71 266.6 477.79 267.56 478.79 268.72 481.5 270.89 482.57 271.29 483.35 270.2 484.26 269.94 484.46 270.36 485.99 270.17 486.87 269.04 487.04 268.4 488.41 267.92 491.15 267.93 491.85 265.8 493.22 265.17 495.18 265.01 495.73 265.57 496.92 265.34 499.08 265.27 499.05 265.24 498.08 264.61 497.67 263.76 497.65 263.23 496.29 262.75 496.09 261.6 494.96 260.38 494.25 259.87 494.25 258.53 493.65 256.54 493.36 255.57 492.84 255.17 491.97 255.15 491.18 254.5 491.08 253.64 490.28 252.63 490.06 251.97 489.24 251.08 488.02 250.49 487.87 249.65 488.91 246.83 488.91 245.4 489.72 243.74 491.35 243.63 492.53 242.97 493.43 241.85 493.35 240.92 493.65 239.57 493.63 239.42 493.63 239.43 493.2 238.1 493.15 236.47 492.68 235.48 490.17 234.89 487.93 232.7 486.68 231.79 485.88 232.23 484.55 232.73 483.67 233.79 483.42 235.05 483.13 233.47 483.35 231.4 483.74 230.18 483 228.01 481.96 227.28 479.29 225.75 477.47 223.83 477.27 222.78 475.95 221.6 474.72 221.37 474.33 221.15 474.16 221.77 472.27 224.19"/>
        <polygon class="cls-13" points="397.43 200.62 394.07 202.05 392.18 205.2 391.58 205.98 390.44 206.31 389.43 207.88 388.41 208.83 386.4 211.92 386.06 213.27 386.53 214.41 386.41 216.63 385.47 218.82 385.35 219.49 386.21 219.37 387.36 219.37 390.15 224.1 391.39 225.85 391.77 227.09 391.14 228.55 391.27 229.47 390.84 230.25 390.94 231.21 392.5 232.41 394.4 233.17 395.58 233.28 397 233.9 398.06 233.32 398.06 233.32 398.06 233.32 399.77 233.31 401.39 233.73 401.86 233.31 403.77 232.9 405.9 233.25 407.12 233.71 412.3 238.5 414.12 238.05 414.61 238.45 415.13 238.24 416.49 238.6 417.38 239.06 418.6 238.32 419.92 238.25 421.75 238.36 422.08 237.98 423.23 237.9 424.33 238.41 424.83 240.98 424.33 242.05 424.37 243.23 423.96 244.07 422.39 244.6 421.68 245.54 422.14 247.91 422.32 248.77 421.86 250.45 421.98 252.56 422.74 253.59 422.81 254.36 424.37 257.86 422.34 261.85 422.57 262.81 423.29 263.02 423.93 262.53 424.22 262.82 424.55 263.88 425.21 264.24 425.95 265.53 425.62 266.3 426.44 267.96 427.88 271.28 428.04 272.55 427.96 272.57 430.57 274.23 433.28 276.19 434.82 276.35 437.54 276.12 439.04 274.18 441.28 272.61 442.33 271.28 445.68 269.39 446.25 267.65 446.78 267.03 447.31 266.41 450.41 265.68 451.92 264.92 451.78 263.57 449.66 263.21 447.55 263.52 444.45 262.62 444.81 260.39 444.4 259.69 444.04 259.07 445.82 256.13 445.3 254.91 443.81 253.61 442.41 253.13 441.49 251.53 443.43 252.04 445.5 252.3 447.6 253.39 449.9 253.17 452.86 252.69 453.59 253.14 455.68 252.35 457.77 250.36 459.64 250.11 460.76 250.6 460.76 250.6 463.69 249.25 465.84 248.99 469.21 246.43 469.79 244.83 469.61 243.44 469.59 243.3 467.03 241.31 465.22 238.97 464.55 237.32 465.85 236.02 466.07 234 466.94 232.92 468.01 233.36 468.91 232.85 470.07 233.25 472.2 232.22 472.15 230.63 471.02 229.8 469.24 229.76 468.71 228.34 468.15 227.45 469.9 225.23 470.92 225.3 472.27 224.19 474.16 221.77 474.33 221.15 473.98 220.94 471.39 219.87 470.48 219.87 469.6 220.26 468.25 220.02 467.51 220.07 466.44 220.59 464.31 221 462.75 220.88 461.95 220.8 463.33 220.51 464.1 220.58 465.04 219.92 465.58 218.85 466.94 217.75 467.2 217.07 466.27 216.47 466.35 216.04 465.93 215 464.08 214.1 461.85 213.59 461.16 212.94 460.33 212.45 459.03 212.44 458.58 211.83 457.22 211.3 456.5 211.37 456.58 212.48 455.68 211.35 455.11 210.08 453.74 209.45 453.34 208.75 454.04 208.15 457.02 208.14 458.09 207.38 459.96 207.13 460.11 206.02 458.4 206.41 455.4 205.89 453.25 206.25 451.81 206.2 448.92 207.35 447.9 206.96 446.71 207.13 444.32 208.95 443.08 209.28 441.62 210.09 441.07 210.83 439.11 211.14 438.5 211.54 437.48 211.23 434.49 209.37 433.88 208.19 433 208.07 429.75 208.42 423.51 209.68 420.44 209.79 419.22 209.2 418.7 208.26 418.67 207.11 419.43 207.04 419.25 205.7 417.84 203.92 416.58 203.62 413.43 203.97 411.96 203.2 410.9 203.19 410.05 203.51 408.89 201.77 408.83 199.99 408.28 197.8 407.64 197.58 405.8 198.42 404.05 200.63 404.53 202.06 405.17 202.61 406.39 201.9 407.6 201.96 408.69 203.07 408.52 203.89 407.39 204.27 406.02 203.69 405.39 203.28 405.11 203.67 405.08 204.2 403.57 205.07 400.66 205.69 397.78 207.04 396.91 208.22 396.94 209.32 397.73 210.68 397.82 213.37 398.17 215.18 398.8 216.7 397.9 218.75 395.64 220.17 394.48 220.02 394.42 218.1 393.02 216.61 392.6 215.27 393.81 214.17 393.88 213.4 396.3 210.82 396.23 208.71 395.39 207.35 395.46 206.73 395.39 205.91 394.31 205.18 393.74 204.09 394.05 203.17 395.56 202.45 397.13 202.01 398.48 200.36 397.74 200.37 397.43 200.62"/>
        <path class="cls-13" d="M644.89,324.05l-.31-3.29-.78-.45-.34-1.62-2.47-5.02-.06-1.73-.45-2.09-4.39-1.78-2.49.17-1.8.83-1.31-1.69-1.45-.24-1.5-1.59-1.95-.89-1.35-.14-3.08-3.08-2.51-3.28-1.16-.25-1.69-1.48-1.44.15-4.13-2.75-1.83.06-2.05-.8-1.23.72-1.92.06-1.17-.54-1.23.62-.55.88-.79-.74-1.87-1.29-.27.59-.79-.65-.26.87.02.68-1.09-.83-.21-.67-.8-.2.26.66-.37.28-2-.7-.64.14-1.67-.25-3.71-1.61-1.39.14-.06.41.31.74-.3.38-.78-.38-.33.2-.2.56-1.25.65-.44.69-.13,1.57-.71-1.13-.42-.99-.66.31.13,1.24-1.03,2.15.06,1.78-.44-1.66.38-1.7-.29-1.48.6-2.18.56-.55-.49-.41h-1.06s1.34-1.64,1.34-1.64l-1.89-1.91-1.11-1.64-1,.13-1.49-.19-.83,1.13-.85.46-.47-.99-.64-.36-.32-.96-.79-.59-1.05.13-.55-.66-.92-.3-.51.68-.02-.57-.73-.4-.51-.95-.8.36-1.5-.38-2-1.09-.58-.08-.32.59-1.23-.77-.86.12-.16.83-.57.06-.37-.9h-1.54s-1.27.77-1.27.77l-.68,1.32.12.76-1.39,1.49-1.83,1.17-2.35,1.47-1.1,1.48-.66,1.89-.23,1.83-.59.98-1.05,1.18.1.8.26,1.36-.16,2.51-.48-1.5-.96-1.46v-1.11s.88-1.18.88-1.18l1.05-.92-.23-1.83.5-1.56-.15-.81h-.8s-1.54.61-1.54.61l-1.72-.45-1.49.15-1.19.35-.86-.69.96.09,1.1-.88,1.17-.31,2,.3,1.12-.31,1.01-1.36.48-.04.64.46.66-.24,1.13-.71,1.92-.74-.05-1.53,1.66-2.08-.05-1.44.64-.98.06-1.16-1.84-.33-1.48-1.1-1.34.04-1.88,1.21-1.63.15-2.34-.89-2.51-.1-1.76,1.98.12.76.61.42.41.63-.87.13-.52.3-.44,1.17-.37-.99-.63-.22-1.42.62-1.46,2.21-1.98,2.42,1.46-2.21-.09-1.38.31-.79.11-.96-.67.02-1.3,1.14-.62,1.56-.61,1.75-1.08.75.98-2.05.14-1.59,2.25-3,.51-1.99.82-1.23,1.27-.76,1.36-1.06.99-.46,1.18-1.91,3.01-3.27.16-.77.61-.5-.7-.84.21-.92.42-.39v-1.3s-1.27-.87-1.27-.87l-1.39.14-.42.5-.66-1.04-.94-2.46-1.61-3.64-1.41-1.87-1.04-2.51v-1.39s-.38-1.38-.38-1.38l-.57-.51-.26-1.29-.87-1.55-.33.2.13,1.05-.5.83-1.51,1.06.02-.02-.08.08-.48.8-1.57,2.07-1.66,2.29.02,1.2-1.18,2.81-1.02,1.79-.76,1.64-1.14.23-.68.52-.23,1.09-1.15.91-.8-.24-.11-1.76-.49-.2-.19-.55-.74-.05-.93.39-.7.81-1.15-.16-.95-.99v-.66s-.38-.3-.38-.3l-.46-1.07-.26-.62-.91-.16-1.34-1.18-1.74-.02-1.25.62-2.76.21-1.5-.33-1.27.9-.18,1.21,1.27,1.16.34.76.67,1.43-.22.51-1.13.08-1.7-.41-.42-.3h-.56s-.11-.02-.11-.02l.03.02-2.16.07-1.19.23-.55-.56-1.96.16-1.37.62-.7,2.14h-2.74s-1.38.47-1.38.47l-.17.64-.88,1.13-1.53.2-.21-.42-.9.26-.78,1.08-1.07-.39-2.72-2.17-1-1.16-.08-.96-1.49-1.39-1.24-1.21-.19-1.34.26-.91-.36-.66.15-1.21.45-.98-.14-1.43,1.22-2.3.37-1.84,1.15-1.53-.07-.72-1.24.14-.66-.94-.46-.94-1.39.14-1.17-.53.55-.84.77-1.32-.06-1.78-1.15-1.35-1.49-.1-.7.51-.55-.56-.66-.07.18,1.39-.57,1.6-3.37,2.57-2.15.26-2.93,1.34h0l-1.12-.49-1.86.26-2.09,1.99-2.09.79-.74-.46-2.96.49-2.3.22-2.1-1.09-2.07-.26-1.94-.51.92,1.6,1.41.48,1.48,1.3.52,1.23-1.77,2.94.36.62.41.7-.36,2.22,3.1.91,2.1-.31,2.12.36.14,1.34-1.51.77-3.1.73-.53.62-.53.62-.57,1.75-3.35,1.89-1.06,1.33-2.24,1.57-1.5,1.93-2.71.23-1.55-.16-2.71-1.96-2.61-1.66-1.74.26v-1.83s-.33-1.46-.33-1.46l-1.15-1.31-.4-1.01-1.81.54-1.25,1.48-.86.18-.74-.65-1.29.04-.78.94-7.53.29-.36,2.17.67,1.56,2.57.59,1.02,1.75-.69.84.8.79-.3,1.11-1.62-1-4.41,1.68.31,3.64,1.2,1.45,2.55,1.84,1.73,2.82-.02,2.26-.02,1-3.28,14.01-.99,3.71.17.66-.54.98-1.45-.34.13-.44-1.52-.92-.52.16-1.3.04-.58-.22-.44,1.07-4.51,1.64-3.38.83-.83.89-.76.26-1.34,1.44-1.56.77-1.18.81.25,1.72-.64,1.03.32,1.05-1.76,1.88.7,2.29.66,1.17-1.07,1.09-.97-.16-1.83,1.26-.05,1.35-.65.74.46.9-.19,1.49-.49,1.27.52,1.09-.3,1.02,1.88,1.77,3.44,5.17-1.61,2.16,4.11-.47,1.98.27,1.51,2.07.49,1.85h2.86s3.39.12,3.39.12l2.73-2.67,2.33-1.45.69.69-.26,1.48-.46.52.03,2.38.49,3.91.13,1.56.84.75,1.32-.26,1.26-.4,1.43-.15.73-.12.67.29.19.09,4.22-.15,1.93.04,1.89-1.13,1.05-.04,1.4-1.2,1.63-.05,1.9-.64,1.05-3.01,3.1-2.12,2.2-.46,2.08-1.13,1.44-.05,1.38.92,1.51-1.02.79.65-.14,1.55.85,2.38-1,1.96.97,3.05-.53,1.36,1.24,2.47,1.56.62.55,2,1.56.72,2.16,1.27,1.48,1.29.55-.69,2.77-.77,2.38,2.22,1.71-.54,2.49,2.52,1.05-.13,2.91.87,1.85.62.45,1.91,1.36.33,1.76.9,3.83-.51,2.74,1.45.62,1.13-.28,3.08.66,2.48-.72,1.56,2.64,4.15-.09,3.08,11.73-.2.72,4.21-.1,2.7,3.48.65,3.66,6.04.3,3.25-3.05,6.65.22.95-.85,1.25.63.68-.34,1.45,1.68,1.2.16,2.02,1.41,1.96-.54,4.06.44,1.62-.43,1.46.53,1.43,2.49-.28,1.07.44,3.07-.3,1.94.61,3.03-1.35,1.67,1.1,1.26.34.53,1.52,1.92,7.18,1.24,2.5,1.21.3,2.59-1.53,1.51.52,1.04.88.97.16-.61,1.1.04,6.27-.25.74-.17.24.03.84-.15.7-.04.81,1.13-.8,3.09.33.14,1.35,1.34,2.78-.02,2.26.38,2.58.32,2.39-.35.97h-1.34s-1.6.92-1.6.92l-.22.54-.93.84-.44-.22-2.67,1.91-.5.88-1.04.32-2.43,2.14-.8.32-.04,1.63-.9.32-.82-.11-2.02,2.65-.35,1.02.1,1.48-.95.32-.5.83-1.26,2.48-.93,1.04-1.04,1.86.02.63-1.22.9-.16.6h1s.73.36.73.36l3.33-1.12,1.42.87,1.6,2.06,1.36.53.88,1.8,1.67,2.54.77-.03,1.25-1.44.67.07,1.62,2.44,1.85.76,1.59.28,1.59,1.48.15,1.81,1.29-.32,2.63,1.06,1.6,1.87,1.71,2.39,1.52,1-.22,1.89-1.19,1.76.69,2,.25.48.19.32.82,1.02.38.3,2.45-2.17.79-2.04.95-4.69.9-3.2.41-.63-.6-.7-1.01-1.55.44-1.36.94-.52.02-.86,1.06-1.29-.03-.96.69.51.91.11,1.06-1.34.1-1.34.42-.45.05-1.53.46-.64.67-.02.44-1.31-.37-.95-.74-.74.03-2.02-.59-.51.68.17.82,1.56,1.64,1.68.62-.02.66-.41.44.41.18,1.15-.52.16-.55,2.32-1.45,2.7-1.39.09-.14,1.68-.45.92-.44-.12-1.37.82-.98.89-.07.72-1.1.23-.51.55.07.72,1.3.34,4.11-3.45,2.08-2.52,2.94-5.43,1.11-2.72,1.09-3.49,2.83-5.86,2.86-3.64.44-1.08-.3-.37.11-.92.62-.22.43-1.5.85-.55-.33-1.19.26-.87-.3-.37-.54-.42.05-1.35-1.36-1.77-.03-.81.21-.83-.27-.86-.49-1.9-.74-1.99.51-.49,1.67-.39-.47-1.09-.83-.45,1.57-.43v-1.3s-1.65-.67-1.65-.67l1.33-.43.82-1.28.69.51,2.05-2.03,1.22-.86-.07-.67,1.73-1.59,2.02-1.41,2.63-3.21,2.39-.37,1.25-1.29,1.4-1.2,1.34-.04.89.7,1.02.2.02-.96.95-1.8,2.77-1.87,1.09-.37-.02-.53-.69-.41-.92-.16-.46-.8,1-.28,1.69-1.11,1.01.25,1.13-.13.79-.67,1.13.03-.05.54-1.58.97-1.67.4-.32.39.57.42,2.54-1.05,3.06-1.33-.28-.5.79-.72.77.09-.24.76s.11,1.1.23,1.15c.12.04,1.95.22,1.95.22l1.06-.63,1.83-.06,2.22.16,1.31-.96v-.67s-.34-.33-.34-.33l.17-.68,2.94-2.14,2.49-.98,1.27-.83.36-.83-.38-.5-1.19-2.49.76-1.76.9-1.17v-1.3s.61-.54.61-.54l1.08-.81.19-1.35-.34-.18,1.77-3.08,2.45-3.06v-1.34s-.67-4.21-.67-4.21l-.46-.8.73-2.57.63-1.03.12-.87,1.92-1.65.26-.78-.61-2.45.96-3.01-.37-2.29.33-1.74-.13-.96.5-2.52-.97-9-.07-1.67.49-1.27-.03-1.2-.56.64-1.08-.73-.03-.77.91-1.52-.29-1.48.21-1.02.86-.26.14-1.59-.96-1.46-1.8-.76.47-.21.22-.58.36.71,1.07.59.97.3.34-1.45h.91s.41.82.41.82l.68.32-.69,1.03-.93.75-.22.83.68.02,1.26-1.24,1.74-.97,2.14-3.53.92-2.58.28-1.55.84-.8.79-2.33.89-2,3.42-2.51.39-1.17,1.05-.37.73-1.28,2.88-2.78,2.52-3.64.64-.98,1.51-3.65.38-1.6.77-1.17-.04-1.15-.9-1.27.29-1.35.75-.75Z"/>
        <polygon class="cls-13" points="352.29 276.13 355.33 277.98 356.51 277.96 358.12 279.55 357.92 280.54 358.21 281.4 360.26 281.5 362.63 282.55 363.44 283.08 365.59 283.49 366.39 282.72 366.27 281.35 367.22 280.55 367.68 280.55 369.7 281.19 370.76 281.73 371.08 282.59 372 283.06 372.15 283.15 372.63 283.1 373.42 283.84 375.84 284.34 377.34 284.62 377.74 285.33 379.39 287.15 379.57 288.39 380.74 290.42 381.61 290.39 384.81 291.34 386.22 293.26 386.22 294.85 386.7 294.98 387.83 295.46 388.46 297.13 388.05 297.81 388.46 298.76 389.73 299.24 391.11 298.86 392.27 299.11 393.9 299.01 394.55 298.41 396.63 297.38 398.46 297.66 400.07 298.37 402.34 297.29 403.54 297.25 404.09 298 404.86 297.93 406.37 298.59 407.07 299.49 408.35 299.01 408.48 299.92 404.4 307.35 404.67 308.16 406.15 307.97 407.82 307.76 408.87 308.84 409.24 310.27 410.23 306.56 413.51 292.54 413.53 291.54 413.55 289.28 411.82 286.46 409.27 284.62 408.06 283.17 407.75 279.53 412.16 277.86 413.78 278.86 414.08 277.74 413.28 276.95 413.97 276.12 412.96 274.37 410.39 273.78 409.72 272.22 410.08 270.05 417.61 269.75 418.39 268.81 419.69 268.76 420.43 269.42 421.29 269.24 422.54 267.76 424.34 267.22 424.74 268.23 425.89 269.54 426.2 271 426.22 272.83 427.96 272.57 428.04 272.55 427.88 271.28 426.44 267.96 425.62 266.3 425.95 265.53 425.21 264.24 424.55 263.88 424.22 262.82 423.93 262.53 423.29 263.02 422.57 262.81 422.34 261.85 424.37 257.86 422.81 254.36 422.74 253.59 421.98 252.56 421.86 250.45 421.86 250.44 422.32 248.77 422.14 247.91 421.68 245.54 422.39 244.6 423.96 244.07 424.37 243.23 424.33 242.05 424.83 240.98 424.33 238.42 423.23 237.9 422.08 237.98 421.75 238.36 419.92 238.25 418.6 238.32 417.38 239.06 416.49 238.6 415.13 238.24 414.61 238.45 414.12 238.05 412.3 238.5 407.12 233.71 405.9 233.25 403.77 232.9 401.86 233.31 401.39 233.73 399.77 233.31 398.06 233.32 398.06 233.32 397 233.9 395.58 233.28 394.4 233.17 392.5 232.42 390.94 231.21 390.84 230.25 391.27 229.47 391.14 228.55 391.77 227.09 391.39 225.85 390.15 224.1 387.36 219.37 386.21 219.37 385.35 219.49 385.47 218.82 386.41 216.63 386.53 214.41 386.06 213.27 386.4 211.92 388.41 208.83 389.43 207.88 390.44 206.31 391.58 205.98 392.18 205.2 394.07 202.05 397.43 200.62 397.74 200.37 398.48 200.36 398.66 200.13 399.4 199.54 399.66 198.76 398.86 197.78 396.42 196.56 395.46 196.55 395.15 197.14 395.07 197.76 394.07 197.94 393.55 198.38 392.45 198.28 391.5 198.7 390.99 199.34 391.59 199.99 391.18 200.63 389.48 201.55 387.23 203.02 385.73 204.17 383.97 204.61 382.01 204.82 379.84 204.65 378.52 205.41 378.64 206.23 379.11 207.27 379 208.33 378.02 209.27 377.35 209.01 377.55 207.94 377.39 207.62 378.34 207.24 376.95 207.15 375.24 206.48 374.38 206.56 372.22 207.98 371.72 208.9 370.29 210.68 368.63 214.1 368.42 215.07 368.94 214.81 369.44 215.32 369.67 216.42 369.32 217.63 368.38 218.14 367.14 218.28 366.19 218.84 364.52 220.57 363.82 220.98 362.59 222.94 361.82 223.06 360.72 223.15 361.15 224.38 362.34 225.64 362.39 227.27 361.77 228.73 361.05 228.71 359.82 227.74 359.94 227.25 360.35 226.48 359.33 226.08 358.86 224.84 357.35 223.6 357.1 224.77 357.35 225.63 358 227.27 357.1 229.01 356.7 230.64 355.9 231.31 355.25 231.38 354.45 233.42 354.74 233.66 355.08 235.19 355.25 236.71 356.62 238.28 357.13 238.21 357.76 237.85 358.15 238.44 358.36 239.9 357.58 240.84 357.57 241.42 358.39 242.26 358.45 244.12 357.61 244.8 357.11 245.78 357.65 245.97 358.22 247.18 358.13 249.43 358.35 252.53 357.47 253.64 357.33 254.59 358.16 255.67 359.32 255.12 359.18 255.87 359.88 256.81 360.58 256.72 360.67 257.34 360.01 258.22 359.49 259.73 357.08 262.3 356.45 263.72 354.64 265.6 352.17 266.23 350.3 267.74 348.56 270.58 348.35 272.81 348.09 274.03 350.05 274.71 352.29 276.13"/>
        <polygon class="cls-13" points="341.62 302.95 340.45 304.07 339.77 305.28 339.86 305.76 340.29 306.27 341.05 306.01 341.52 305.01 341.4 304.18 341.73 303.29 341.62 302.95"/>
        <polygon class="cls-13" points="342.32 310.37 340.96 311.14 339.89 312.42 340.13 313.71 341.47 313.71 342.94 312.99 343.59 313.98 345.62 314.34 346.84 314.79 348.85 317.45 349.71 317.42 350.91 316.09 355.74 305.18 356.67 304.28 363.41 301.8 366.22 299.69 370.68 295.32 372.38 290.9 373.56 290.79 373.83 290.18 374.11 288.63 373.92 287.38 372.47 284.83 372.49 284.13 372.15 283.15 372.15 283.15 372 283.06 371.08 282.59 370.76 281.73 369.7 281.19 367.68 280.55 367.22 280.55 366.27 281.35 366.39 282.72 365.59 283.49 363.44 283.08 362.63 282.55 360.26 281.5 358.21 281.4 357.92 280.54 358.12 279.55 356.51 277.96 355.33 277.98 352.29 276.13 350.05 274.71 348.09 274.03 347.77 275.61 345.85 275.77 342.75 278.09 341.12 278.24 339.42 279.16 340.34 280.67 340.47 281.62 341.07 282.57 340.75 284.4 338.34 287.18 338.19 288.34 338.79 289.08 337.6 290.95 336.17 291.19 335.07 292.86 335.58 293.91 336.13 295.26 336.02 296.32 336.33 298.28 335.65 299.55 335 300.2 335.8 301.18 337.26 301.7 338.65 303.05 339.78 303.73 340.29 303.33 340.81 301.73 341.22 300.9 342.15 299.91 342.23 301.06 342.41 302.06 342.63 301.43 342.5 300.38 342.93 300.46 343.42 302.17 343.15 304.05 343.37 305.05 342.76 306.76 341.07 308.27 341.69 308.57 342.32 310.37"/>
        <polygon class="cls-11" points="416.49 406.73 417.36 406.89 418.62 406.03 419.07 404.91 417.83 403.8 418.23 402.63 418.86 401.51 419.8 401.69 419.61 400.86 418.79 400.74 418.19 400.13 419.12 397.94 420.58 396.89 421.86 395.07 421.95 393.48 419.89 389.14 420.52 388.05 420.32 386.38 419.87 385.53 419.53 384.15 420.32 383.21 420.72 380.9 420.39 376.63 419.7 374.78 420.44 372.65 420.24 368.04 421.29 366.18 421.21 365.22 414.78 356.66 414.78 356.66 414.58 356.57 413.91 356.28 413.18 356.4 411.75 356.55 410.49 356.95 409.17 357.22 408.33 356.47 408.21 354.91 407.72 351 407.69 348.62 408.15 348.09 408.41 346.61 407.72 345.92 405.38 347.37 402.65 350.04 399.26 349.93 396.4 349.92 395.91 348.06 394.4 346 392.42 345.73 388.31 346.2 389.92 344.04 386.48 338.87 384.6 337.1 384.9 336.09 384.38 335 384.87 333.73 385.06 332.24 384.6 331.34 385.25 330.6 385.3 329.25 387.13 327.99 388.09 328.15 389.16 327.06 388.5 325.89 387.8 323.6 389.56 321.72 389.24 320.67 389.88 319.65 389.63 317.92 390.8 317.12 392.36 316.35 393.7 314.9 394.47 314.64 395.3 313.75 398.68 312.92 403.19 311.28 403.63 310.21 404.21 310.43 405.51 310.38 406.03 310.22 407.55 311.14 407.42 311.57 408.88 311.91 409.42 310.93 408.87 308.84 407.82 307.76 406.15 307.97 404.67 308.16 404.4 307.35 408.48 299.92 408.35 299.01 407.07 299.49 406.37 298.59 404.86 297.93 404.09 298 403.54 297.25 402.34 297.29 400.07 298.37 398.46 297.66 396.63 297.38 394.55 298.41 393.9 299.01 392.27 299.11 391.11 298.86 389.73 299.24 388.46 298.76 388.05 297.81 388.46 297.13 387.83 295.46 386.7 294.98 386.22 294.85 386.22 293.26 384.81 291.34 381.61 290.39 380.74 290.42 379.57 288.39 379.39 287.15 377.74 285.33 377.34 284.62 375.84 284.34 373.42 283.84 372.63 283.1 372.15 283.15 372.15 283.15 372.49 284.13 372.47 284.83 373.92 287.38 374.11 288.63 373.83 290.18 373.56 290.79 372.38 290.9 370.68 295.32 366.22 299.69 363.41 301.8 356.67 304.28 355.74 305.18 350.91 316.09 349.71 317.42 348.85 317.45 346.84 314.79 345.62 314.34 343.59 313.98 342.94 312.99 341.47 313.71 340.13 313.71 339.89 312.42 340.96 311.14 342.32 310.37 341.69 308.57 341.07 308.27 340.98 308.35 337.77 309.89 336.61 311.04 334.38 313.37 333.96 315.07 333.47 316.37 333.64 317 334.72 317.82 334.9 318.78 334.1 319.38 334.12 320.1 335.46 321.21 336.53 323.04 336.43 324.35 335.42 324.43 334.38 324.94 334.03 325.97 335.17 326.98 336.53 327.47 338.55 329.07 340.38 329.26 343.18 330.99 344.53 331.28 344.9 332.37 346.46 334.43 346.71 336.25 347.52 337.56 350.25 338.86 351.52 340.79 351.97 342.7 352.78 343.96 353.09 346.12 354.05 347.58 355.13 348.17 356.4 350.28 356.69 351.86 356.32 352.39 357.45 354.66 359.65 357.23 360.51 358.59 360.21 359.7 360.48 360.62 361.36 360.87 363.68 362.81 364.29 363.99 364.6 365.85 365.24 366.65 366.99 367.22 367.38 368.79 369.4 371.79 369.93 373.31 372.24 376.35 372.33 377.6 371.76 377.86 371.12 377.45 371.1 378.12 371.37 379.22 371.41 380.22 372.17 380.06 373.05 380.6 373.27 381.46 373.01 382.14 375.26 383.6 377.41 384.58 377.54 385.49 378.58 386.71 379.83 386.8 380.36 387.43 380.88 388.52 381.74 389.04 383.75 388.88 384.37 388.07 384 389.24 385.2 390.5 387.38 391.56 388.37 392.41 388.57 393.4 389.6 394.04 391.23 394.56 391.8 394.33 392.94 394.6 395.56 396.08 397.34 396.7 398.59 396.72 399.2 397.02 399.59 397.9 401.46 399.16 402.49 399.75 403.98 401.05 404.88 401.39 405.34 402.21 405.26 402.91 405.32 403.85 406.84 404.11 408.38 404.69 410.27 406.51 412.02 408.03 413.19 408.36 413.45 408.58 415.08 407.73 416.49 406.73"/>
        <polygon class="cls-13" points="421.21 365.22 421.29 366.18 420.24 368.04 420.44 372.65 419.7 374.78 420.39 376.63 420.72 380.9 420.32 383.21 419.53 384.15 419.87 385.53 420.32 386.38 420.52 388.05 419.89 389.14 421.95 393.48 421.86 395.07 420.58 396.89 419.12 397.94 418.19 400.13 418.79 400.74 419.61 400.86 419.8 401.69 420.12 401.75 420.31 403.43 421.7 404.58 422.44 405.23 422.67 406.47 422.43 407.78 422.69 408.48 423.1 410.73 424.21 412.19 427.31 414.53 427.6 415.56 426.89 417.5 427.42 418.83 425.9 422.44 426.91 423.76 430.28 426.71 435.61 439.72 437.44 439.66 437.89 438.78 438.94 438.55 438.95 438.56 439.77 437.47 440.84 435.02 443.35 432.25 445.06 431.62 446.74 433 448.65 432.74 449.8 432.42 451.25 432.75 453.64 432.19 454.89 432.35 455.24 434.07 456.29 436.82 456.8 437.57 457.35 436.78 457.21 435.54 457.94 434.26 457.89 433.01 458.9 431.44 462.74 431.31 466.11 431.3 467.4 432.43 467.87 430.18 469.53 426.47 469.61 424.7 469.31 422.88 468.6 421.85 470.61 418.66 471.39 416.14 471.35 415.03 472.86 413.97 481.89 411.16 489.48 411.01 494.01 414.12 495.07 414.28 495.84 415.09 496.69 413.84 496.46 412.89 499.51 406.24 499.22 402.99 495.55 396.95 492.07 396.3 492.17 393.6 491.45 389.39 479.73 389.59 479.82 386.51 477.18 382.36 477.9 380.8 477.24 378.32 477.52 375.24 476.9 374.11 474.16 372.65 470.33 373.17 468.57 372.26 467.22 371.93 466.77 370.02 464.92 369.41 462.01 368.54 460.95 368.67 458.47 366.16 456.75 366.69 454.37 364.47 451.6 365.23 451.05 365.92 449.57 364.63 447.41 363.35 445.85 362.64 445.3 360.63 443.74 360.01 442.5 357.55 443.03 356.19 442.07 353.14 443.06 351.19 442.21 348.81 442.36 347.26 441.57 346.62 440.06 347.63 438.68 346.71 437.24 346.76 435.16 347.89 432.97 348.35 429.86 350.47 428.81 353.48 426.91 354.12 425.27 354.17 423.87 355.38 422.82 355.41 420.93 356.54 419 356.5 414.78 356.66 414.78 356.66 421.21 365.22"/>
        <polygon class="cls-11" points="494.01 414.12 489.48 411.01 481.89 411.16 472.86 413.97 471.35 415.03 471.39 416.14 470.61 418.66 468.6 421.85 469.31 422.88 469.61 424.7 469.53 426.47 467.87 430.18 467.4 432.43 467.59 432.6 469.19 434.18 470.45 434.43 472.18 437.35 476.44 441.34 478.09 441.48 479.77 442.87 480.88 444.56 484.95 445.39 487.58 446.64 488.78 446.87 491.8 449.31 494.82 450.7 498.81 451.09 500.46 452.81 502.48 454.38 503.3 455.98 502.91 457.44 501.96 459.06 500.84 459.96 500.21 461.08 500.63 462.46 499.76 465.08 497.77 467.26 497.43 468.76 498.59 468.68 503.26 467.8 507.28 468.87 510.12 470.46 511.63 469.73 512.49 469.7 513.19 470.4 514.48 468.63 515.09 468.27 516.54 468.65 517.69 467.13 518.16 465.39 521.11 463.17 521.5 461.72 522.35 460.06 523.52 459.01 523.58 456.56 523.32 455.9 523.4 454.02 523.77 453.76 523.81 452.96 523.95 452.26 523.92 451.42 524.09 451.18 524.34 450.44 524.3 444.17 524.91 443.08 523.94 442.92 522.91 442.03 521.4 441.51 518.81 443.04 517.6 442.74 516.36 440.24 514.45 433.06 513.91 431.54 512.65 431.2 510.98 430.1 507.95 431.45 506.01 430.84 502.94 431.13 501.86 430.69 499.37 430.97 498.84 429.54 499.28 428.08 498.84 426.46 499.38 422.4 497.97 420.44 497.8 418.42 496.13 417.22 496.46 415.77 495.07 414.28 494.01 414.12"/>
        <polygon class="cls-13" points="537.66 513.81 537.47 513.49 537.22 513.01 536.53 511.01 537.72 509.25 537.94 507.36 536.42 506.36 534.71 503.97 533.11 502.1 530.48 501.04 529.2 501.36 529.04 499.55 527.45 498.06 525.86 497.78 524.01 497.02 522.39 494.58 521.72 494.5 520.47 495.95 519.7 495.97 518.03 493.43 517.16 491.63 515.8 491.1 514.19 489.05 512.77 488.18 509.45 489.3 508.72 488.94 507.72 488.94 507.62 489.31 507.05 490.82 505.9 492.39 506.4 494.49 505.91 495.51 506.33 496.6 506.19 499.59 505.74 500.65 505.93 501.8 505.16 503.27 505.89 505.31 505.44 506.04 505.88 509 506.52 511.15 506.13 512.14 505.18 513.08 504.94 513.53 504.94 513.66 505.08 516.61 506.07 518.94 508.11 521.59 508.79 521.72 510.7 523.5 511.69 523.72 514.61 523.33 516.35 523.39 517.97 524.44 518.99 524.58 520.02 524.62 520.37 524.94 520.19 525.44 520.19 526.15 521.54 526.16 522.95 525.22 524.82 524.82 526.15 525.24 527.01 525.71 527.7 525.54 528.7 525.9 529.69 525.96 530.32 525.46 530.46 524.66 530.79 524.41 531.36 524.87 533.8 523.87 535.35 521.97 535.76 521.25 535.51 521.04 536.13 519.98 537.37 518.75 537.31 516.88 538.32 515.6 538.86 515.12 538.48 514.82 537.66 513.81"/>
        <g>
          <polygon class="cls-13" points="529.82 462.26 529.45 459.68 529.47 457.42 528.13 454.64 527.99 453.29 524.9 452.96 523.77 453.76 523.4 454.02 523.32 455.9 523.58 456.56 523.52 459.01 522.35 460.06 521.5 461.72 521.11 463.17 518.16 465.39 517.69 467.13 516.54 468.65 515.09 468.27 514.48 468.63 513.19 470.4 512.49 469.7 511.63 469.73 510.12 470.46 507.28 468.87 503.26 467.8 498.59 468.68 497.43 468.76 497.77 467.26 499.76 465.08 500.63 462.46 500.21 461.08 500.84 459.96 501.96 459.06 502.91 457.44 503.3 455.98 502.48 454.38 500.46 452.81 498.81 451.09 494.82 450.7 491.8 449.31 488.78 446.87 487.58 446.64 484.95 445.39 480.88 444.56 479.77 442.87 478.09 441.48 476.44 441.34 472.18 437.35 470.45 434.43 469.19 434.18 467.59 432.6 467.41 432.43 466.11 431.3 462.74 431.31 458.9 431.44 457.89 433.01 457.94 434.26 457.21 435.54 457.35 436.78 456.8 437.57 456.29 436.82 455.24 434.07 454.89 432.35 453.64 432.19 451.25 432.75 449.8 432.42 448.65 432.74 446.74 433 445.06 431.62 443.35 432.25 440.84 435.02 439.77 437.47 438.95 438.56 439.88 440.33 438.41 447.91 430.58 452.4 430.11 454.14 431.54 455.25 431.92 456.43 431.15 457.9 431.61 460.14 433.11 461.92 433.16 463.6 431.99 464.55 431.75 465.85 432.59 466.49 433.1 467.44 433.26 469.31 433.9 469.96 432.93 471.19 431.66 471.9 429.99 473.73 428.37 478.25 427.18 479.97 426.86 484.94 425.98 485.88 426.31 490.04 427.58 492.2 427.59 495.14 426.57 496.52 426.63 499.82 424.79 500.75 424.54 503.3 425.32 506.54 426.57 508.13 426.86 509.37 428.47 511.77 429.59 513.75 430.54 517.6 431.53 518.48 432.27 523.6 432.04 526.78 430.76 527.25 429.75 529.97 430.22 532.6 428.76 534.9 429.7 535.63 431.11 537.85 431.53 540.23 430 541.92 428.7 544.75 428.9 549.35 428.97 551.26 428.57 553.87 432.81 561.56 431.89 562.74 430.15 563.66 429.88 567.32 427.54 570.66 427.91 572.96 429.23 574.98 428.96 579.98 429.34 584.33 430.02 587.43 431.29 588.02 432.05 589.33 431.68 591.08 430.27 592.08 430.73 597.16 431.42 599.1 433.56 599.75 433.49 602.01 433.64 603.93 434.98 606.57 435.71 609.62 436.97 609.81 437.95 609.08 438.86 609.42 439.01 611.02 437.6 612.78 434.59 612.86 434.15 614 434.99 614.78 435.41 614.37 436.81 614.33 439.07 615.8 440.52 618.2 440.62 619.72 438.96 621.27 438.89 622.57 439.81 624.3 440.44 627.96 441.3 630.78 440.14 632.04 439.97 633.59 441.41 636.7 440.11 638.28 439.69 641.32 440.63 643.88 441.42 647.36 440.86 650.79 438.64 653.26 437.32 655.32 436.65 661.3 437.11 663.42 440.24 669.16 441.61 669.15 442.72 667.81 444.8 666.7 446.19 666.6 446.25 668.37 446.81 672.19 448.29 673.45 449.04 675.78 450.19 678.52 453.41 678.65 454.53 679.25 459.3 678.27 467.91 677.98 468.38 678.52 469.83 678.69 471.71 680.29 473.28 680.95 473.86 680.98 473.68 679.73 472.3 678.72 470 677.41 469.71 676.12 468.53 675.06 467.77 675.32 467.03 674.63 468.01 674.02 468.22 673.14 467.83 672.96 467.8 672.01 466.6 668.98 465.23 667 464.93 665.05 465.63 662.81 467.21 661.42 467.75 660.34 467.25 659.84 467.21 658.63 466.56 657.84 467.44 658.28 468.34 659.22 469.36 659.52 470.71 658.32 470.86 657.26 472.02 655.84 472.37 654.76 471.87 652.77 470.85 652.55 470.25 653.05 470.5 652.18 471.62 651.04 472.05 649.59 472.29 648.1 473.78 646.55 475.07 646.42 475.49 644.86 476.41 643.53 477.08 643.28 477.28 642.21 478.32 641.65 479.33 640.42 479.08 639.95 479.19 639.07 479.99 638.48 478.75 637.41 477.99 637.43 479.1 636.3 479.07 635.24 478.25 633.68 478.22 632.97 478.69 632.42 478.23 631.72 477.16 631.42 476.59 631.72 475.4 631.71 473.19 631.98 470.48 629.62 468.65 628.14 467.73 627.88 466.35 626.83 464.83 624.48 464.79 623.04 463.93 621.96 464 621.15 465.45 620.03 465.94 618.87 466.37 617.27 467.22 617.05 468.29 615.72 469.77 615.48 470.97 614.1 472.88 613.75 474.08 613.89 476.18 613.44 476.26 612.86 475.61 612.26 474.3 611.83 474.47 611.24 474.68 610.23 476.46 608.97 476.12 608.6 476.71 607.66 476.74 607.04 475.1 605.36 475.31 604.54 475.28 603.63 474.78 602.92 474.29 601.26 475.31 600.12 475.79 598.82 475.3 598.3 476.03 597.42 478.07 596.57 479.46 595.18 479.39 594.51 477.41 594.01 476.06 594 475.45 593.06 475.67 592.33 476.84 591.38 478.6 590.65 480.25 591.46 480.28 592.23 480.06 592.81 480.63 594.09 481.6 594.39 484.14 592.82 484.48 591.52 483.81 590.15 482.91 589.12 483.43 588.86 483.68 587.66 482.72 586.14 481.71 586.09 480.44 586.99 479.43 587.08 478.83 587.62 479.22 587.9 480.33 588.15 480.26 588.87 478.03 589.61 477.01 589.27 477.61 588.62 478.37 588.16 477.63 587.8 475.63 588.02 474.06 587.2 473.59 586.01 473.53 582.85 472.93 580.47 471.44 579.22 471.41 576.87 472.71 575.48 473.72 575.4 473.31 576.18 473.7 576.41 475.19 576.22 477.76 576.95 480.17 578.83 482.2 579.25 485.94 579.08 488.14 577.47 487.94 577.04 489.43 575.89 489.68 574.63 489.31 573.69 489.67 572.95 490.02 571.84 488.86 571.54 487.99 570.18 487.96 568.98 488.41 568.05 488.1 567.44 489.26 566.2 489.2 565.77 489.67 565.61 489.83 564.74 489.56 563.59 488.45 563.53 488.57 562.81 487.92 561.92 487.84 559.57 487.47 558.82 487.44 557.72 487.86 557.26 488.46 558.01 489.37 557.98 491.26 558.54 492.77 559.45 494.07 559.41 496.12 558.96 498.34 559.22 501.11 558.98 505.73 557.64 509.75 555.82 509.91 554.95 510.46 555.65 513.26 554.6 516.83 552.22 517.31 550.91 516.88 549.39 517.49 547.31 517.95 546.86 518.17 547.57 518.62 546.88 519.03 544.76 520.26 542.6 520.5 541.29 520.41 538.47 520.09 537.38 519.74 537.34 518.91 538.28 517.47 538.28 515.71 537.19 514.64 535.3 514.7 534.34 516.22 531.02 516.27 529.68 515.48 528.74 511.93 526.18 509.11 525.21 506.26 523.15 505.55 521.96 505.97 521.52 505.88 520.37 505.01 519.52 505.25 518.77 504.69 516.38 504.94 513.65 504.94 513.66 504.94 513.53 505.18 513.08 506.13 512.14 506.52 511.15 505.88 509 505.44 506.04 505.89 505.31 505.16 503.27 505.93 501.8 505.74 500.65 506.19 499.59 506.33 496.6 505.91 495.51 506.4 494.49 505.9 492.39 507.05 490.82 507.62 489.31 507.72 488.94 507.88 488.34 509.1 487.44 509.08 486.81 510.12 484.95 511.04 483.91 512.31 481.43 512.81 480.59 513.76 480.27 513.66 478.79 514.01 477.76 516.03 475.11 516.85 475.22 517.76 474.9 517.8 473.27 518.6 472.95 521.03 470.81 522.08 470.49 522.57 469.61 525.25 467.69 525.69 467.92 526.62 467.08 526.84 466.54 528.44 465.62 529.79 465.62 530.14 464.65 529.82 462.26"/>
          <polygon class="cls-13" points="497.24 700.99 494.81 701.65 493.41 701.55 491.74 700.11 489.8 699.6 489.15 698.91 483.91 697.4 482.46 696.97 482.31 695.44 480.59 694.1 478.85 693.92 478.01 691.74 477.25 690.46 475.63 690.8 474.17 690.31 477.7 702.62 478.16 702.71 480.53 702.18 482.35 702.12 484.12 701.72 483.92 702.16 482.83 702.42 481.08 703.11 477.91 703.33 478.62 705.83 479.34 705.81 481.57 704.96 484.36 705.11 486.27 704.9 489.02 705.1 490.53 705.87 492.08 706.34 493.56 705.91 494.72 704.67 494.96 703.51 496.39 703.03 497.03 703.54 498.68 702.53 498.4 701.38 497.24 700.99"/>
          <polygon class="cls-13" points="475.5 688.46 476.24 689.15 475.47 685.91 473.24 683.83 472.18 682.38 471.92 682.49 474.08 689.99 474.51 688.92 475.5 688.46"/>
        </g>
        <g>
          <polygon class="cls-13" points="505.05 701.99 503.25 702.15 502.46 702.68 503.54 703.58 504.98 702.6 506.31 702.21 507.48 701.04 505.93 701.02 505.05 701.99"/>
          <path class="cls-13" d="M420.33,615.97l.22-.54,1.67-.39.6-.7-2.78.05-.3,1.06c0,.05.6.51.6.51Z"/>
          <polygon class="cls-13" points="422.58 655.8 423.65 653.95 424.41 653.64 423.87 652.58 422.31 651.93 422.03 651.55 421.33 652.26 422.1 654.49 422.07 655.51 422.58 655.8"/>
          <polygon class="cls-13" points="421.78 649.78 421.31 648.49 420.36 648.12 419.85 647.99 419.95 649.79 420.69 650.32 420.81 650.9 421.57 650.75 421.78 649.78"/>
          <polygon class="cls-13" points="422.55 659.22 423.2 659.94 422.99 660.7 423.7 661.4 424.53 660.77 424.8 659.65 423.97 658.38 422.55 659.22"/>
          <polygon class="cls-13" points="418.43 610.86 418.67 611.49 419.38 611.65 420.4 611.21 420.53 610.64 419.85 609.95 418.86 609.94 418.43 610.86"/>
          <polygon class="cls-13" points="423.24 613.9 424.2 613.97 423.77 612.49 423.24 613.9"/>
          <polygon class="cls-13" points="422.79 623.47 422.23 622.43 421.07 622.24 420.66 621.67 420.16 622.46 421.46 623.8 422.79 623.47"/>
          <polygon class="cls-13" points="426.31 668.82 426.96 668.32 427.81 667.67 426.28 667.72 426.31 668.82"/>
          <polygon class="cls-13" points="420.72 609.87 420.94 609.17 420.35 608.78 420.1 609.15 420.72 609.87"/>
          <polygon class="cls-13" points="433.4 669.29 432.21 667.5 431.36 667.48 430.45 666.79 429.9 666.83 429.84 667.32 431 668.87 432.22 669.29 433.9 670.7 433.4 669.29"/>
          <polygon class="cls-13" points="423.14 616.74 422.19 616.87 420.71 617.4 421.36 617.95 423.08 617.84 423.14 616.74"/>
          <polygon class="cls-13" points="426.94 661.84 427.56 661.39 427.84 660.04 428.27 661.17 428.56 662.61 429.29 663.01 430.17 662.26 430.16 660.25 429.38 658.44 429.65 657.96 429.37 655.52 428.56 654.1 427.79 651.2 426.91 650.61 425.03 650.67 424.34 651.31 424.43 652.8 425.23 653.59 424.88 654.75 425.1 655.47 425.67 655.4 426.18 654.62 426.11 655.53 425.18 656.38 423.84 656.66 425.28 659.25 425.76 660.82 426.94 661.84"/>
          <polygon class="cls-13" points="430.51 669.39 429.87 669.58 430.26 671.25 431.74 672.92 432.87 672.93 433.37 672.04 431.96 670.11 430.51 669.39"/>
          <polygon class="cls-13" points="423.49 622.78 424.18 621.89 422.84 621.99 423.49 622.78"/>
          <polygon class="cls-13" points="419.1 623.6 419.82 623.62 419.59 622.47 419.01 622.54 419.1 623.6"/>
          <polygon class="cls-13" points="420.63 613.32 419.91 612.05 418.57 612.04 418.88 612.85 418.82 613.9 419.63 613.54 420.63 613.32"/>
          <polygon class="cls-13" points="415.35 605.91 416.06 606.56 417.7 605.88 416.84 605.28 415.83 605.31 415.35 605.91"/>
          <polygon class="cls-13" points="419.51 606.71 420.28 607.41 421.57 606.52 419.8 606.17 419.51 606.71"/>
          <polygon class="cls-13" points="414.46 615.54 416.16 616.21 416.57 615.37 415.82 614.64 414.58 614.68 414.46 615.54"/>
          <polygon class="cls-13" points="416.81 613.95 417.34 614.45 418.16 613.79 417.44 613.12 416.81 613.95"/>
          <polygon class="cls-13" points="421.92 607.5 422.81 608.19 422.93 608.98 423.78 608.47 423.56 607.15 422.57 606.9 421.92 607.5"/>
          <polygon class="cls-13" points="422.79 613.3 422.73 611.56 421.45 612.09 422.79 613.3"/>
          <polygon class="cls-13" points="422.16 620.33 421.06 620.46 422.15 621.57 422.16 620.33"/>
          <polygon class="cls-13" points="424.9 649.62 426.19 649.43 427.59 649.53 426.85 647.35 425.76 646.42 425.62 644.99 424.35 644.5 424.14 642.39 423.1 643.05 421.96 643.23 421.45 644.02 422.74 645.03 424.4 647.38 424.67 646.88 425.31 647.4 424.52 648.14 424.9 649.62"/>
          <polygon class="cls-13" points="419.94 644.49 419.55 644.96 419.53 645.75 419.89 647.31 421.25 647.53 422.11 648.18 421.98 648.71 422.58 650.65 423.66 651.25 424.07 650.52 424.09 649.07 422.88 647.4 421.06 644.77 419.94 644.49"/>
          <polygon class="cls-13" points="429.32 669.87 429.28 668.72 428.88 668.02 428.58 668.99 429 670.36 429.32 669.87"/>
          <path class="cls-13" d="M441.01,695.67l-.56.47,1.43.36s-.91-.79-.87-.83Z"/>
          <polygon class="cls-13" points="437.78 678.88 437.01 677.32 436.45 677.36 436.54 679.35 437.32 680.17 438.93 680.87 439.33 680.8 438.95 680.07 437.78 678.88"/>
          <polygon class="cls-13" points="455.38 698.9 454.89 697.93 453.94 697.57 452.58 698.05 452.25 697.31 451.42 696.98 449.52 695.71 448.11 695.83 446.95 696.36 446.29 696.07 445.6 695.44 444.56 695.57 444.17 696.11 444.29 696.81 445.56 697.44 446.08 698.6 447.32 698.85 448.69 700.37 449.68 700.5 451.14 700.17 451.85 700.58 452.02 701.46 452.87 702.27 453.79 701.84 453.41 701.22 454.39 700.23 454.29 699.55 453.75 699.17 454.39 698.86 455.38 698.9"/>
          <polygon class="cls-13" points="439.33 682.78 439.03 681.75 438.13 681.57 437.74 681.89 438.78 682.87 439.33 682.78"/>
          <polygon class="cls-13" points="450.04 701.17 450.38 701.38 450.95 701.76 451.44 701.29 450.72 700.64 450.04 701.17"/>
          <polygon class="cls-13" points="446.51 695.41 447.81 695.37 448.01 694.95 447.63 694.45 447.07 694.4 445.75 693.51 445.15 692.9 443.61 692.95 442.54 692.41 441.39 692.01 440.28 692 439.36 691.48 437.91 689.89 437.12 689.41 436.78 690.04 437.13 691.31 438.03 692.89 439.41 693.04 441.28 693.78 441.96 694.72 442.97 694.68 443.49 694.35 445.29 694.97 446.51 695.41"/>
          <polygon class="cls-13" points="434.8 682.5 434.89 683.79 434.43 684.32 434.63 684.76 435.25 684.41 435.8 682.9 435.44 682.26 434.8 682.5"/>
          <polygon class="cls-13" points="437.31 681.36 437 680.61 435.63 679.97 435.92 680.73 436.95 681.42 437.31 681.36"/>
          <polygon class="cls-13" points="437.49 683.09 437.99 683.89 439.51 685.4 440.01 685.19 440.02 684.2 437.83 682.61 437.49 683.09"/>
          <polygon class="cls-13" points="438.77 686.17 437.77 686.59 438.29 686.98 439.56 686.87 439.8 687.56 440.49 688.12 441.08 688.41 441.71 687.3 441.26 686.04 439.69 686.33 438.77 686.17"/>
          <path class="cls-13" d="M486.18,715.21l.59.39.89-.94-.65.02s-.8.61-.82.53Z"/>
          <polygon class="cls-13" points="455.37 701.4 454.63 702.31 454.68 703.18 455.53 702.87 456.13 701.86 456.38 701.47 455.74 701.22 455.37 701.4"/>
          <polygon class="cls-13" points="488.17 712.05 488.55 712.75 487.84 713.74 488.48 714.42 489.25 714.44 489.27 713.34 489.04 712.33 488.17 712.05"/>
          <polygon class="cls-13" points="477.15 703.39 475.88 702.61 473.54 701.82 470.16 700.93 468.6 700.45 468.53 700.98 468.98 701.54 468.47 701.98 467.91 701.77 465.62 700.92 464.37 700.31 464.07 700.63 464.6 701.24 467.52 702.51 467.71 703.02 466.87 703.04 466.61 703.17 466.58 703.73 466.08 703.84 465.67 703.08 464.27 702.29 463.85 702.66 464 703.52 463.21 703.69 461.01 703.94 460.53 704.24 461.03 704.7 460.85 705.07 459.76 704.89 458.5 705.27 458.74 706.01 460.22 706.22 461.39 706.14 461.73 705.5 462.08 705.22 462.89 705.56 464.19 706.36 464.83 706.05 465.23 706.52 465.25 707.27 466.1 707.74 465.15 708.25 464.62 709.46 465.39 710.29 466.24 710.24 467.03 710.53 468.17 711.61 468.96 711.58 469.1 711.14 468.28 710.57 466.96 709.84 466.76 709.16 467.09 709.08 468.07 709.49 468.82 708.9 468.99 708.32 468.1 708.16 467.36 707.69 470.15 706.5 471.28 705.89 476.6 707.05 477.26 706.6 477.09 705.88 478.62 705.83 477.91 703.33 477.15 703.39"/>
          <polygon class="cls-13" points="464.51 695.07 464.2 693.69 463.39 693.23 463.24 694.56 462.83 695.83 463.47 696.94 463.04 697.75 463.07 698.73 464.27 699.37 465.55 699.66 466.02 700.09 466.49 699.47 465.01 698.43 465.84 697.54 465.24 696.81 465.37 696.32 464.51 695.07"/>
          <polygon class="cls-13" points="435.35 680.86 435.28 679.68 434.59 679.03 434.01 678.45 433.61 678.73 433.37 679.41 433.64 680.39 433.9 680.74 434.04 681.3 434.59 681.42 435.35 680.86"/>
          <polygon class="cls-13" points="487.1 709.44 488.08 708.74 488.73 708.04 488.04 707.4 487.76 706.25 486.5 705.95 484.59 706.07 482.96 706.27 480.89 706.14 479.19 706.96 476 707.8 474.46 707.6 473.79 707.77 472.74 707.8 471.79 708.31 472.54 708.97 473.34 708.55 474.41 709.04 472.51 709.83 471.48 710.39 471.45 710.97 472.53 711.7 473.46 710.85 473.06 711.88 473.99 712.18 474.34 712.84 475.2 712.43 476.75 713.1 477.33 713.03 477.44 712.01 476.41 711.48 476.53 710.85 477.92 710.65 478.39 711.84 479.37 712.48 480.36 711.92 481.33 712.13 482.86 713.42 483.39 713.5 483.35 712.31 481.92 711.15 480.8 710.76 481.22 710.26 480.63 709.8 479.03 709.51 478.7 709.67 477.43 708.76 479 708.46 479.77 708.43 480.74 707.35 481.75 707.36 482.36 708.59 482.97 709.38 484.5 709.24 485.72 708.34 486.45 708.64 487.1 709.44"/>
          <polygon class="cls-13" points="461.86 709.52 462.76 710.29 463.49 709.42 462.93 708.97 461.86 709.52"/>
          <polygon class="cls-13" points="459.81 702.04 460.35 701.5 460.8 702.13 461.89 702.41 462.67 701.79 462.3 701.05 462.78 700.03 462.24 699.7 461.59 699.85 461.03 700.44 460.43 699.62 458.08 699.07 457.63 699.49 455.84 699.72 455.88 700.37 456.64 700.78 457.28 701.82 457.83 701.22 459.02 701.35 459.81 702.04"/>
          <polygon class="cls-13" points="463.05 707.48 462.12 707.05 461.81 707.86 462.25 708.28 463 708.23 463.05 707.48"/>
          <polygon class="cls-13" points="415.86 593.05 415.6 594.07 415.96 594.87 416.36 595.23 416.97 596.86 417.37 600.92 416.74 602.41 418.31 603.02 420.51 602.73 420.51 602.14 420.32 600.77 420.84 599.8 422.18 600.19 422.44 599.91 420.95 598.62 421.51 598.02 419.98 596.58 419.85 595.82 420.62 595.75 421.94 596.42 421.97 596.12 421.47 595.51 419.85 594.43 421.33 594.82 421.31 593.52 421 593.03 421.02 591.24 419.81 589.62 418.57 589.13 417.1 589.13 416.19 590.05 416.17 590.77 416.64 591.41 416.58 592.45 415.86 593.05"/>
          <polygon class="cls-13" points="431.57 678.12 431.85 678.63 432.19 678.91 431.66 679.41 431.33 680.09 431.73 681.07 432.38 681.48 433.18 681.61 432.47 680.6 433.13 680.07 433.13 678.81 432.63 677.97 431.57 678.12"/>
          <polygon class="cls-13" points="424.48 618.09 423.04 618.13 421.91 618.84 422.65 619.4 423.13 620.82 424.01 621.23 424.7 620.19 424.48 618.09"/>
          <polygon class="cls-13" points="424.85 610.25 425.2 610.91 426.54 610.77 425.36 609.89 424.85 610.25"/>
          <polygon class="cls-13" points="425.43 614.84 425.58 616.32 426.5 615.28 427.18 615.41 427.81 615.72 428.67 615.5 429.02 614.58 429.71 613.5 428.62 612.38 428.3 611.43 427.04 611.24 425.71 611.8 425.15 613.79 425.43 614.84"/>
          <polygon class="cls-13" points="422.7 593.13 423.88 594.05 424.33 593.31 423.64 592.67 422.7 593.13"/>
          <polygon class="cls-13" points="425.75 606.19 424.6 607.02 425.06 607.82 425.78 607.08 425.75 606.19"/>
          <polygon class="cls-13" points="432.73 675.92 432.86 675.5 433.89 675.42 433.91 674.69 432 673.51 431.16 673.6 430.22 672.8 429.38 673.04 430.09 674.12 429.49 675.49 428.93 676.09 429.55 676.51 431.38 676.09 432.73 675.92"/>
          <polygon class="cls-13" points="468.38 678.52 467.91 677.98 459.3 678.27 454.53 679.25 453.41 678.65 450.19 678.52 449.04 675.78 448.29 673.45 446.81 672.19 446.25 668.37 446.19 666.6 444.8 666.7 442.72 667.81 441.61 669.15 440.24 669.16 437.11 663.42 436.65 661.3 437.32 655.32 438.64 653.26 440.86 650.79 441.42 647.36 440.63 643.88 439.69 641.32 440.11 638.28 441.41 636.7 439.97 633.59 440.14 632.04 441.3 630.78 440.44 627.96 439.81 624.3 438.89 622.57 438.96 621.27 440.62 619.72 440.52 618.2 439.07 615.8 436.81 614.33 435.41 614.37 434.99 614.78 434.15 614 434.59 612.86 437.6 612.78 439.01 611.02 438.86 609.42 437.95 609.08 436.97 609.81 435.71 609.62 434.98 606.57 433.64 603.93 433.49 602.01 433.56 599.75 431.42 599.1 430.73 597.16 430.27 592.08 431.68 591.08 432.05 589.33 431.29 588.02 430.02 587.43 429.34 584.33 428.96 579.98 429.23 574.98 427.91 572.96 427.54 570.66 429.88 567.32 430.15 563.66 431.89 562.74 432.81 561.56 428.57 553.87 428.97 551.27 428.9 549.35 428.7 544.75 430 541.92 431.53 540.23 431.11 537.85 429.7 535.63 428.76 534.9 430.22 532.6 429.75 529.97 430.76 527.25 432.04 526.78 432.27 523.6 431.53 518.48 430.54 517.6 429.59 513.75 428.47 511.77 426.86 509.37 426.57 508.13 425.32 506.54 424.54 503.3 424.79 500.75 426.63 499.82 426.57 496.52 427.59 495.14 427.58 492.2 426.31 490.04 425.98 485.88 426.86 484.94 427.18 479.97 428.37 478.25 429.99 473.73 431.66 471.9 432.93 471.19 433.9 469.96 433.26 469.31 433.1 467.44 432.59 466.49 431.75 465.85 431.99 464.55 433.16 463.6 433.11 461.92 431.61 460.14 431.15 457.9 431.92 456.43 431.54 455.25 430.11 454.14 430.58 452.4 438.41 447.91 439.88 440.33 438.94 438.55 437.89 438.78 437.44 439.66 435.61 439.72 430.28 426.71 426.91 423.76 425.9 422.44 427.42 418.83 426.89 417.5 427.6 415.56 427.31 414.53 424.21 412.19 423.1 410.73 422.69 408.48 422.43 407.78 422.67 406.47 422.44 405.23 421.7 404.58 420.31 403.43 420.12 401.75 419.8 401.69 418.86 401.51 418.23 402.63 417.83 403.8 419.07 404.91 418.62 406.03 417.36 406.89 416.49 406.73 415.08 407.73 413.45 408.58 414.03 409.1 414.24 410.98 414.12 412.38 414.49 414.24 415.72 419.18 415.78 421.04 415.44 422.41 414.75 423.2 415.36 425.72 416.26 428.18 417.19 430.26 417.31 433.73 416.95 434.7 416.69 435.33 417.08 440.02 417.12 441.17 416.18 441.77 415.29 442.43 415.52 445.06 415.98 445.71 416.82 445.06 417.36 445.53 416.57 446.32 416.85 453.28 417.9 455.88 418.16 457.94 417.98 459.67 416.93 461.49 416.99 463.21 418.31 465.43 418.07 466.82 418.04 470.19 417.36 471.46 417.42 473.28 417.79 474.23 417.81 475.04 416.77 476.76 416.73 478.49 416.09 479.61 416.55 481.71 416.34 482.63 415.32 485.15 415.35 486.22 416.61 488.05 416.92 489.96 417.72 491.13 416.79 491.83 416.26 493.34 417.21 494.46 416.29 495.64 415.39 496.06 415.4 497.79 415.74 499.26 415.93 500.65 417.6 504.58 417.67 506.78 417.07 507.52 417.25 508.72 418.71 510.69 418.88 513.03 418.5 514.67 418.58 515.35 418.95 516.48 418.79 517.5 418.49 518.66 418.9 519.32 420.45 521.33 420.68 522.48 420 523.65 419.02 524.31 418.17 526.21 418.19 526.79 418.74 527.39 418.31 528.99 417.57 529.88 417.61 530.98 417.48 533.01 416.94 534.13 417.08 535.32 416.76 535.91 416.67 537.55 415.93 538.38 416.05 539.1 416.56 539.85 415.78 541.08 415.79 542.9 415.68 544.01 414.8 544.67 414.84 545.91 414.43 546.74 414.37 547.7 414.84 548.79 414.93 550.13 414.2 551.26 413.43 551.38 412.6 550.79 411.65 551.05 411.53 551.87 411.82 553.3 411.93 555.32 412.89 556.63 414.37 557.79 414.61 559.17 414.43 560.96 416.6 564.39 416.97 565.33 417.81 566.08 417.89 568.32 417.41 571.27 416.89 571.72 417.17 572.62 416.95 573.49 416.46 573.22 415.75 573.34 415.35 574.56 415.73 575.79 416.62 576.48 415.99 579.24 416.27 580.43 415.67 581.22 416.41 581.82 416.16 582.74 415.88 583.17 416.34 583.84 418.5 586.98 419.15 587.59 419.66 588.58 421.61 589.33 423.46 588.78 423.5 586.91 423.77 586.52 424.97 586.53 426.02 587.69 426.44 587.39 427.3 587.22 426.66 588.25 425.27 589.6 425.3 590.45 426.41 590.9 427.16 590.39 427.34 591.39 427.56 593.69 428.21 594.44 427.89 594.79 427.24 594.13 426.72 593.04 425.95 592.74 425.58 593.42 425.7 594.09 426.98 594.96 427.24 595.62 426.39 595.94 425.83 596.44 425.98 598.06 427.12 599.08 426.15 600.27 426.08 601.19 426.57 601.55 425.46 602.83 425.68 603.51 427.15 604.36 426.8 605.48 426.61 607.12 425.83 608.15 425.82 608.97 426.51 609.62 427.8 609.62 428.64 610.41 428.82 611.41 429.98 611.57 430.53 612.37 430.46 614.48 429.55 615.95 427.86 617.06 427.09 617.09 426.99 618.39 427.57 619.81 427.1 620.45 427.18 621.26 427.72 621.58 426.8 622.77 426.15 624.85 426.15 626.34 426.88 626.65 426.57 627.43 426.56 629.92 425.66 630.44 425.46 631.74 424.96 630.99 425.42 630.35 425.73 628.22 425.5 627.12 425.72 626.45 425.14 626.27 423.43 626.9 422.21 627.81 421.49 627.74 421.52 627.16 422.7 626.69 423.45 626.09 423.39 624.27 422.9 623.94 421.58 624.48 419.23 624.65 418.45 624.43 417.55 624.71 417.53 625.47 418.24 626.84 418.72 626.88 419.05 627.91 418.24 628.09 417.85 629.35 416.96 630.05 416.51 631.17 414.82 632.19 414.76 633.2 416.65 635.15 417.66 635.26 418.26 634.57 418.14 633.76 416.93 633.46 416.76 632.8 417.34 631.53 419.02 631.33 419.34 630.88 419.68 632.41 420.95 633.18 422.43 633.09 423.04 632.39 423.86 632.7 424.37 633.46 426.12 634.27 426.82 635.01 426.11 635.17 425.79 635.86 426.4 636.61 425.65 637.2 425.1 638.14 425.65 638.88 426.88 639.62 426.7 640 425.48 639.52 425.03 638.91 424.31 639.03 424.26 640.08 425.29 640.96 425.75 641.86 427.54 642.09 429.28 641.12 430.02 641.82 430.7 641.74 431.78 641.22 431.33 642.1 431.59 642.58 431.16 642.88 429.97 642.97 429.65 643.45 428.71 642.77 426.71 643.36 426.27 644.33 426.53 645 427.85 645.77 428.13 646.87 429.29 647.12 430.23 646.56 430.11 647.28 429.13 648.28 429.2 648.95 429.41 649.52 429.06 650.3 428.34 650.37 428.27 651.23 429.15 654.42 429.89 655.31 429.9 656.79 430.71 658.06 431.78 658.46 431.71 656.26 432.29 653.74 433.18 653.09 433.54 653.65 432.92 653.72 432.24 656.53 432.36 657.24 433.39 657.88 434.25 657.81 433.93 658.15 432.4 658.54 431.29 659.63 431.5 660.3 431.25 661.51 431.29 662.66 430.64 663.16 430.15 664.32 430.27 665.19 432.14 666.46 434.7 666.91 435.73 667.65 435.56 668.28 434.98 668.34 435.41 669.57 435.91 670.23 436.93 669 436.91 670.01 436.65 670.84 435.61 671.25 434.88 672.33 435.56 672.74 436.52 672.71 436.55 673.52 437.6 674.69 438.22 674.62 438.94 673.85 438.86 675.14 439.28 676.37 438.66 676.37 438.07 675.95 437.45 676.07 437.18 676.85 438.44 678.27 438.87 678.4 439.35 679.77 439.95 680.52 441.14 681.54 442.04 681.36 441.36 679.61 441.62 678.83 441.25 677.83 442.38 678.56 442.61 679.62 443.41 680.64 443.85 679.33 444.64 678.49 444.56 677.62 443.69 677.37 442.1 677.18 442.08 676.65 443.09 676.62 445.22 677.17 445.57 677.64 446.91 677.64 446.54 676.55 445.22 675.93 442.87 675.86 442.75 675.29 443.46 674.98 445.55 675.67 447.7 676.8 448.09 678.37 447.26 679.36 447.24 680.37 448.17 682.12 448.1 683.08 447.16 683.83 447.6 682.28 446.61 680.15 445.67 679.42 445.17 680.24 445.11 681.31 445.72 682.1 445.22 683.13 444.77 682.61 444.45 681.52 443.73 681.54 442.75 682.3 441.26 682.34 440.03 682.87 441.21 683.69 441.36 685.27 441.94 686.26 442.19 687.04 441.8 687.76 442.03 688.19 442.93 688.32 443.4 687.3 444.01 687.66 445.03 687.97 445.04 688.35 444.12 688.74 443.21 689.59 443.5 690.28 445.09 690.37 446.95 691.34 447.59 691.06 448.11 690.22 447.54 688.89 447.85 687.87 447.43 686.85 446.93 687.15 445.97 687.04 446.29 686.67 447.02 686.11 446.97 685.35 447.53 685.01 449.02 685.47 449.65 685.04 449.91 685.73 450.6 685.99 450.89 685.34 452.17 684.98 453.34 685.33 454.63 685.14 455.76 685.2 455.9 685.67 455.19 686.04 454.64 686.9 453.87 686.73 453.03 686.11 452.17 686.38 450.17 688.27 449.69 688.36 449.08 688.27 448.32 689.16 448.54 689.94 448.13 690.83 447.79 691.34 447.86 691.84 448.42 692.19 447.96 692.8 447.98 693.33 449.95 693.92 451.38 695.1 451.81 695.11 452.06 694.5 451.73 693.5 452.47 692.53 453.33 692.29 453.43 691.76 452.36 690.64 454.1 690.22 455.15 689.22 456.22 687.52 457.03 686.99 457.25 687.32 458.18 687.8 458.93 687.74 459.11 688.07 458.21 688.49 457.59 689.59 457.4 690.4 456.29 691.56 456.34 692.94 456.75 693.81 456.1 694.61 455.06 695.1 455.09 694.54 455.63 694.12 455.6 692.48 455.16 692.23 454.55 692.71 454.38 693.58 453.9 693.43 453.15 693.53 452.67 694.17 453.38 695.26 455.59 697.25 457.5 697.5 458.77 698.15 459.58 698.08 460.46 698.51 461.04 697.86 461.79 696.34 461.05 694.35 461.21 693.36 461.08 692.49 461.24 690.73 461.3 688.74 460.92 687.41 461.08 686.49 462.68 685.47 464.16 683.6 465.05 683.19 466.39 683.14 466.9 682.6 466.71 680.92 467.45 680.18 468.92 679.75 470.68 680.69 471.48 680.19 471.71 680.29 469.83 678.69 468.38 678.52"/>
          <polygon class="cls-13" points="473.98 690.24 474.08 689.99 471.92 682.49 470.15 683.31 469.59 683.81 468.55 682.89 467.58 682.67 467.09 683.7 467.41 684.74 467.25 685.61 466.13 686.75 465.82 687.34 464.45 686.62 463.63 686.4 462.85 687.58 463.68 688.18 464.69 688 464.52 688.97 463.46 690.11 463.87 690.91 464.02 692.44 465.37 694.02 466.32 693.95 467.24 692.81 469.13 691.7 470.57 691.7 470.99 692.79 470.13 694.36 468.85 694.78 468.63 695.46 466.6 696.53 466.62 697.11 466.83 697.7 468.08 698.86 469.55 699.7 470.65 699.55 472.93 700.28 476.18 702.3 477.7 702.62 474.17 690.31 473.98 690.24"/>
          <polygon class="cls-13" points="428.77 663.97 427.27 663.81 426.64 663.53 426.34 663.82 426.31 664.59 425.83 665.28 426.64 665.86 427.04 666.86 427.62 666.86 428.34 666.24 428.25 665.11 428.77 663.97"/>
        </g>
      </g>
    </g>
  </g>
  <g>
    <g class="cls-14">
      <circle class="cls-9" cx="389.83" cy="363.79" r="16.38"/>
      <circle class="cls-7" cx="389.83" cy="363.79" r="15.48"/>
      <circle class="cls-8" cx="389.83" cy="363.79" r="14.58"/>
      <circle class="cls-4" cx="389.83" cy="363.79" r="13.68"/>
      <circle class="cls-5" cx="389.83" cy="363.79" r="12.79"/>
      <circle class="cls-2" cx="389.83" cy="363.79" r="11.89"/>
      <circle class="cls-6" cx="389.83" cy="363.79" r="10.99"/>
      <circle class="cls-3" cx="389.83" cy="363.79" r="10.09"/>
      <circle class="cls-2" cx="389.83" cy="363.79" r="9.19"/>
      <circle class="cls-2" cx="389.83" cy="363.79" r="8.29"/>
      <circle class="cls-2" cx="389.83" cy="363.79" r="7.39"/>
      <circle class="cls-2" cx="389.83" cy="363.79" r="6.49"/>
      <circle class="cls-2" cx="389.83" cy="363.79" r="5.59"/>
      <circle class="cls-2" cx="389.83" cy="363.79" r="4.7"/>
      <circle class="cls-2" cx="389.83" cy="363.79" r="3.8"/>
      <circle class="cls-2" cx="389.83" cy="363.79" r="2.9"/>
      <circle class="cls-2" cx="389.83" cy="363.79" r="2"/>
      <circle class="cls-2" cx="389.83" cy="363.79" r="1.1"/>
      <circle class="cls-2" cx="389.83" cy="363.79" r=".2"/>
    </g>
    <g class="cls-14">
      <circle class="cls-9" cx="275.43" cy="163.92" r="12.44"/>
      <circle class="cls-7" cx="275.43" cy="163.92" r="11.75"/>
      <circle class="cls-8" cx="275.43" cy="163.92" r="11.07"/>
      <circle class="cls-4" cx="275.43" cy="163.92" r="10.39"/>
      <circle class="cls-5" cx="275.43" cy="163.92" r="9.71"/>
      <circle class="cls-2" cx="275.43" cy="163.92" r="9.02"/>
      <circle class="cls-6" cx="275.43" cy="163.92" r="8.34"/>
      <circle class="cls-3" cx="275.43" cy="163.92" r="7.66"/>
      <circle class="cls-2" cx="275.43" cy="163.92" r="6.98"/>
      <circle class="cls-2" cx="275.43" cy="163.92" r="6.29"/>
      <circle class="cls-2" cx="275.43" cy="163.92" r="5.61"/>
      <circle class="cls-2" cx="275.43" cy="163.92" r="4.93"/>
      <circle class="cls-2" cx="275.43" cy="163.92" r="4.25"/>
      <circle class="cls-2" cx="275.43" cy="163.92" r="3.56"/>
      <circle class="cls-2" cx="275.43" cy="163.92" r="2.88"/>
      <circle class="cls-2" cx="275.43" cy="163.92" r="2.2"/>
      <circle class="cls-2" cx="275.43" cy="163.92" r="1.52"/>
      <circle class="cls-2" cx="275.43" cy="163.92" r=".83"/>
      <circle class="cls-2" cx="275.43" cy="163.92" r=".15"/>
    </g>
    <g class="cls-14">
      <circle class="cls-9" cx="497.04" cy="440.68" r="14.93"/>
      <circle class="cls-7" cx="497.04" cy="440.68" r="14.11"/>
      <circle class="cls-8" cx="497.04" cy="440.68" r="13.29"/>
      <circle class="cls-4" cx="497.04" cy="440.68" r="12.47"/>
      <circle class="cls-5" cx="497.04" cy="440.68" r="11.65"/>
      <circle class="cls-2" cx="497.04" cy="440.68" r="10.84"/>
      <circle class="cls-6" cx="497.04" cy="440.68" r="10.02"/>
      <circle class="cls-3" cx="497.04" cy="440.68" r="9.2"/>
      <circle class="cls-2" cx="497.04" cy="440.68" r="8.38"/>
      <circle class="cls-2" cx="497.04" cy="440.68" r="7.56"/>
      <circle class="cls-2" cx="497.04" cy="440.68" r="6.74"/>
      <circle class="cls-2" cx="497.04" cy="440.68" r="5.92"/>
      <circle class="cls-2" cx="497.04" cy="440.68" r="5.1"/>
      <circle class="cls-2" cx="497.04" cy="440.68" r="4.28"/>
      <circle class="cls-2" cx="497.04" cy="440.68" r="3.46"/>
      <circle class="cls-2" cx="497.04" cy="440.68" r="2.64"/>
      <circle class="cls-2" cx="497.04" cy="440.68" r="1.82"/>
      <circle class="cls-2" cx="497.04" cy="440.68" r="1"/>
      <circle class="cls-2" cx="497.04" cy="440.68" r=".18"/>
    </g>
    <g>
      <circle class="cls-12" cx="389.78" cy="363.98" r="9.86"/>
      <path class="cls-10" d="M390.05,364.6c.3,0,.58-.06.83-.17.25-.12.47-.27.65-.46.18-.19.33-.41.44-.65.11-.24.16-.5.16-.76s-.05-.51-.16-.75c-.11-.25-.26-.46-.44-.65-.18-.19-.4-.34-.65-.45-.25-.12-.53-.17-.83-.17h-2.17l-1.26-1.16h3.25c.41,0,.79.05,1.15.14.36.09.69.22.99.39.74.42,1.23,1.01,1.49,1.76,0,.04.02.08.03.11,0,.03.02.07.04.11v.06s.03.09.03.14c0,.05.01.1.02.15,0,.06.01.11.01.16v.34s0,.1-.01.15v.02s-.02.1-.02.14c0,.05-.02.09-.03.14v.05c-.04.09-.06.17-.07.23-.13.37-.32.7-.57,1-.25.3-.56.55-.92.75-.02.02-.04.03-.07.04-.03,0-.05.02-.07.04l1.76,3.13h-1.54l-1.54-2.72c-.11.02-.22.03-.33.04-.11,0-.23.01-.35.01h-1.79v2.67h-1.46v-3.87l1.46-1.69v1.74h1.97Z"/>
    </g>
    <g>
      <circle class="cls-12" cx="497.96" cy="440.87" r="7.23"/>
      <path class="cls-10" d="M498.16,441.32c.22,0,.42-.04.61-.13.18-.08.34-.2.48-.33.13-.14.24-.3.32-.48.08-.18.12-.36.12-.56s-.04-.37-.12-.55c-.08-.18-.19-.34-.32-.48-.13-.14-.29-.25-.48-.33-.18-.08-.39-.13-.61-.13h-1.59l-.92-.85h2.38c.3,0,.58.03.85.1.26.07.51.16.73.28.54.31.9.74,1.09,1.29,0,.03.01.06.02.08,0,.02.02.05.03.08v.04s.02.06.03.1c0,.04,0,.07.01.11,0,.05,0,.08,0,.12v.25s0,.07,0,.11v.02s-.01.07-.01.1c0,.03-.01.07-.03.1v.04c-.03.07-.04.12-.05.17-.09.27-.23.52-.41.73-.18.22-.41.4-.68.55-.01.01-.03.02-.05.03-.02,0-.04.01-.05.03l1.29,2.29h-1.13l-1.13-2c-.08.01-.16.02-.24.03-.08,0-.17,0-.26,0h-1.31v1.96h-1.07v-2.84l1.07-1.24v1.27h1.44Z"/>
    </g>
    <g>
      <circle class="cls-12" cx="275.38" cy="164.11" r="7.23"/>
      <path class="cls-10" d="M275.57,164.56c.22,0,.42-.04.61-.13.18-.08.34-.2.48-.33.13-.14.24-.3.32-.48.08-.18.12-.36.12-.56s-.04-.37-.12-.55c-.08-.18-.19-.34-.32-.48-.13-.14-.29-.25-.48-.33-.18-.08-.39-.13-.61-.13h-1.59l-.92-.85h2.38c.3,0,.58.03.85.1.26.07.51.16.73.28.54.31.9.74,1.09,1.29,0,.03.01.06.02.08,0,.02.02.05.03.08v.04s.02.06.03.1c0,.04,0,.07.01.11,0,.05,0,.08,0,.12v.25s0,.07,0,.11v.02s-.01.07-.01.1c0,.03-.01.07-.03.1v.04c-.03.07-.04.12-.05.17-.09.27-.23.52-.41.73-.18.22-.41.4-.68.55-.01.01-.03.02-.05.03-.02,0-.04.01-.05.03l1.29,2.29h-1.13l-1.13-2c-.08.01-.16.02-.24.03-.08,0-.17,0-.26,0h-1.31v1.96h-1.07v-2.84l1.07-1.24v1.27h1.44Z"/>
    </g>
  </g>
</svg>