<svg xmlns="http://www.w3.org/2000/svg" xmlns:xlink="http://www.w3.org/1999/xlink" width="608" zoomAndPan="magnify" viewBox="0 0 456 422.99999" height="564" preserveAspectRatio="xMidYMid meet" version="1.0"><defs><g/></defs><path fill="#e63031" d="M 438.824219 213.320312 C 438.824219 216.769531 438.742188 220.214844 438.570312 223.660156 C 438.402344 227.105469 438.148438 230.542969 437.8125 233.976562 C 437.472656 237.40625 437.050781 240.828125 436.542969 244.238281 C 436.039062 247.648438 435.449219 251.046875 434.777344 254.429688 C 434.105469 257.8125 433.347656 261.175781 432.511719 264.519531 C 431.671875 267.867188 430.753906 271.1875 429.753906 274.488281 C 428.75 277.789062 427.667969 281.0625 426.507812 284.308594 C 425.347656 287.554688 424.105469 290.773438 422.785156 293.957031 C 421.464844 297.144531 420.070312 300.296875 418.59375 303.414062 C 417.121094 306.53125 415.570312 309.609375 413.945312 312.652344 C 412.320312 315.691406 410.621094 318.691406 408.847656 321.648438 C 407.074219 324.605469 405.230469 327.519531 403.3125 330.386719 C 401.398438 333.253906 399.414062 336.074219 397.359375 338.84375 C 395.304688 341.613281 393.183594 344.332031 390.996094 346.996094 C 388.808594 349.660156 386.554688 352.273438 384.242188 354.828125 C 381.925781 357.382812 379.546875 359.878906 377.109375 362.316406 C 374.671875 364.757812 372.175781 367.132812 369.617188 369.449219 C 367.0625 371.765625 364.453125 374.015625 361.789062 376.203125 C 359.121094 378.390625 356.402344 380.511719 353.632812 382.566406 C 350.863281 384.621094 348.046875 386.605469 345.179688 388.523438 C 342.3125 390.4375 339.398438 392.28125 336.441406 394.054688 C 333.484375 395.828125 330.484375 397.527344 327.441406 399.152344 C 324.402344 400.777344 321.320312 402.328125 318.203125 403.804688 C 315.085938 405.277344 311.933594 406.675781 308.75 407.996094 C 305.5625 409.3125 302.347656 410.554688 299.101562 411.714844 C 295.851562 412.878906 292.578125 413.960938 289.28125 414.960938 C 285.980469 415.960938 282.65625 416.882812 279.3125 417.71875 C 275.964844 418.558594 272.601562 419.3125 269.222656 419.984375 C 265.839844 420.65625 262.441406 421.246094 259.03125 421.753906 C 255.621094 422.257812 252.199219 422.679688 248.765625 423.019531 C 245.335938 423.355469 241.898438 423.609375 238.453125 423.78125 C 235.007812 423.949219 231.5625 424.035156 228.113281 424.035156 C 224.664062 424.035156 221.21875 423.949219 217.773438 423.78125 C 214.328125 423.609375 210.890625 423.355469 207.460938 423.019531 C 204.027344 422.679688 200.605469 422.257812 197.195312 421.753906 C 193.785156 421.246094 190.386719 420.65625 187.003906 419.984375 C 183.621094 419.3125 180.257812 418.558594 176.914062 417.71875 C 173.570312 416.882812 170.246094 415.960938 166.945312 414.960938 C 163.644531 413.960938 160.371094 412.878906 157.125 411.714844 C 153.878906 410.554688 150.664062 409.3125 147.476562 407.996094 C 144.289062 406.675781 141.140625 405.277344 138.023438 403.804688 C 134.90625 402.328125 131.824219 400.777344 128.785156 399.152344 C 125.742188 397.527344 122.742188 395.828125 119.785156 394.054688 C 116.828125 392.28125 113.914062 390.4375 111.046875 388.523438 C 108.179688 386.605469 105.363281 384.621094 102.589844 382.566406 C 99.820312 380.511719 97.105469 378.390625 94.4375 376.203125 C 91.773438 374.015625 89.164062 371.765625 86.605469 369.449219 C 84.050781 367.132812 81.554688 364.757812 79.117188 362.316406 C 76.679688 359.878906 74.300781 357.382812 71.984375 354.828125 C 69.667969 352.273438 67.417969 349.660156 65.230469 346.996094 C 63.042969 344.332031 60.921875 341.613281 58.867188 338.84375 C 56.8125 336.074219 54.828125 333.253906 52.910156 330.386719 C 50.996094 327.519531 49.152344 324.605469 47.378906 321.648438 C 45.605469 318.691406 43.90625 315.691406 42.28125 312.652344 C 40.65625 309.609375 39.105469 306.53125 37.632812 303.414062 C 36.15625 300.296875 34.757812 297.144531 33.441406 293.957031 C 32.121094 290.769531 30.878906 287.554688 29.71875 284.308594 C 28.554688 281.0625 27.476562 277.789062 26.472656 274.488281 C 25.472656 271.1875 24.554688 267.867188 23.714844 264.519531 C 22.878906 261.175781 22.121094 257.8125 21.449219 254.429688 C 20.777344 251.046875 20.1875 247.648438 19.679688 244.238281 C 19.175781 240.828125 18.753906 237.40625 18.414062 233.976562 C 18.078125 230.542969 17.824219 227.105469 17.65625 223.660156 C 17.484375 220.214844 17.402344 216.769531 17.402344 213.320312 C 17.402344 209.871094 17.484375 206.425781 17.65625 202.980469 C 17.824219 199.539062 18.078125 196.101562 18.414062 192.667969 C 18.753906 189.234375 19.175781 185.816406 19.679688 182.402344 C 20.1875 178.992188 20.777344 175.59375 21.449219 172.214844 C 22.121094 168.832031 22.878906 165.46875 23.714844 162.121094 C 24.554688 158.777344 25.472656 155.453125 26.472656 152.15625 C 27.476562 148.855469 28.554688 145.582031 29.71875 142.335938 C 30.878906 139.085938 32.121094 135.871094 33.441406 132.683594 C 34.757812 129.5 36.15625 126.347656 37.632812 123.230469 C 39.105469 120.113281 40.65625 117.035156 42.28125 113.992188 C 43.90625 110.949219 45.605469 107.953125 47.378906 104.992188 C 49.152344 102.035156 50.996094 99.121094 52.910156 96.253906 C 54.828125 93.386719 56.8125 90.570312 58.867188 87.800781 C 60.921875 85.03125 63.042969 82.3125 65.230469 79.648438 C 67.417969 76.980469 69.667969 74.371094 71.984375 71.816406 C 74.300781 69.261719 76.679688 66.761719 79.117188 64.324219 C 81.554688 61.886719 84.050781 59.507812 86.605469 57.195312 C 89.164062 54.878906 91.773438 52.625 94.4375 50.4375 C 97.105469 48.25 99.820312 46.128906 102.589844 44.074219 C 105.363281 42.019531 108.179688 40.035156 111.046875 38.121094 C 113.914062 36.203125 116.828125 34.359375 119.785156 32.585938 C 122.742188 30.8125 125.742188 29.113281 128.785156 27.488281 C 131.824219 25.863281 134.90625 24.3125 138.023438 22.839844 C 141.140625 21.363281 144.289062 19.96875 147.476562 18.648438 C 150.664062 17.328125 153.878906 16.089844 157.125 14.925781 C 160.371094 13.765625 163.644531 12.683594 166.945312 11.683594 C 170.246094 10.679688 173.570312 9.761719 176.914062 8.921875 C 180.257812 8.085938 183.621094 7.332031 187.003906 6.65625 C 190.386719 5.984375 193.785156 5.394531 197.195312 4.890625 C 200.605469 4.382812 204.027344 3.960938 207.460938 3.625 C 210.890625 3.285156 214.328125 3.03125 217.773438 2.863281 C 221.21875 2.695312 224.664062 2.609375 228.113281 2.609375 C 231.5625 2.609375 235.007812 2.695312 238.453125 2.863281 C 241.898438 3.03125 245.335938 3.285156 248.765625 3.625 C 252.199219 3.960938 255.621094 4.382812 259.03125 4.890625 C 262.441406 5.394531 265.839844 5.984375 269.222656 6.65625 C 272.601562 7.332031 275.96875 8.085938 279.3125 8.921875 C 282.65625 9.761719 285.980469 10.679688 289.28125 11.683594 C 292.578125 12.683594 295.851562 13.765625 299.101562 14.925781 C 302.347656 16.089844 305.5625 17.328125 308.75 18.648438 C 311.933594 19.96875 315.085938 21.363281 318.203125 22.839844 C 321.320312 24.3125 324.402344 25.863281 327.441406 27.488281 C 330.484375 29.113281 333.484375 30.8125 336.441406 32.585938 C 339.398438 34.359375 342.3125 36.203125 345.179688 38.121094 C 348.046875 40.035156 350.863281 42.019531 353.632812 44.074219 C 356.402344 46.128906 359.121094 48.25 361.789062 50.4375 C 364.453125 52.625 367.0625 54.878906 369.617188 57.195312 C 372.175781 59.507812 374.671875 61.886719 377.109375 64.324219 C 379.546875 66.761719 381.925781 69.261719 384.242188 71.816406 C 386.554688 74.371094 388.808594 76.980469 390.996094 79.648438 C 393.183594 82.3125 395.304688 85.03125 397.359375 87.800781 C 399.414062 90.570312 401.398438 93.386719 403.3125 96.253906 C 405.230469 99.121094 407.074219 102.035156 408.847656 104.992188 C 410.621094 107.953125 412.320312 110.949219 413.945312 113.992188 C 415.570312 117.035156 417.121094 120.113281 418.59375 123.230469 C 420.070312 126.347656 421.464844 129.5 422.785156 132.683594 C 424.105469 135.871094 425.347656 139.085938 426.507812 142.335938 C 427.667969 145.582031 428.75 148.855469 429.753906 152.15625 C 430.753906 155.453125 431.671875 158.777344 432.511719 162.121094 C 433.347656 165.46875 434.105469 168.832031 434.777344 172.214844 C 435.449219 175.59375 436.039062 178.992188 436.542969 182.402344 C 437.050781 185.816406 437.472656 189.234375 437.8125 192.667969 C 438.148438 196.101562 438.402344 199.539062 438.570312 202.980469 C 438.742188 206.425781 438.824219 209.871094 438.824219 213.320312 Z M 438.824219 213.320312 " fill-opacity="1" fill-rule="nonzero"/><path fill="#ffffff" d="M 136.277344 251.644531 C 119.964844 249.097656 100.988281 231.660156 95.289062 216.472656 C 79.574219 174.621094 113.964844 134.269531 157.351562 141.582031 C 180.152344 67.183594 285.863281 70.894531 305.402344 145.558594 C 356.101562 139.144531 384.976562 202.558594 347.886719 237.621094 C 343.164062 242.082031 327 251.644531 320.886719 251.644531 L 258.636719 251.644531 L 258.636719 269.234375 C 264.1875 267.207031 270.1875 268.183594 275.589844 270.621094 L 276.226562 285.359375 L 302.589844 285.359375 C 302.851562 285.359375 303.074219 282.097656 304.238281 280.484375 C 319.761719 258.734375 344.738281 285.660156 328.3125 300.097656 C 318.414062 308.796875 303.039062 303.171875 302.589844 289.746094 L 271.839844 289.746094 L 271.839844 272.160156 C 271.839844 272.160156 254.25 272.160156 254.25 272.160156 L 254.25 251.644531 L 230.8125 251.644531 L 230.8125 317.570312 C 236.027344 315.882812 244.761719 320.082031 248.8125 319.109375 C 250.351562 318.734375 254.027344 309.171875 264.488281 313.933594 C 282.375 322.070312 255.1875 351.320312 246.976562 322.632812 L 230.25 321.769531 C 228.675781 321.171875 226.386719 316.332031 226.386719 315.359375 L 226.386719 251.644531 L 202.949219 251.644531 L 202.949219 272.160156 L 185.363281 272.160156 C 185.363281 272.160156 183.902344 289.746094 183.902344 289.746094 L 154.613281 289.746094 C 153.636719 303.957031 135.339844 309.847656 126.789062 297.808594 C 115.613281 282.058594 135.824219 263.535156 150.300781 277.222656 C 153.488281 280.222656 154.164062 285.359375 154.652344 285.359375 L 181.011719 285.359375 L 181.011719 269.234375 C 181.011719 269.234375 198.601562 269.234375 198.601562 269.234375 L 198.601562 251.644531 C 179.625 249.546875 154.539062 254.496094 136.3125 251.644531 Z M 302.589844 150.546875 C 286.425781 78.660156 191.289062 68.644531 162.226562 138.433594 C 161.214844 140.871094 160.652344 143.457031 160.3125 146.046875 C 90.449219 132.019531 69.339844 228.433594 136.386719 247.109375 L 323.101562 246.582031 C 383.699219 229.296875 365.8125 139.632812 302.589844 150.546875 Z M 302.589844 150.546875 " fill-opacity="1" fill-rule="nonzero"/><path fill="#ffffff" d="M 205.425781 334.746094 C 194.476562 345.433594 179.4375 327.246094 189.789062 318.359375 C 201.636719 308.160156 213.714844 326.683594 205.425781 334.746094 Z M 205.425781 334.746094 " fill-opacity="1" fill-rule="nonzero"/><path fill="#ffffff" d="M 224.476562 351.582031 C 243.300781 345.921875 242.476562 376.632812 224.851562 371.160156 C 215.8125 368.347656 215.964844 354.132812 224.476562 351.582031 Z M 224.476562 351.582031 " fill-opacity="1" fill-rule="nonzero"/><g fill="#ffffff" fill-opacity="1"><g transform="translate(165.413023, 210.021315)"><g><path d="M 22.28125 -24.15625 C 22.28125 -26.875 21.769531 -28.773438 20.75 -29.859375 C 19.738281 -30.941406 17.957031 -31.484375 15.40625 -31.484375 L 13.375 -31.484375 L 13.375 -16.265625 L 15.5 -16.265625 C 17.875 -16.265625 19.597656 -16.859375 20.671875 -18.046875 C 21.742188 -19.242188 22.28125 -21.28125 22.28125 -24.15625 Z M 13.375 -13.453125 L 13.375 -2.5625 L 19.078125 -1.875 L 19.078125 0 L 1.234375 0 L 1.234375 -1.875 L 5.296875 -2.5625 L 5.296875 -31.765625 L 0.890625 -32.4375 L 0.890625 -34.296875 L 16.015625 -34.296875 C 20.867188 -34.296875 24.5 -33.484375 26.90625 -31.859375 C 29.3125 -30.234375 30.515625 -27.679688 30.515625 -24.203125 C 30.515625 -17.035156 26.335938 -13.453125 17.984375 -13.453125 Z M 13.375 -13.453125 "/></g></g></g><g fill="#ffffff" fill-opacity="1"><g transform="translate(197.410529, 210.021315)"><g><path d="M 13.96875 -24.578125 C 19.988281 -24.578125 23 -22.363281 23 -17.9375 L 23 -2.296875 L 25.40625 -1.6875 L 25.40625 0 L 16.546875 0 L 15.984375 -1.84375 C 14.660156 -0.9375 13.457031 -0.316406 12.375 0.015625 C 11.300781 0.347656 10.21875 0.515625 9.125 0.515625 C 4.164062 0.515625 1.6875 -1.875 1.6875 -6.65625 C 1.6875 -8.457031 2.050781 -9.898438 2.78125 -10.984375 C 3.519531 -12.066406 4.578125 -12.867188 5.953125 -13.390625 C 7.335938 -13.910156 9.515625 -14.207031 12.484375 -14.28125 L 15.609375 -14.34375 L 15.609375 -17.859375 C 15.609375 -20.753906 14.421875 -22.203125 12.046875 -22.203125 C 10.617188 -22.203125 9.015625 -21.757812 7.234375 -20.875 L 6.265625 -17.875 L 4.578125 -17.875 L 4.578125 -23.6875 C 7.148438 -24.082031 9.039062 -24.328125 10.25 -24.421875 C 11.46875 -24.523438 12.707031 -24.578125 13.96875 -24.578125 Z M 15.609375 -12.078125 L 13.453125 -12 C 11.796875 -11.925781 10.648438 -11.488281 10.015625 -10.6875 C 9.378906 -9.882812 9.0625 -8.585938 9.0625 -6.796875 C 9.0625 -5.347656 9.316406 -4.28125 9.828125 -3.59375 C 10.335938 -2.914062 11 -2.578125 11.8125 -2.578125 C 12.976562 -2.578125 14.242188 -2.878906 15.609375 -3.484375 Z M 15.609375 -12.078125 "/></g></g></g><g fill="#ffffff" fill-opacity="1"><g transform="translate(223.601934, 210.021315)"><g><path d="M 13.96875 -24.578125 C 19.988281 -24.578125 23 -22.363281 23 -17.9375 L 23 -2.296875 L 25.40625 -1.6875 L 25.40625 0 L 16.546875 0 L 15.984375 -1.84375 C 14.660156 -0.9375 13.457031 -0.316406 12.375 0.015625 C 11.300781 0.347656 10.21875 0.515625 9.125 0.515625 C 4.164062 0.515625 1.6875 -1.875 1.6875 -6.65625 C 1.6875 -8.457031 2.050781 -9.898438 2.78125 -10.984375 C 3.519531 -12.066406 4.578125 -12.867188 5.953125 -13.390625 C 7.335938 -13.910156 9.515625 -14.207031 12.484375 -14.28125 L 15.609375 -14.34375 L 15.609375 -17.859375 C 15.609375 -20.753906 14.421875 -22.203125 12.046875 -22.203125 C 10.617188 -22.203125 9.015625 -21.757812 7.234375 -20.875 L 6.265625 -17.875 L 4.578125 -17.875 L 4.578125 -23.6875 C 7.148438 -24.082031 9.039062 -24.328125 10.25 -24.421875 C 11.46875 -24.523438 12.707031 -24.578125 13.96875 -24.578125 Z M 15.609375 -12.078125 L 13.453125 -12 C 11.796875 -11.925781 10.648438 -11.488281 10.015625 -10.6875 C 9.378906 -9.882812 9.0625 -8.585938 9.0625 -6.796875 C 9.0625 -5.347656 9.316406 -4.28125 9.828125 -3.59375 C 10.335938 -2.914062 11 -2.578125 11.8125 -2.578125 C 12.976562 -2.578125 14.242188 -2.878906 15.609375 -3.484375 Z M 15.609375 -12.078125 "/></g></g></g><g fill="#ffffff" fill-opacity="1"><g transform="translate(249.793338, 210.021315)"><g><path d="M 2.78125 -10.515625 L 5.046875 -10.515625 L 6.1875 -5.015625 C 6.90625 -4.179688 7.988281 -3.484375 9.4375 -2.921875 C 10.882812 -2.359375 12.382812 -2.078125 13.9375 -2.078125 C 18.832031 -2.078125 21.28125 -4.085938 21.28125 -8.109375 C 21.28125 -9.367188 20.816406 -10.429688 19.890625 -11.296875 C 18.960938 -12.171875 17.5 -12.953125 15.5 -13.640625 C 12.570312 -14.609375 10.460938 -15.394531 9.171875 -16 C 7.878906 -16.601562 6.789062 -17.3125 5.90625 -18.125 C 5.019531 -18.945312 4.3125 -19.941406 3.78125 -21.109375 C 3.257812 -22.285156 3 -23.722656 3 -25.421875 C 3 -28.441406 4.023438 -30.738281 6.078125 -32.3125 C 8.128906 -33.894531 11.132812 -34.6875 15.09375 -34.6875 C 17.957031 -34.6875 21.128906 -34.320312 24.609375 -33.59375 L 24.609375 -25.421875 L 22.328125 -25.421875 L 21.1875 -30.140625 C 19.445312 -31.398438 17.414062 -32.03125 15.09375 -32.03125 C 13 -32.03125 11.382812 -31.640625 10.25 -30.859375 C 9.125 -30.085938 8.5625 -28.898438 8.5625 -27.296875 C 8.5625 -26.148438 9.03125 -25.171875 9.96875 -24.359375 C 10.914062 -23.554688 12.382812 -22.835938 14.375 -22.203125 C 18.28125 -20.921875 20.960938 -19.804688 22.421875 -18.859375 C 23.878906 -17.921875 24.988281 -16.75 25.75 -15.34375 C 26.519531 -13.945312 26.90625 -12.300781 26.90625 -10.40625 C 26.90625 -3.125 22.617188 0.515625 14.046875 0.515625 C 12.085938 0.515625 10.085938 0.347656 8.046875 0.015625 C 6.003906 -0.316406 4.25 -0.753906 2.78125 -1.296875 Z M 2.78125 -10.515625 "/></g></g></g></svg>