<svg xmlns="http://www.w3.org/2000/svg" xmlns:xlink="http://www.w3.org/1999/xlink" width="623" zoomAndPan="magnify" viewBox="0 0 467.25 438.749982" height="585" preserveAspectRatio="xMidYMid meet" version="1.0"><defs><clipPath id="6f3c1fdf4d"><path d="M 15 0.226562 L 451.660156 0.226562 L 451.660156 437 L 15 437 Z M 15 0.226562 " clip-rule="nonzero"/></clipPath></defs><g clip-path="url(#6f3c1fdf4d)"><path fill="#e63031" d="M 451.78125 218.496094 C 451.78125 222.066406 451.691406 225.636719 451.515625 229.203125 C 451.34375 232.769531 451.078125 236.328125 450.730469 239.882812 C 450.378906 243.433594 449.941406 246.976562 449.417969 250.507812 C 448.894531 254.039062 448.285156 257.558594 447.585938 261.058594 C 446.890625 264.5625 446.109375 268.042969 445.242188 271.507812 C 444.375 274.96875 443.421875 278.410156 442.386719 281.828125 C 441.347656 285.246094 440.230469 288.632812 439.027344 291.996094 C 437.824219 295.355469 436.539062 298.6875 435.171875 301.984375 C 433.804688 305.285156 432.359375 308.546875 430.832031 311.773438 C 429.308594 315.003906 427.703125 318.191406 426.019531 321.339844 C 424.335938 324.488281 422.578125 327.59375 420.742188 330.65625 C 418.90625 333.71875 416.996094 336.734375 415.011719 339.703125 C 413.027344 342.671875 410.972656 345.589844 408.847656 348.457031 C 406.71875 351.328125 404.523438 354.140625 402.257812 356.902344 C 399.992188 359.660156 397.660156 362.363281 395.265625 365.007812 C 392.867188 367.652344 390.40625 370.238281 387.878906 372.765625 C 385.355469 375.289062 382.769531 377.75 380.125 380.148438 C 377.480469 382.546875 374.777344 384.878906 372.015625 387.140625 C 369.257812 389.40625 366.441406 391.601562 363.574219 393.730469 C 360.707031 395.855469 357.789062 397.914062 354.820312 399.894531 C 351.851562 401.878906 348.835938 403.789062 345.773438 405.625 C 342.710938 407.460938 339.605469 409.21875 336.457031 410.902344 C 333.308594 412.585938 330.121094 414.191406 326.890625 415.71875 C 323.664062 417.242188 320.402344 418.691406 317.101562 420.054688 C 313.804688 421.421875 310.472656 422.707031 307.113281 423.910156 C 303.75 425.113281 300.359375 426.234375 296.945312 427.269531 C 293.527344 428.304688 290.085938 429.257812 286.625 430.125 C 283.160156 430.992188 279.675781 431.773438 276.175781 432.472656 C 272.671875 433.167969 269.15625 433.777344 265.625 434.300781 C 262.09375 434.828125 258.550781 435.261719 254.996094 435.613281 C 251.445312 435.964844 247.882812 436.226562 244.316406 436.402344 C 240.753906 436.574219 237.183594 436.664062 233.613281 436.664062 C 230.042969 436.664062 226.472656 436.574219 222.910156 436.402344 C 219.34375 436.226562 215.78125 435.964844 212.230469 435.613281 C 208.675781 435.261719 205.132812 434.828125 201.601562 434.300781 C 198.070312 433.777344 194.554688 433.167969 191.050781 432.472656 C 187.550781 431.773438 184.066406 430.992188 180.601562 430.125 C 177.140625 429.257812 173.699219 428.304688 170.28125 427.269531 C 166.867188 426.234375 163.476562 425.113281 160.117188 423.910156 C 156.753906 422.707031 153.421875 421.421875 150.125 420.058594 C 146.824219 418.691406 143.5625 417.242188 140.335938 415.71875 C 137.109375 414.191406 133.917969 412.585938 130.769531 410.902344 C 127.621094 409.21875 124.515625 407.460938 121.453125 405.625 C 118.390625 403.789062 115.375 401.878906 112.40625 399.894531 C 109.4375 397.914062 106.519531 395.855469 103.652344 393.730469 C 100.785156 391.601562 97.96875 389.40625 95.210938 387.140625 C 92.449219 384.878906 89.746094 382.546875 87.101562 380.148438 C 84.457031 377.75 81.871094 375.289062 79.347656 372.765625 C 76.820312 370.238281 74.359375 367.652344 71.960938 365.007812 C 69.566406 362.363281 67.234375 359.660156 64.96875 356.902344 C 62.703125 354.140625 60.507812 351.328125 58.378906 348.457031 C 56.253906 345.589844 54.199219 342.671875 52.214844 339.703125 C 50.230469 336.734375 48.320312 333.71875 46.484375 330.65625 C 44.648438 327.59375 42.890625 324.488281 41.207031 321.339844 C 39.523438 318.191406 37.917969 315.003906 36.394531 311.773438 C 34.867188 308.546875 33.421875 305.285156 32.054688 301.984375 C 30.6875 298.6875 29.402344 295.355469 28.199219 291.996094 C 26.996094 288.632812 25.878906 285.246094 24.839844 281.828125 C 23.804688 278.410156 22.851562 274.96875 21.984375 271.507812 C 21.117188 268.042969 20.335938 264.5625 19.640625 261.058594 C 18.941406 257.558594 18.332031 254.039062 17.808594 250.507812 C 17.285156 246.976562 16.847656 243.433594 16.496094 239.882812 C 16.148438 236.328125 15.886719 232.769531 15.710938 229.203125 C 15.535156 225.636719 15.445312 222.066406 15.445312 218.496094 C 15.445312 214.925781 15.535156 211.359375 15.710938 207.792969 C 15.886719 204.226562 16.148438 200.667969 16.496094 197.113281 C 16.847656 193.558594 17.285156 190.015625 17.808594 186.484375 C 18.332031 182.953125 18.941406 179.4375 19.640625 175.933594 C 20.335938 172.433594 21.117188 168.949219 21.984375 165.488281 C 22.851562 162.023438 23.804688 158.582031 24.839844 155.167969 C 25.878906 151.75 26.996094 148.359375 28.199219 145 C 29.402344 141.636719 30.6875 138.308594 32.054688 135.007812 C 33.421875 131.710938 34.867188 128.445312 36.394531 125.21875 C 37.917969 121.992188 39.523438 118.804688 41.207031 115.652344 C 42.890625 112.503906 44.648438 109.398438 46.484375 106.335938 C 48.320312 103.273438 50.230469 100.257812 52.214844 97.289062 C 54.199219 94.320312 56.253906 91.402344 58.378906 88.535156 C 60.507812 85.667969 62.703125 82.855469 64.96875 80.09375 C 67.234375 77.332031 69.566406 74.632812 71.960938 71.984375 C 74.359375 69.339844 76.820312 66.753906 79.347656 64.230469 C 81.871094 61.707031 84.457031 59.246094 87.101562 56.847656 C 89.746094 54.449219 92.449219 52.117188 95.210938 49.851562 C 97.96875 47.585938 100.785156 45.390625 103.652344 43.265625 C 106.519531 41.136719 109.4375 39.082031 112.40625 37.097656 C 115.375 35.113281 118.390625 33.203125 121.453125 31.371094 C 124.515625 29.535156 127.621094 27.773438 130.769531 26.089844 C 133.917969 24.410156 137.109375 22.804688 140.335938 21.277344 C 143.5625 19.75 146.824219 18.304688 150.125 16.9375 C 153.421875 15.570312 156.753906 14.285156 160.117188 13.082031 C 163.476562 11.882812 166.867188 10.761719 170.28125 9.726562 C 173.699219 8.6875 177.140625 7.738281 180.601562 6.867188 C 184.066406 6 187.550781 5.21875 191.050781 4.523438 C 194.554688 3.824219 198.070312 3.214844 201.601562 2.691406 C 205.132812 2.167969 208.675781 1.730469 212.230469 1.382812 C 215.78125 1.03125 219.34375 0.769531 222.910156 0.59375 C 226.472656 0.417969 230.042969 0.332031 233.613281 0.332031 C 237.183594 0.332031 240.753906 0.417969 244.316406 0.59375 C 247.882812 0.769531 251.445312 1.03125 254.996094 1.382812 C 258.550781 1.730469 262.09375 2.167969 265.625 2.691406 C 269.15625 3.214844 272.671875 3.824219 276.175781 4.523438 C 279.675781 5.21875 283.160156 6 286.625 6.867188 C 290.085938 7.738281 293.527344 8.6875 296.945312 9.726562 C 300.359375 10.761719 303.75 11.882812 307.113281 13.082031 C 310.472656 14.285156 313.804688 15.570312 317.101562 16.9375 C 320.402344 18.304688 323.664062 19.75 326.890625 21.277344 C 330.121094 22.804688 333.308594 24.410156 336.457031 26.089844 C 339.605469 27.773438 342.710938 29.535156 345.773438 31.371094 C 348.835938 33.203125 351.851562 35.113281 354.820312 37.097656 C 357.789062 39.082031 360.707031 41.136719 363.574219 43.265625 C 366.441406 45.390625 369.257812 47.585938 372.015625 49.851562 C 374.777344 52.117188 377.480469 54.449219 380.125 56.847656 C 382.769531 59.246094 385.355469 61.707031 387.878906 64.230469 C 390.40625 66.753906 392.867188 69.339844 395.265625 71.984375 C 397.660156 74.632812 399.992188 77.332031 402.257812 80.09375 C 404.523438 82.855469 406.71875 85.667969 408.847656 88.535156 C 410.972656 91.402344 413.027344 94.320312 415.011719 97.289062 C 416.996094 100.257812 418.90625 103.273438 420.742188 106.335938 C 422.578125 109.398438 424.335938 112.503906 426.019531 115.652344 C 427.703125 118.804688 429.308594 121.992188 430.832031 125.21875 C 432.359375 128.445312 433.804688 131.710938 435.171875 135.007812 C 436.539062 138.308594 437.824219 141.636719 439.027344 145 C 440.230469 148.359375 441.347656 151.75 442.386719 155.167969 C 443.421875 158.582031 444.375 162.023438 445.242188 165.488281 C 446.109375 168.949219 446.890625 172.433594 447.585938 175.933594 C 448.285156 179.4375 448.894531 182.953125 449.417969 186.484375 C 449.941406 190.015625 450.378906 193.558594 450.730469 197.113281 C 451.078125 200.667969 451.34375 204.226562 451.515625 207.792969 C 451.691406 211.359375 451.78125 214.925781 451.78125 218.496094 Z M 451.78125 218.496094 " fill-opacity="1" fill-rule="nonzero"/></g><path stroke-linecap="round" transform="matrix(3.882657, 0, 0, 3.882657, -193.245894, -88.582216)" fill="none" stroke-linejoin="round" d="M 119.92025 80.330231 L 142.82962 57.419855 C 145.199936 55.049539 145.199936 51.210351 142.82962 48.840034 C 140.460309 46.469718 136.620115 46.469718 134.249799 48.840034 L 111.41991 71.669924 C 110.340389 72.75045 109.660282 74.159963 109.500315 75.680145 L 108.680363 83.259926 L 116.110238 82.229703 C 117.549934 82.0305 118.890028 81.360453 119.92025 80.330231 Z M 119.92025 80.330231 " stroke="#ffffff" stroke-width="2" stroke-opacity="1" stroke-miterlimit="4"/><path stroke-linecap="round" transform="matrix(3.882657, 0, 0, 3.882657, -193.245894, -88.582216)" fill="none" stroke-linejoin="round" d="M 112.480314 70.600464 L 121.060135 79.190346 " stroke="#ffffff" stroke-width="2" stroke-opacity="1" stroke-miterlimit="4"/><path stroke-linecap="round" transform="matrix(3.882657, 0, 0, 3.882657, -193.245894, -88.582216)" fill="none" stroke-linejoin="round" d="M 109.369525 76.779786 L 114.970354 82.379609 " stroke="#ffffff" stroke-width="2" stroke-opacity="1" stroke-miterlimit="4"/><path stroke-linecap="round" transform="matrix(3.882657, 0, 0, 3.882657, -193.245894, -88.582216)" fill="none" stroke-linejoin="round" d="M 118.430251 69.989776 L 131.569611 56.850416 " stroke="#ffffff" stroke-width="2" stroke-opacity="1" stroke-miterlimit="4"/><path stroke-linecap="round" transform="matrix(3.882657, 0, 0, 3.882657, -193.245894, -88.582216)" fill="none" stroke-linejoin="round" d="M 132.320144 50.759628 L 140.899965 59.340455 " stroke="#ffffff" stroke-width="2" stroke-opacity="1" stroke-miterlimit="4"/><path stroke-linecap="round" transform="matrix(3.882657, 0, 0, 3.882657, -193.245894, -88.582216)" fill="none" stroke-linejoin="round" d="M 121.550094 73.109619 L 134.69046 59.970259 " stroke="#ffffff" stroke-width="2" stroke-opacity="1" stroke-miterlimit="4"/><path stroke-linecap="round" transform="matrix(3.882657, 0, 0, 3.882657, -193.245894, -88.582216)" fill="none" stroke-linejoin="round" d="M 121.550094 55.239687 C 120.570176 54.820153 119.550014 54.459978 118.509731 54.160167 L 118.509731 49.830014 C 118.509731 48.340014 117.300427 47.129704 115.810428 47.129704 L 106.099777 47.129704 C 104.609777 47.129704 103.400473 48.340014 103.400473 49.830014 L 103.400473 54.099803 C 101.370211 54.670248 99.430495 55.470079 97.610503 56.470119 L 94.600322 53.459938 C 93.549978 52.409594 91.839647 52.409594 90.79031 53.459938 L 83.919813 60.330435 C 82.870475 61.379773 82.870475 63.090103 83.919813 64.140447 L 86.899812 67.120445 C 85.87965 68.940438 85.069758 70.890214 84.480197 72.929531 L 80.269767 72.929531 C 78.779768 72.929531 77.570464 74.139842 77.570464 75.629841 L 77.570464 85.340492 C 77.570464 86.830491 78.779768 88.039795 80.269767 88.039795 L 84.480197 88.039795 C 85.059698 90.080119 85.87965 92.029895 86.899812 93.849887 L 83.919813 96.829886 C 82.870475 97.88023 82.870475 99.589554 83.919813 100.639898 L 90.79031 107.510395 C 91.839647 108.559733 93.549978 108.559733 94.600322 107.510395 L 97.610503 104.500214 C 99.420434 105.500254 101.36015 106.300085 103.400473 106.869524 L 103.400473 111.140319 C 103.400473 112.630319 104.609777 113.839623 106.099777 113.839623 L 115.810428 113.839623 C 117.300427 113.839623 118.509731 112.630319 118.509731 111.140319 L 118.509731 106.810166 C 120.519872 106.22966 122.440472 105.419768 124.230282 104.419728 L 127.299822 107.490274 C 128.350166 108.539611 130.060496 108.539611 131.109834 107.490274 L 137.980331 100.619777 C 139.029669 99.570439 139.029669 97.860109 137.980331 96.809765 L 134.879603 93.710043 C 135.869582 91.930293 136.660358 90.019754 137.229798 88.019674 L 141.620316 88.019674 C 143.110315 88.019674 144.319619 86.81037 144.319619 85.32037 L 144.319619 75.609719 C 144.319619 74.11972 143.110315 72.910416 141.620316 72.910416 L 137.229798 72.910416 C 136.97023 72.020038 136.68048 71.139721 136.340426 70.289587 " stroke="#ffffff" stroke-width="2" stroke-opacity="1" stroke-miterlimit="4"/><path fill="#ffffff" d="M 318.488281 223.972656 C 318.488281 226.730469 318.351562 229.472656 318.074219 232.203125 C 318.019531 232.714844 317.871094 233.195312 317.628906 233.652344 C 317.382812 234.105469 317.0625 234.492188 316.664062 234.820312 C 316.265625 235.144531 315.820312 235.378906 315.324219 235.527344 C 314.832031 235.675781 314.328125 235.726562 313.816406 235.671875 C 313.304688 235.621094 312.824219 235.472656 312.371094 235.230469 C 311.914062 234.984375 311.527344 234.664062 311.199219 234.265625 C 310.875 233.863281 310.640625 233.417969 310.492188 232.925781 C 310.34375 232.433594 310.296875 231.929688 310.347656 231.417969 C 310.597656 228.949219 310.722656 226.46875 310.722656 223.972656 C 310.722656 223.457031 310.820312 222.960938 311.019531 222.484375 C 311.214844 222.011719 311.496094 221.589844 311.859375 221.226562 C 312.222656 220.863281 312.644531 220.582031 313.121094 220.382812 C 313.59375 220.1875 314.089844 220.089844 314.605469 220.089844 C 315.121094 220.089844 315.617188 220.1875 316.089844 220.382812 C 316.566406 220.582031 316.988281 220.863281 317.351562 221.226562 C 317.714844 221.589844 317.996094 222.011719 318.191406 222.484375 C 318.390625 222.960938 318.488281 223.457031 318.488281 223.972656 Z M 313.480469 252.007812 C 312.53125 254.570312 311.453125 257.078125 310.246094 259.535156 C 310.019531 260 309.710938 260.398438 309.324219 260.738281 C 308.941406 261.078125 308.503906 261.332031 308.015625 261.5 C 307.527344 261.664062 307.027344 261.730469 306.511719 261.699219 C 306 261.664062 305.511719 261.535156 305.050781 261.308594 C 304.585938 261.082031 304.1875 260.773438 303.847656 260.386719 C 303.507812 260 303.253906 259.566406 303.085938 259.078125 C 302.921875 258.589844 302.855469 258.089844 302.886719 257.574219 C 302.917969 257.0625 303.050781 256.574219 303.277344 256.113281 C 304.367188 253.894531 305.339844 251.625 306.199219 249.308594 C 306.378906 248.828125 306.640625 248.398438 306.992188 248.019531 C 307.34375 247.640625 307.75 247.34375 308.21875 247.128906 C 308.6875 246.914062 309.179688 246.796875 309.691406 246.777344 C 310.207031 246.757812 310.707031 246.839844 311.1875 247.019531 C 311.671875 247.195312 312.101562 247.460938 312.480469 247.8125 C 312.855469 248.160156 313.152344 248.570312 313.367188 249.039062 C 313.582031 249.507812 313.699219 249.996094 313.71875 250.511719 C 313.738281 251.027344 313.660156 251.523438 313.480469 252.007812 Z M 298.984375 276.609375 C 297.207031 278.675781 295.335938 280.648438 293.363281 282.53125 C 292.988281 282.886719 292.5625 283.15625 292.082031 283.339844 C 291.601562 283.527344 291.105469 283.613281 290.589844 283.601562 C 290.074219 283.589844 289.582031 283.476562 289.113281 283.269531 C 288.640625 283.0625 288.226562 282.769531 287.875 282.398438 C 287.519531 282.023438 287.246094 281.597656 287.0625 281.117188 C 286.875 280.636719 286.789062 280.140625 286.800781 279.625 C 286.816406 279.109375 286.925781 278.617188 287.132812 278.148438 C 287.339844 277.675781 287.632812 277.265625 288.003906 276.910156 C 289.789062 275.207031 291.484375 273.421875 293.089844 271.550781 C 293.425781 271.160156 293.824219 270.847656 294.28125 270.617188 C 294.742188 270.382812 295.226562 270.246094 295.742188 270.207031 C 296.253906 270.167969 296.757812 270.230469 297.246094 270.390625 C 297.734375 270.550781 298.175781 270.796875 298.566406 271.132812 C 298.957031 271.46875 299.269531 271.867188 299.5 272.324219 C 299.734375 272.785156 299.867188 273.269531 299.90625 273.785156 C 299.945312 274.296875 299.886719 274.800781 299.726562 275.289062 C 299.566406 275.777344 299.316406 276.21875 298.984375 276.609375 Z M 276.933594 294.652344 C 274.527344 295.996094 272.0625 297.214844 269.535156 298.304688 C 269.0625 298.507812 268.570312 298.613281 268.054688 298.621094 C 267.539062 298.628906 267.042969 298.539062 266.566406 298.347656 C 266.085938 298.160156 265.664062 297.882812 265.292969 297.527344 C 264.921875 297.167969 264.636719 296.75 264.433594 296.277344 C 264.230469 295.804688 264.125 295.3125 264.117188 294.796875 C 264.109375 294.28125 264.199219 293.785156 264.390625 293.308594 C 264.578125 292.828125 264.855469 292.40625 265.210938 292.035156 C 265.570312 291.667969 265.988281 291.378906 266.460938 291.175781 C 268.742188 290.191406 270.972656 289.089844 273.144531 287.875 C 273.59375 287.621094 274.074219 287.46875 274.585938 287.40625 C 275.097656 287.347656 275.601562 287.386719 276.097656 287.527344 C 276.59375 287.667969 277.042969 287.898438 277.445312 288.214844 C 277.851562 288.535156 278.179688 288.917969 278.429688 289.367188 C 278.679688 289.816406 278.835938 290.296875 278.894531 290.808594 C 278.957031 291.320312 278.917969 291.824219 278.777344 292.320312 C 278.636719 292.816406 278.40625 293.265625 278.085938 293.667969 C 277.769531 294.074219 277.382812 294.402344 276.933594 294.652344 Z M 250 303.933594 C 247.3125 304.347656 244.605469 304.628906 241.882812 304.773438 C 241.367188 304.800781 240.867188 304.726562 240.382812 304.554688 C 239.898438 304.382812 239.464844 304.125 239.082031 303.78125 C 238.699219 303.4375 238.394531 303.03125 238.175781 302.566406 C 237.953125 302.105469 237.828125 301.613281 237.800781 301.101562 C 237.773438 300.585938 237.847656 300.085938 238.019531 299.601562 C 238.1875 299.117188 238.449219 298.679688 238.792969 298.296875 C 239.136719 297.914062 239.539062 297.613281 240.003906 297.390625 C 240.46875 297.167969 240.960938 297.046875 241.472656 297.019531 C 243.9375 296.886719 246.382812 296.636719 248.8125 296.257812 C 249.320312 296.179688 249.824219 296.203125 250.324219 296.324219 C 250.824219 296.445312 251.28125 296.660156 251.699219 296.964844 C 252.113281 297.265625 252.453125 297.640625 252.722656 298.078125 C 252.988281 298.519531 253.164062 298.992188 253.242188 299.503906 C 253.320312 300.011719 253.300781 300.515625 253.175781 301.015625 C 253.054688 301.515625 252.84375 301.972656 252.539062 302.390625 C 252.234375 302.804688 251.863281 303.148438 251.421875 303.414062 C 250.980469 303.679688 250.507812 303.855469 250 303.933594 Z M 221.503906 303.28125 C 218.816406 302.738281 216.164062 302.058594 213.550781 301.246094 C 213.058594 301.09375 212.613281 300.851562 212.21875 300.519531 C 211.824219 300.191406 211.507812 299.800781 211.265625 299.34375 C 211.027344 298.886719 210.882812 298.402344 210.839844 297.890625 C 210.792969 297.378906 210.84375 296.875 210.996094 296.382812 C 211.152344 295.890625 211.390625 295.449219 211.722656 295.054688 C 212.050781 294.65625 212.445312 294.339844 212.898438 294.101562 C 213.355469 293.863281 213.839844 293.71875 214.351562 293.671875 C 214.867188 293.625 215.367188 293.679688 215.859375 293.832031 C 218.222656 294.566406 220.617188 295.179688 223.042969 295.671875 C 223.546875 295.773438 224.011719 295.96875 224.441406 296.257812 C 224.867188 296.542969 225.222656 296.902344 225.507812 297.332031 C 225.792969 297.761719 225.984375 298.226562 226.082031 298.730469 C 226.183594 299.238281 226.179688 299.742188 226.078125 300.246094 C 225.976562 300.753906 225.78125 301.21875 225.496094 301.644531 C 225.207031 302.070312 224.847656 302.429688 224.417969 302.710938 C 223.992188 302.996094 223.523438 303.1875 223.019531 303.289062 C 222.511719 303.386719 222.007812 303.386719 221.503906 303.28125 Z M 194.960938 292.734375 C 192.644531 291.292969 190.402344 289.738281 188.234375 288.066406 C 187.828125 287.75 187.496094 287.371094 187.238281 286.925781 C 186.984375 286.476562 186.820312 286 186.757812 285.488281 C 186.691406 284.976562 186.726562 284.472656 186.859375 283.976562 C 186.992188 283.480469 187.21875 283.027344 187.53125 282.621094 C 187.847656 282.210938 188.226562 281.878906 188.675781 281.625 C 189.121094 281.367188 189.601562 281.207031 190.109375 281.140625 C 190.621094 281.074219 191.125 281.109375 191.621094 281.242188 C 192.117188 281.378906 192.570312 281.601562 192.980469 281.917969 C 194.9375 283.429688 196.964844 284.835938 199.0625 286.140625 C 199.5 286.414062 199.867188 286.757812 200.167969 287.175781 C 200.46875 287.59375 200.675781 288.054688 200.792969 288.554688 C 200.910156 289.058594 200.925781 289.5625 200.84375 290.070312 C 200.757812 290.578125 200.582031 291.050781 200.308594 291.488281 C 200.039062 291.925781 199.691406 292.292969 199.273438 292.59375 C 198.855469 292.894531 198.394531 293.101562 197.894531 293.21875 C 197.394531 293.335938 196.886719 293.351562 196.378906 293.269531 C 195.871094 293.183594 195.398438 293.007812 194.960938 292.734375 Z M 173.785156 273.703125 C 172.101562 271.550781 170.53125 269.316406 169.078125 267.007812 C 168.800781 266.574219 168.621094 266.101562 168.535156 265.59375 C 168.445312 265.085938 168.460938 264.582031 168.574219 264.078125 C 168.6875 263.578125 168.894531 263.117188 169.191406 262.695312 C 169.488281 262.273438 169.855469 261.925781 170.289062 261.652344 C 170.726562 261.378906 171.199219 261.199219 171.703125 261.109375 C 172.210938 261.023438 172.71875 261.035156 173.21875 261.152344 C 173.722656 261.265625 174.183594 261.46875 174.601562 261.769531 C 175.023438 262.066406 175.371094 262.429688 175.644531 262.867188 C 176.960938 264.957031 178.382812 266.976562 179.90625 268.925781 C 180.222656 269.328125 180.449219 269.78125 180.585938 270.277344 C 180.722656 270.773438 180.761719 271.277344 180.699219 271.789062 C 180.636719 272.296875 180.476562 272.777344 180.226562 273.226562 C 179.972656 273.675781 179.640625 274.058594 179.234375 274.375 C 178.832031 274.691406 178.378906 274.917969 177.882812 275.054688 C 177.386719 275.191406 176.882812 275.230469 176.371094 275.167969 C 175.863281 275.105469 175.382812 274.945312 174.933594 274.695312 C 174.484375 274.441406 174.101562 274.109375 173.785156 273.703125 Z M 160.449219 248.472656 C 159.617188 245.859375 158.921875 243.214844 158.363281 240.53125 C 158.257812 240.027344 158.253906 239.523438 158.347656 239.015625 C 158.445312 238.511719 158.632812 238.042969 158.914062 237.613281 C 159.195312 237.179688 159.550781 236.820312 159.976562 236.53125 C 160.402344 236.238281 160.867188 236.042969 161.371094 235.9375 C 161.875 235.832031 162.378906 235.828125 162.886719 235.921875 C 163.390625 236.019531 163.859375 236.207031 164.289062 236.488281 C 164.722656 236.769531 165.082031 237.125 165.371094 237.550781 C 165.660156 237.976562 165.859375 238.441406 165.964844 238.945312 C 166.46875 241.367188 167.097656 243.757812 167.847656 246.117188 C 168.003906 246.605469 168.0625 247.109375 168.019531 247.621094 C 167.976562 248.132812 167.835938 248.621094 167.597656 249.078125 C 167.363281 249.535156 167.046875 249.929688 166.652344 250.261719 C 166.261719 250.59375 165.816406 250.835938 165.328125 250.992188 C 164.835938 251.148438 164.335938 251.207031 163.820312 251.164062 C 163.308594 251.117188 162.824219 250.980469 162.367188 250.742188 C 161.910156 250.507812 161.515625 250.191406 161.183594 249.796875 C 160.851562 249.402344 160.605469 248.960938 160.449219 248.472656 Z M 156.746094 220.167969 C 156.875 217.4375 157.136719 214.726562 157.539062 212.035156 C 157.613281 211.527344 157.785156 211.050781 158.046875 210.609375 C 158.3125 210.167969 158.652344 209.792969 159.066406 209.488281 C 159.480469 209.179688 159.9375 208.964844 160.433594 208.839844 C 160.933594 208.714844 161.4375 208.691406 161.949219 208.765625 C 162.457031 208.839844 162.933594 209.011719 163.375 209.277344 C 163.816406 209.539062 164.191406 209.878906 164.496094 210.292969 C 164.804688 210.707031 165.019531 211.164062 165.144531 211.664062 C 165.269531 212.164062 165.292969 212.667969 165.21875 213.175781 C 164.855469 215.609375 164.621094 218.058594 164.503906 220.527344 C 164.480469 221.042969 164.359375 221.53125 164.140625 221.996094 C 163.921875 222.464844 163.621094 222.871094 163.242188 223.21875 C 162.859375 223.5625 162.425781 223.824219 161.945312 224 C 161.460938 224.171875 160.960938 224.25 160.445312 224.226562 C 159.929688 224.203125 159.441406 224.078125 158.976562 223.859375 C 158.507812 223.640625 158.101562 223.34375 157.753906 222.960938 C 157.410156 222.582031 157.148438 222.148438 156.972656 221.664062 C 156.800781 221.179688 156.722656 220.679688 156.746094 220.167969 Z M 163.039062 192.476562 C 164.117188 189.941406 165.320312 187.464844 166.648438 185.050781 C 166.898438 184.597656 167.222656 184.214844 167.625 183.890625 C 168.027344 183.570312 168.476562 183.335938 168.96875 183.195312 C 169.464844 183.050781 169.96875 183.007812 170.480469 183.066406 C 170.992188 183.121094 171.472656 183.273438 171.921875 183.523438 C 172.375 183.769531 172.761719 184.097656 173.082031 184.5 C 173.402344 184.902344 173.636719 185.347656 173.777344 185.84375 C 173.921875 186.339844 173.964844 186.839844 173.910156 187.351562 C 173.851562 187.863281 173.699219 188.347656 173.449219 188.796875 C 172.25 190.980469 171.160156 193.214844 170.191406 195.507812 C 169.988281 195.980469 169.703125 196.398438 169.335938 196.757812 C 168.96875 197.121094 168.546875 197.398438 168.070312 197.589844 C 167.59375 197.78125 167.097656 197.878906 166.582031 197.875 C 166.066406 197.867188 165.574219 197.765625 165.097656 197.566406 C 164.625 197.363281 164.207031 197.078125 163.847656 196.714844 C 163.484375 196.347656 163.207031 195.921875 163.015625 195.445312 C 162.824219 194.96875 162.730469 194.472656 162.734375 193.957031 C 162.738281 193.441406 162.839844 192.949219 163.039062 192.476562 Z M 178.671875 168.546875 C 180.539062 166.5625 182.503906 164.675781 184.558594 162.890625 C 184.949219 162.550781 185.386719 162.300781 185.875 162.136719 C 186.363281 161.972656 186.863281 161.910156 187.378906 161.945312 C 187.890625 161.980469 188.378906 162.117188 188.839844 162.34375 C 189.300781 162.574219 189.699219 162.882812 190.035156 163.273438 C 190.375 163.660156 190.625 164.101562 190.789062 164.589844 C 190.949219 165.078125 191.015625 165.578125 190.980469 166.089844 C 190.941406 166.605469 190.808594 167.09375 190.578125 167.550781 C 190.351562 168.011719 190.042969 168.414062 189.652344 168.75 C 187.792969 170.367188 186.015625 172.074219 184.324219 173.867188 C 183.972656 174.242188 183.5625 174.535156 183.09375 174.746094 C 182.621094 174.957031 182.128906 175.070312 181.617188 175.085938 C 181.101562 175.101562 180.601562 175.019531 180.121094 174.835938 C 179.640625 174.65625 179.210938 174.386719 178.835938 174.035156 C 178.460938 173.679688 178.167969 173.269531 177.957031 172.800781 C 177.746094 172.332031 177.632812 171.839844 177.617188 171.324219 C 177.601562 170.808594 177.6875 170.3125 177.867188 169.828125 C 178.050781 169.347656 178.320312 168.921875 178.671875 168.546875 Z M 201.558594 151.523438 C 204.007812 150.300781 206.515625 149.203125 209.074219 148.238281 C 209.554688 148.058594 210.050781 147.972656 210.566406 147.992188 C 211.082031 148.007812 211.574219 148.121094 212.042969 148.332031 C 212.511719 148.546875 212.921875 148.839844 213.273438 149.214844 C 213.628906 149.589844 213.894531 150.019531 214.078125 150.5 C 214.257812 150.980469 214.339844 151.480469 214.324219 151.996094 C 214.308594 152.507812 214.195312 153 213.980469 153.46875 C 213.769531 153.9375 213.476562 154.351562 213.101562 154.703125 C 212.726562 155.054688 212.296875 155.320312 211.816406 155.503906 C 209.503906 156.375 207.238281 157.367188 205.023438 158.472656 C 204.5625 158.699219 204.078125 158.832031 203.5625 158.871094 C 203.050781 158.90625 202.546875 158.84375 202.058594 158.679688 C 201.570312 158.515625 201.132812 158.265625 200.746094 157.929688 C 200.355469 157.589844 200.046875 157.191406 199.816406 156.730469 C 199.585938 156.269531 199.453125 155.78125 199.417969 155.269531 C 199.382812 154.753906 199.445312 154.253906 199.609375 153.765625 C 199.773438 153.277344 200.023438 152.839844 200.359375 152.449219 C 200.699219 152.0625 201.097656 151.753906 201.558594 151.523438 Z M 228.847656 143.523438 C 231.570312 143.230469 234.3125 143.074219 237.066406 143.058594 C 237.578125 143.054688 238.074219 143.152344 238.550781 143.34375 C 239.03125 143.539062 239.449219 143.816406 239.816406 144.179688 C 240.183594 144.539062 240.464844 144.957031 240.667969 145.433594 C 240.867188 145.90625 240.96875 146.402344 240.972656 146.917969 C 240.976562 147.433594 240.878906 147.929688 240.683594 148.40625 C 240.492188 148.882812 240.214844 149.304688 239.851562 149.667969 C 239.488281 150.035156 239.070312 150.320312 238.597656 150.519531 C 238.121094 150.71875 237.628906 150.820312 237.113281 150.824219 C 234.621094 150.839844 232.144531 150.980469 229.679688 151.246094 C 229.167969 151.300781 228.664062 151.253906 228.171875 151.109375 C 227.675781 150.964844 227.230469 150.730469 226.828125 150.410156 C 226.425781 150.085938 226.101562 149.699219 225.855469 149.246094 C 225.609375 148.792969 225.457031 148.3125 225.402344 147.800781 C 225.347656 147.289062 225.394531 146.785156 225.539062 146.292969 C 225.683594 145.796875 225.917969 145.351562 226.238281 144.949219 C 226.5625 144.546875 226.949219 144.222656 227.402344 143.976562 C 227.851562 143.730469 228.335938 143.578125 228.847656 143.523438 Z M 228.847656 143.523438 " fill-opacity="1" fill-rule="nonzero"/><path stroke-linecap="round" transform="matrix(3.882657, 0, 0, 3.882657, -193.245894, -88.582216)" fill="none" stroke-linejoin="round" d="M 110.950072 64.849731 C 102.299825 64.849731 95.299545 71.860072 95.299545 80.500258 C 95.299545 89.140443 102.309886 96.149779 110.950072 96.149779 C 119.590257 96.149779 126.599593 89.140443 126.599593 80.500258 " stroke="#ffffff" stroke-width="2" stroke-opacity="1" stroke-miterlimit="4"/></svg>